SplineFontDB: 2.0
FontName: Samyak-Gujarati
FullName: Samyak Gujarati
FamilyName: Samyak Gujarati
Weight: Medium
Copyright: Created by:\nRahul Bhalerao <b.rahul.pm@gmail.com>,\nSandeep Shedmake <sandeep.shedmake@gmail.com>,\nBageshri Salvi <sbageshri@gmail.com>,\nPravin Satpute <pravin.d.s@gmail.com>\n\nGNU GPL V.3 or later (with Font Exception), Copyright © 2005-2006 by  H.B.C.S.E., T.I.F.R.,\nHomi Bhabha Centre For Science Education, \nTata Institute Of Fundamental Research,\nV.N. Purav Marg, Mankhurd, \nMumbai 400 088, INDIA.\n\nAs a special exception, if you create a document which uses this font, and embed this font or unaltered portions of this font into the document, this font does not by itself cause the resulting document to be covered by the GNU General Public License. This exception does not however invalidate any other reasons why the document might be covered by the GNU General Public License. If you modify this font, you may extend this exception to your version of the font, but you are not obligated to do so. If you do not wish to do so, delete this exception statement from your version.  \n\nFor detailed license see: \nwww.gnu.org and\nhttp://www.gnu.org/licenses/gpl-faq.html#FontException\n\nFurther info :http://sarovar.org/projects/samyak/\nwww.gnowledge.org\n\nCONTACTS:\nNagarjuna G.\nEmail:nagarjun@gnowledge.org
Version: 1.2
ItalicAngle: 0
UnderlinePosition: -100
UnderlineWidth: 50
Ascent: 819
Descent: 205
Order2: 1
NeedsXUIDChange: 1
FSType: 8
OS2Version: 0
OS2_WeightWidthSlopeOnly: 0
OS2_UseTypoMetrics: 0
CreationTime: 1173960152
ModificationTime: 1204098420
PfmFamily: 17
TTFWeight: 500
TTFWidth: 5
LineGap: 92
VLineGap: 0
Panose: 2 0 6 3 0 0 0 0 0 0
OS2TypoAscent: 819
OS2TypoAOffset: 1
OS2TypoDescent: -205
OS2TypoDOffset: 1
OS2TypoLinegap: 0
OS2WinAscent: 663
OS2WinAOffset: 1
OS2WinDescent: 0
OS2WinDOffset: 1
HheadAscent: 0
HheadAOffset: 1
HheadDescent: 0
HheadDOffset: 1
OS2SubXSize: 665
OS2SubYSize: 716
OS2SubXOff: 0
OS2SubYOff: 143

StartChar: .notdef
Encoding: 0 -1 0
AltUni: 0
Width: 443
Flags: W
Fore
34 0 m 1,0,-1
 34 682 l 1,1,-1
 375 682 l 1,2,-1
 375 0 l 1,3,-1
 34 0 l 1,0,-1
68 34 m 1,4,-1
 341 34 l 1,5,-1
 341 648 l 1,6,-1
 68 648 l 1,7,-1
 68 34 l 1,4,-1
EndSplineSet
EndChar
StartChar: candrabindu
Encoding: 2689 2689 2
Width: 0
GlyphClass: 4
Flags: W
AnchorPoint: "Anchor-1" -154 626 mark 0
Fore
-72 982 m 1,0,1
 -99 955 -99 955 -132 956 c 0,2,3
 -143 957 -143 957 -153 954 c 0,4,5
 -158 953 -158 953 -162 951 c 0,6,7
 -166 949 -166 949 -172 943 c 0,8,9
 -184 928 -184 928 -182 912 c 0,10,11
 -182 910 -182 910 -181 908 c 0,12,13
 -180 905 -180 905 -174 890 c 1,14,15
 -158 863 -158 863 -129 866 c 0,16,17
 -126 866 -126 866 -124 867 c 0,18,19
 -104 872 -104 872 -89 891 c 0,20,21
 -65 922 -65 922 -69 963 c 0,22,23
 -69 967 -69 967 -70 971 c 1,24,-1
 -72 982 l 1,0,1
-383 864 m 1,25,26
 -396 907 -396 907 -394 932 c 0,27,28
 -394 936 -394 936 -393 938 c 0,29,30
 -391 943 -391 943 -386 936 c 2,31,-1
 -379 925 l 1,32,-1
 -368 902 l 2,33,34
 -310 778 -310 778 -179 763 c 1,35,36
 -104 756 -104 756 -34 786 c 0,37,38
 1 801 1 801 36 826 c 0,39,40
 80 859 80 859 105 893 c 1,41,-1
 130 932 l 2,42,43
 131 933 131 933 131 930 c 1,44,-1
 128 907 l 1,45,-1
 127 901 l 1,46,-1
 120 881 l 2,47,48
 117 873 117 873 113 864 c 0,49,50
 56 743 56 743 -59 700 c 0,51,52
 -116 680 -116 680 -171 685 c 0,53,54
 -186 687 -186 687 -200 690 c 0,55,56
 -237 699 -237 699 -265 716 c 0,57,58
 -347 763 -347 763 -383 864 c 1,25,26
EndSplineSet
EndChar
StartChar: sign_anusvara
Encoding: 2690 2690 3
Width: 15
GlyphClass: 4
Flags: W
AnchorPoint: "Anchor-1" -191 682 mark 0
Fore
-134 962 m 1,0,1
 -162 934 -162 934 -195 935 c 0,2,3
 -207 936 -207 936 -216 933 c 0,4,5
 -220 932 -220 932 -224 930 c 0,6,7
 -228 928 -228 928 -234 922 c 0,8,9
 -248 908 -248 908 -246 891 c 0,10,11
 -246 889 -246 889 -245 887 c 2,12,-1
 -237 869 l 1,13,14
 -220 842 -220 842 -191 845 c 0,15,16
 -188 845 -188 845 -186 846 c 0,17,18
 -169 850 -169 850 -152 870 c 0,19,20
 -129 899 -129 899 -131 942 c 0,21,22
 -131 947 -131 947 -132 950 c 1,23,-1
 -134 962 l 1,0,1
EndSplineSet
EndChar
StartChar: sign_visarga
Encoding: 2691 2691 4
Width: 0
GlyphClass: 2
Flags: W
Fore
202 249 m 1,0,1
 174 221 174 221 140 222 c 0,2,3
 129 223 129 223 120 220 c 0,4,5
 116 219 116 219 112 217 c 0,6,7
 106 215 106 215 100 209 c 0,8,9
 88 196 88 196 90 179 c 0,10,11
 90 177 90 177 91 174 c 0,12,13
 92 169 92 169 98 157 c 1,14,15
 116 129 116 129 143 132 c 0,16,17
 146 132 146 132 148 133 c 0,18,19
 169 138 169 138 183 158 c 1,20,21
 207 184 207 184 205 223 c 0,22,23
 205 226 205 226 205 228 c 0,24,25
 205 233 205 233 204 237 c 1,26,-1
 202 249 l 1,0,1
198 568 m 1,27,28
 168 541 168 541 136 542 c 0,29,30
 125 543 125 543 115 540 c 0,31,32
 111 539 111 539 106 537 c 0,33,34
 104 536 104 536 96 528 c 0,35,36
 84 515 84 515 86 499 c 0,37,38
 86 496 86 496 87 494 c 0,39,40
 88 488 88 488 94 476 c 0,41,42
 110 449 110 449 139 452 c 0,43,44
 143 452 143 452 144 453 c 0,45,46
 164 457 164 457 179 477 c 0,47,48
 203 507 203 507 201 549 c 0,49,50
 201 554 201 554 200 557 c 1,51,-1
 198 568 l 1,27,28
EndSplineSet
EndChar
StartChar: letterA
Encoding: 2693 2693 5
Width: 1092
GlyphClass: 2
Flags: W
AnchorPoint: "Anchor-1" 927 644 basechar 0
AnchorPoint: "Anchor-0" 959 0 basechar 0
Fore
971 629 m 1,0,-1
 971 108 l 2,1,2
 971 69 971 69 1006 69 c 0,3,4
 1031 69 1031 69 1047 100 c 2,5,-1
 1051 108 l 1,6,7
 1053 84 1053 84 1048 66 c 0,8,9
 1045 55 1045 55 1040 47 c 0,10,11
 1033 35 1033 35 1021 24 c 2,12,-1
 1002 9 l 1,13,-1
 978 1 l 1,14,-1
 963 0 l 2,15,16
 936 -1 936 -1 920 11 c 0,17,18
 911 17 911 17 905 27 c 1,19,20
 894 40 894 40 890 63 c 0,21,22
 888 85 888 85 888 93 c 2,23,-1
 888 316 l 1,24,25
 855 278 855 278 769 281 c 0,26,27
 766 281 766 281 762 281 c 0,28,29
 735 283 735 283 723 286 c 0,30,31
 721 286 721 286 710 272 c 0,32,33
 706 266 706 266 698 257 c 1,34,35
 630 160 630 160 581 129 c 0,36,37
 541 104 541 104 509 104 c 0,38,39
 410 104 410 104 323 188 c 1,40,41
 322 191 322 191 252 268 c 2,42,-1
 243 279 l 1,43,44
 206 281 l 2,45,46
 127 287 127 287 97 348 c 0,47,48
 92 359 92 359 96 370 c 0,49,50
 97 375 97 375 101 381 c 0,51,52
 106 387 106 387 120 397 c 0,53,54
 146 418 146 418 176 415 c 0,55,56
 179 415 179 415 182 414 c 0,57,58
 184 414 184 414 194 412 c 0,59,60
 258 394 258 394 274 351 c 1,61,62
 280 340 280 340 286 342 c 0,63,64
 401 387 401 387 402 447 c 0,65,66
 402 451 402 451 401 456 c 0,67,68
 401 461 401 461 400 463 c 0,69,70
 400 466 400 466 399 467 c 0,71,72
 364 594 364 594 240 578 c 0,73,74
 230 577 230 577 220 575 c 0,75,76
 181 565 181 565 180 565 c 0,77,78
 137 552 137 552 85 525 c 1,79,80
 45 507 45 507 42 508 c 1,81,-1
 47 518 l 2,82,83
 48 520 48 520 52 524 c 0,84,85
 109 591 109 591 216 617 c 0,86,87
 269 631 269 631 321 629 c 0,88,89
 327 629 327 629 334 628 c 0,90,91
 354 627 354 627 379 620 c 0,92,93
 458 596 458 596 490 531 c 1,94,95
 510 494 510 494 505 458 c 0,96,97
 503 448 503 448 500 438 c 0,98,99
 494 420 494 420 474 393 c 1,100,101
 424 334 424 334 313 304 c 0,102,103
 302 301 302 301 313 286 c 1,104,-1
 332 265 l 2,105,106
 384 211 384 211 456 191 c 1,107,108
 481 186 481 186 498 186 c 0,109,110
 574 187 574 187 625 246 c 1,111,112
 638 259 638 259 660 292 c 1,113,-1
 661 296 l 1,114,-1
 658 298 l 2,115,116
 654 300 654 300 651 301 c 2,117,-1
 621 313 l 1,118,119
 591 331 591 331 584 365 c 0,120,121
 581 380 581 380 585 393 c 0,122,123
 587 400 587 400 591 407 c 1,124,125
 603 421 603 421 608 425 c 0,126,127
 630 441 630 441 652 438 c 0,128,129
 655 438 655 438 658 437 c 0,130,131
 671 433 671 433 686 424 c 1,132,133
 728 391 728 391 727 321 c 1,134,-1
 728 314 l 1,135,136
 749 307 749 307 774 313 c 0,137,138
 786 316 786 316 800 322 c 0,139,140
 823 333 823 333 844 348 c 0,141,142
 870 366 870 366 888 391 c 1,143,-1
 888 563 l 2,144,145
 888 593 888 593 920 602 c 0,146,147
 951 611 951 611 961 616 c 1,148,149
 968 622 968 622 971 629 c 1,0,-1
668 325 m 1,150,151
 675 342 675 342 673 357 c 0,152,153
 672 362 672 362 670 367 c 0,154,155
 666 379 666 379 656 387 c 1,156,157
 645 398 645 398 638 395 c 0,158,159
 621 385 621 385 623 368 c 1,160,-1
 624 364 l 1,161,-1
 628 352 l 1,162,163
 639 331 639 331 668 325 c 1,150,151
218 325 m 1,164,165
 202 367 202 367 171 373 c 1,166,-1
 157 371 l 1,167,-1
 151 369 l 2,168,169
 142 365 142 365 144 354 c 0,170,171
 146 348 146 348 155 343 c 1,172,173
 180 325 180 325 218 325 c 1,164,165
EndSplineSet
EndChar
StartChar: letterAA
Encoding: 2694 2694 6
Width: 1315
GlyphClass: 2
Flags: W
AnchorPoint: "Anchor-1" 1050 641 basechar 0
Fore
1193 629 m 1,0,-1
 1194 108 l 1,1,2
 1194 69 1194 69 1229 69 c 0,3,4
 1255 69 1255 69 1270 100 c 2,5,-1
 1274 108 l 1,6,7
 1275 84 1275 84 1270 64 c 0,8,9
 1267 55 1267 55 1263 47 c 0,10,11
 1253 32 1253 32 1244 24 c 1,12,13
 1223 2 1223 2 1186 0 c 0,14,15
 1161 -1 1161 -1 1144 10 c 1,16,-1
 1130 23 l 1,17,18
 1128 26 1128 26 1126 28 c 0,19,20
 1118 38 1118 38 1111 61 c 1,21,22
 1108 78 1108 78 1108 93 c 1,23,-1
 1109 563 l 1,24,25
 1109 593 1109 593 1141 602 c 0,26,27
 1175 612 1175 612 1181 615 c 0,28,29
 1187 618 1187 618 1193 629 c 1,0,-1
971 629 m 1,30,-1
 971 108 l 2,31,32
 971 69 971 69 1006 69 c 0,33,34
 1031 69 1031 69 1047 100 c 2,35,-1
 1051 108 l 1,36,37
 1053 84 1053 84 1048 66 c 0,38,39
 1045 55 1045 55 1040 47 c 0,40,41
 1033 35 1033 35 1021 24 c 2,42,-1
 1002 9 l 1,43,-1
 978 1 l 1,44,-1
 963 0 l 2,45,46
 936 -1 936 -1 920 11 c 0,47,48
 911 17 911 17 905 27 c 1,49,50
 894 40 894 40 890 63 c 0,51,52
 888 85 888 85 888 93 c 2,53,-1
 888 316 l 1,54,55
 855 278 855 278 769 281 c 0,56,57
 766 281 766 281 762 281 c 0,58,59
 735 283 735 283 723 286 c 0,60,61
 721 286 721 286 710 272 c 0,62,63
 706 266 706 266 698 257 c 1,64,65
 630 160 630 160 581 129 c 0,66,67
 541 104 541 104 509 104 c 0,68,69
 410 104 410 104 323 188 c 1,70,71
 322 191 322 191 252 268 c 2,72,-1
 243 279 l 1,73,74
 206 281 l 2,75,76
 127 287 127 287 97 348 c 0,77,78
 92 359 92 359 96 370 c 0,79,80
 97 375 97 375 101 381 c 0,81,82
 106 387 106 387 120 397 c 0,83,84
 146 418 146 418 176 415 c 0,85,86
 179 415 179 415 182 414 c 0,87,88
 184 414 184 414 194 412 c 0,89,90
 258 394 258 394 274 351 c 1,91,92
 280 340 280 340 286 342 c 0,93,94
 401 387 401 387 402 447 c 0,95,96
 402 451 402 451 401 456 c 0,97,98
 401 461 401 461 400 463 c 0,99,100
 400 466 400 466 399 467 c 0,101,102
 364 594 364 594 240 578 c 0,103,104
 230 577 230 577 220 575 c 0,105,106
 181 565 181 565 180 565 c 0,107,108
 137 552 137 552 85 525 c 1,109,110
 45 507 45 507 42 508 c 1,111,-1
 47 518 l 2,112,113
 48 520 48 520 52 524 c 0,114,115
 109 591 109 591 216 617 c 0,116,117
 269 631 269 631 321 629 c 0,118,119
 327 629 327 629 334 628 c 0,120,121
 354 627 354 627 379 620 c 0,122,123
 458 596 458 596 490 531 c 1,124,125
 510 494 510 494 505 458 c 0,126,127
 503 448 503 448 500 438 c 0,128,129
 494 420 494 420 474 393 c 1,130,131
 424 334 424 334 313 304 c 0,132,133
 302 301 302 301 313 286 c 1,134,-1
 332 265 l 2,135,136
 384 211 384 211 456 191 c 1,137,138
 481 186 481 186 498 186 c 0,139,140
 574 187 574 187 625 246 c 1,141,142
 638 259 638 259 660 292 c 1,143,-1
 661 296 l 1,144,-1
 658 298 l 2,145,146
 654 300 654 300 651 301 c 2,147,-1
 621 313 l 1,148,149
 591 331 591 331 584 365 c 0,150,151
 581 380 581 380 585 393 c 0,152,153
 587 400 587 400 591 407 c 1,154,155
 603 421 603 421 608 425 c 0,156,157
 630 441 630 441 652 438 c 0,158,159
 655 438 655 438 658 437 c 0,160,161
 671 433 671 433 686 424 c 1,162,163
 728 391 728 391 727 321 c 1,164,-1
 728 314 l 1,165,166
 749 307 749 307 774 313 c 0,167,168
 786 316 786 316 800 322 c 0,169,170
 823 333 823 333 844 348 c 0,171,172
 870 366 870 366 888 391 c 1,173,-1
 888 563 l 2,174,175
 888 593 888 593 920 602 c 0,176,177
 951 611 951 611 961 616 c 1,178,179
 968 622 968 622 971 629 c 1,30,-1
668 325 m 1,180,181
 675 342 675 342 673 357 c 0,182,183
 672 362 672 362 670 367 c 0,184,185
 666 379 666 379 656 387 c 1,186,187
 645 398 645 398 638 395 c 0,188,189
 621 385 621 385 623 368 c 1,190,-1
 624 364 l 1,191,-1
 628 352 l 1,192,193
 639 331 639 331 668 325 c 1,180,181
218 325 m 1,194,195
 202 367 202 367 171 373 c 1,196,-1
 157 371 l 1,197,-1
 151 369 l 2,198,199
 142 365 142 365 144 354 c 0,200,201
 146 348 146 348 155 343 c 1,202,203
 180 325 180 325 218 325 c 1,194,195
EndSplineSet
EndChar
StartChar: letterI
Encoding: 2695 2695 7
Width: 661
GlyphClass: 2
Flags: W
Fore
615 237 m 0,0,1
 608 279 608 279 564 360 c 1,2,3
 523 442 523 442 515 481 c 1,4,-1
 512 497 l 1,5,6
 507 529 507 529 515 557 c 0,7,8
 520 573 520 573 529 588 c 0,9,10
 547 618 547 618 575 629 c 1,11,12
 556 630 556 630 538 626 c 0,13,14
 529 624 529 624 520 620 c 1,15,-1
 498 605 l 1,16,-1
 497 604 l 2,17,18
 455 570 455 570 456 514 c 0,19,20
 457 489 457 489 469 447 c 0,21,22
 482 405 482 405 508 347 c 0,23,24
 543 270 543 270 544 215 c 1,25,-1
 544 207 l 1,26,27
 545 180 545 180 530 154 c 0,28,29
 522 141 522 141 510 128 c 0,30,31
 468 83 468 83 392 62 c 0,32,33
 345 50 345 50 300 53 c 0,34,35
 285 54 285 54 271 57 c 0,36,37
 244 61 244 61 214 77 c 1,38,39
 132 116 132 116 134 205 c 1,40,41
 136 230 136 230 143 249 c 1,42,43
 167 300 167 300 259 332 c 1,44,45
 266 333 266 333 273 337 c 1,46,47
 299 345 299 345 297 352 c 1,48,49
 295 354 295 354 292 355 c 2,50,-1
 254 361 l 1,51,52
 188 380 188 380 163 410 c 1,53,54
 135 439 135 439 139 473 c 0,55,56
 140 478 140 478 141 482 c 0,57,58
 146 502 146 502 159 518 c 1,59,60
 196 579 196 579 282 600 c 0,61,62
 306 606 306 606 323 613 c 0,63,64
 328 616 328 616 327 618 c 0,65,66
 327 621 327 621 323 622 c 0,67,68
 308 626 308 626 307 626 c 2,69,-1
 266 627 l 1,70,71
 264 626 264 626 260 626 c 0,72,73
 218 621 218 621 173 604 c 0,74,75
 58 561 58 561 56 477 c 0,76,77
 55 457 55 457 61 441 c 1,78,-1
 69 424 l 2,79,80
 99 361 99 361 190 341 c 1,81,82
 148 338 148 338 106 305 c 0,83,84
 41 255 41 255 42 184 c 0,85,86
 44 110 44 110 112 60 c 0,87,88
 191 0 191 0 319 0 c 2,89,-1
 336 0 l 2,90,91
 462 7 462 7 557 77 c 0,92,93
 566 83 566 83 567 84 c 0,94,95
 625 130 625 130 619 207 c 0,96,97
 619 212 619 212 618 217 c 0,98,99
 616 229 616 229 615 237 c 0,0,1
EndSplineSet
EndChar
StartChar: letterII
Encoding: 2696 2696 8
Width: 793
GlyphClass: 2
Flags: W
Fore
319 0 m 0,0,1
 191 0 191 0 112 60 c 0,2,3
 44 110 44 110 42 184 c 0,4,5
 41 215 41 215 53 241 c 0,6,7
 59 255 59 255 70 268 c 1,8,9
 83 288 83 288 106 305 c 0,10,11
 148 338 148 338 190 341 c 1,12,13
 99 361 99 361 69 424 c 1,14,15
 55 445 55 445 56 477 c 0,16,17
 58 561 58 561 173 604 c 0,18,19
 218 621 218 621 260 626 c 1,20,-1
 297 626 l 1,21,-1
 307 626 l 2,22,23
 328 623 328 623 326 616 c 1,24,-1
 323 613 l 1,25,26
 306 606 306 606 282 600 c 0,27,28
 196 579 196 579 159 518 c 1,29,30
 135 485 135 485 140 454 c 0,31,32
 140 448 140 448 142 443 c 0,33,34
 145 432 145 432 163 410 c 0,35,36
 188 380 188 380 254 361 c 1,37,-1
 292 355 l 1,38,39
 299 352 299 352 298 348 c 1,40,-1
 294 345 l 2,41,42
 290 342 290 342 273 337 c 1,43,44
 266 333 266 333 259 332 c 1,45,46
 165 300 165 300 143 251 c 0,47,48
 134 230 134 230 134 205 c 0,49,50
 134 146 134 146 172 109 c 0,51,52
 190 91 190 91 220 76 c 0,53,54
 278 47 278 47 345 51 c 0,55,56
 352 51 352 51 359 52 c 0,57,58
 374 53 374 53 400 59 c 0,59,60
 504 87 504 87 540 175 c 0,61,62
 552 204 552 204 555 236 c 0,63,64
 557 264 557 264 547 306 c 0,65,66
 542 327 542 327 534 352 c 0,67,68
 521 397 521 397 502 437 c 1,69,70
 442 580 442 580 434 614 c 0,71,72
 425 654 425 654 426 683 c 0,73,74
 428 777 428 777 513 835 c 0,75,76
 572 876 572 876 645 878 c 0,77,78
 690 879 690 879 728 862 c 0,79,80
 747 853 747 853 763 841 c 0,81,82
 773 834 773 834 791 814 c 1,83,-1
 806 787 l 1,84,85
 818 762 818 762 818 730 c 1,86,87
 780 829 780 829 666 828 c 2,88,-1
 660 828 l 2,89,90
 651 828 651 828 646 827 c 0,91,92
 578 823 578 823 528 771 c 1,93,94
 493 730 493 730 493 686 c 0,95,96
 493 583 493 583 561 438 c 0,97,98
 608 341 608 341 624 300 c 1,99,100
 639 251 639 251 638 222 c 0,101,102
 636 119 636 119 525 54 c 1,103,104
 437 0 437 0 319 0 c 0,0,1
EndSplineSet
EndChar
StartChar: letterU
Encoding: 2697 2697 9
Width: 775
GlyphClass: 2
Flags: W
Fore
421 350 m 1,0,1
 481 364 481 364 520 386 c 2,2,-1
 549 404 l 1,3,4
 595 445 595 445 581 500 c 0,5,6
 577 515 577 515 569 531 c 1,7,8
 567 538 567 538 563 542 c 1,9,10
 533 585 533 585 472 586 c 0,11,12
 445 587 445 587 426 580 c 0,13,14
 417 576 417 576 409 570 c 0,15,16
 397 563 397 563 389 549 c 0,17,18
 377 526 377 526 382 510 c 1,19,-1
 390 496 l 1,20,-1
 392 494 l 2,21,22
 403 482 403 482 426 474 c 2,23,-1
 430 472 l 1,24,25
 422 468 422 468 399 461 c 0,26,27
 356 449 356 449 332 464 c 0,28,29
 321 471 321 471 313 485 c 0,30,31
 302 504 302 504 305 526 c 0,32,33
 306 532 306 532 308 538 c 0,34,35
 313 555 313 555 323 566 c 1,36,37
 368 631 368 631 478 632 c 0,38,39
 536 633 536 633 577 618 c 0,40,41
 598 611 598 611 614 600 c 0,42,43
 640 584 640 584 656 558 c 0,44,45
 681 518 681 518 676 479 c 0,46,47
 676 475 676 475 675 470 c 0,48,49
 672 453 672 453 664 435 c 0,50,51
 632 367 632 367 552 352 c 1,52,53
 705 319 705 319 732 205 c 0,54,55
 740 168 740 168 727 133 c 0,56,57
 719 114 719 114 706 95 c 0,58,59
 640 0 640 0 474 0 c 0,60,61
 448 0 448 0 422 3 c 0,62,63
 262 22 262 22 152 147 c 1,64,65
 42 275 42 275 42 447 c 1,66,67
 44 594 44 594 129 702 c 0,68,69
 262 873 262 873 550 867 c 0,70,71
 556 867 556 867 561 867 c 0,72,73
 600 865 600 865 618 857 c 1,74,-1
 626 850 l 1,75,76
 629 845 629 845 618 842 c 0,77,78
 612 840 612 840 601 839 c 2,79,-1
 560 837 l 1,80,81
 478 836 478 836 410 819 c 0,82,83
 147 752 147 752 139 447 c 0,84,85
 139 443 139 443 138 441 c 0,86,87
 137 367 137 367 156 304 c 0,88,89
 165 272 165 272 179 243 c 0,90,91
 200 197 200 197 232 161 c 1,92,93
 328 48 328 48 471 49 c 0,94,95
 514 49 514 49 552 68 c 2,96,-1
 582 84 l 1,97,98
 642 128 642 128 639 195 c 1,99,-1
 639 202 l 1,100,101
 634 239 634 239 601 275 c 1,102,103
 555 329 555 329 437 327 c 0,104,105
 433 327 l 0,106,107
 425 327 425 327 420 326 c 0,108,109
 402 325 402 325 396 330 c 0,110,111
 393 332 393 332 394 336 c 0,112,113
 396 346 396 346 421 350 c 1,0,1
EndSplineSet
EndChar
StartChar: letterUU
Encoding: 2698 2698 10
Width: 1060
GlyphClass: 2
Flags: W
Fore
526 834 m 0,0,1
 374 832 374 832 282 764 c 0,2,3
 145 663 145 663 139 447 c 0,4,5
 139 443 139 443 138 441 c 0,6,7
 137 367 137 367 156 304 c 0,8,9
 165 272 165 272 179 243 c 0,10,11
 200 197 200 197 232 161 c 1,12,13
 328 48 328 48 471 49 c 0,14,15
 514 49 514 49 552 68 c 2,16,-1
 582 84 l 1,17,18
 642 128 642 128 639 195 c 1,19,-1
 639 202 l 1,20,21
 634 239 634 239 601 275 c 1,22,23
 541 345 541 345 445 340 c 0,24,25
 440 339 440 339 436 339 c 0,26,27
 430 339 430 339 420 337 c 1,28,-1
 397 337 l 1,29,-1
 395 338 l 1,30,-1
 398 344 l 1,31,32
 406 348 406 348 410 350 c 1,33,34
 478 362 478 362 520 386 c 2,35,-1
 549 404 l 1,36,37
 595 445 595 445 581 500 c 0,38,39
 577 515 577 515 569 531 c 1,40,41
 567 538 567 538 563 542 c 1,42,43
 533 585 533 585 472 586 c 0,44,45
 445 587 445 587 426 580 c 0,46,47
 417 576 417 576 409 570 c 0,48,49
 397 563 397 563 389 549 c 0,50,51
 377 526 377 526 382 510 c 1,52,-1
 390 496 l 1,53,-1
 392 494 l 2,54,55
 403 482 403 482 426 474 c 2,56,-1
 430 472 l 1,57,58
 422 468 422 468 399 461 c 0,59,60
 356 449 356 449 332 464 c 0,61,62
 321 471 321 471 313 485 c 0,63,64
 302 504 302 504 305 526 c 0,65,66
 306 532 306 532 308 538 c 0,67,68
 313 555 313 555 323 566 c 1,69,70
 368 631 368 631 478 632 c 0,71,72
 536 633 536 633 577 618 c 0,73,74
 598 611 598 611 614 600 c 0,75,76
 640 584 640 584 656 558 c 0,77,78
 681 518 681 518 676 479 c 0,79,80
 676 475 676 475 675 470 c 0,81,82
 672 453 672 453 664 435 c 0,83,84
 632 367 632 367 552 352 c 1,85,86
 705 319 705 319 732 205 c 0,87,88
 740 168 740 168 727 133 c 0,89,90
 719 114 719 114 706 95 c 0,91,92
 640 0 640 0 474 0 c 0,93,94
 448 0 448 0 422 3 c 0,95,96
 262 22 262 22 152 147 c 1,97,98
 42 275 42 275 42 447 c 0,99,100
 43 596 43 596 136 711 c 0,101,102
 267 874 267 874 520 881 c 0,103,104
 532 882 532 882 558 880 c 0,105,106
 702 871 702 871 812 799 c 1,107,108
 933 717 933 717 933 613 c 1,109,-1
 934 98 l 1,110,111
 940 71 940 71 969 63 c 1,112,113
 987 62 987 62 1004 77 c 0,114,115
 1012 85 1012 85 1020 96 c 1,116,117
 1013 68 1013 68 1007 54 c 0,118,119
 983 -1 983 -1 922 -2 c 0,120,121
 879 -2 879 -2 860 39 c 1,122,-1
 850 65 l 1,123,-1
 850 621 l 1,124,125
 845 689 845 689 785 742 c 1,126,127
 694 827 694 827 561 833 c 0,128,129
 550 834 550 834 526 834 c 0,0,1
EndSplineSet
EndChar
StartChar: vocalicR
Encoding: 2699 2699 11
Width: 996
GlyphClass: 2
Flags: W
Fore
806 408 m 1,0,1
 850 435 850 435 863 487 c 0,2,3
 870 515 870 515 866 535 c 0,4,5
 864 545 864 545 859 554 c 0,6,7
 853 564 853 564 835 573 c 1,8,9
 821 582 821 582 800 583 c 0,10,11
 786 584 786 584 776 578 c 0,12,13
 771 575 771 575 766 570 c 0,14,15
 757 563 757 563 750 551 c 0,16,17
 735 524 735 524 738 495 c 0,18,19
 740 485 l 0,20,21
 743 472 743 472 757 452 c 0,22,23
 775 426 775 426 806 408 c 1,0,1
556 319 m 1,24,-1
 601 315 l 2,25,26
 642 310 642 310 678 319 c 0,27,28
 696 324 696 324 713 333 c 0,29,30
 734 342 734 342 761 362 c 1,31,32
 694 390 694 390 666 449 c 0,33,34
 653 475 653 475 653 506 c 0,35,36
 653 555 653 555 685 589 c 1,37,38
 699 606 699 606 725 617 c 1,39,40
 771 640 771 640 816 636 c 0,41,42
 820 636 820 636 825 635 c 0,43,44
 843 632 843 632 861 626 c 0,45,46
 935 599 935 599 945 523 c 0,47,48
 946 521 946 521 946 518 c 0,49,50
 949 481 949 481 926 444 c 0,51,52
 914 423 914 423 894 403 c 0,53,54
 882 390 882 390 867 379 c 1,55,56
 943 350 943 350 953 282 c 0,57,58
 958 251 958 251 951 224 c 0,59,60
 947 208 947 208 940 194 c 0,61,62
 928 173 928 173 909 154 c 0,63,64
 875 120 875 120 821 100 c 1,65,66
 754 79 754 79 741 83 c 1,67,-1
 742 88 l 1,68,-1
 743 89 l 2,69,70
 759 103 759 103 787 118 c 1,71,72
 848 137 848 137 876 195 c 0,73,74
 892 229 892 229 887 258 c 0,75,76
 886 266 886 266 883 273 c 0,77,78
 878 289 878 289 862 307 c 1,79,-1
 841 325 l 1,80,-1
 813 341 l 1,81,82
 737 263 737 263 580 253 c 2,83,-1
 557 252 l 1,84,-1
 557 108 l 2,85,86
 557 69 557 69 592 69 c 0,87,88
 617 69 617 69 632 100 c 1,89,-1
 637 108 l 1,90,91
 638 84 638 84 632 63 c 0,92,93
 629 55 629 55 625 47 c 0,94,95
 619 36 619 36 607 24 c 2,96,-1
 591 10 l 1,97,-1
 566 2 l 2,98,99
 556 0 556 0 549 0 c 0,100,101
 508 -1 508 -1 489 27 c 0,102,103
 480 41 480 41 476 63 c 1,104,105
 474 85 474 85 474 93 c 0,106,107
 474 139 474 139 473 227 c 1,108,109
 460 230 460 230 433 215 c 0,110,111
 416 206 416 206 395 191 c 0,112,113
 354 163 354 163 329 140 c 1,114,-1
 268 90 l 2,115,116
 221 53 221 53 150 50 c 1,117,-1
 112 52 l 2,118,119
 104 53 104 53 94 55 c 0,120,121
 73 61 73 61 74 68 c 1,122,123
 76 70 76 70 87 72 c 2,124,-1
 101 73 l 1,125,126
 133 72 133 72 158 79 c 0,127,128
 172 82 172 82 183 88 c 1,129,130
 203 96 203 96 217 109 c 0,131,132
 250 139 250 139 298 198 c 0,133,134
 330 238 330 238 397 271 c 1,135,-1
 457 305 l 2,136,137
 473 314 473 314 470 330 c 1,138,139
 468 334 468 334 464 339 c 1,140,-1
 452 347 l 1,141,142
 419 362 419 362 351 424 c 0,143,144
 286 484 286 484 239 498 c 1,145,146
 218 506 218 506 193 505 c 0,147,148
 189 504 189 504 184 504 c 0,149,150
 104 493 104 493 104 433 c 0,151,152
 104 403 104 403 122 374 c 1,153,154
 128 361 128 361 142 346 c 0,155,156
 154 334 154 334 166 329 c 1,157,158
 181 320 181 320 179 315 c 1,159,-1
 174 315 l 1,160,-1
 145 319 l 1,161,162
 140 323 140 323 134 324 c 1,163,164
 80 344 80 344 53 402 c 1,165,166
 26 468 26 468 65 516 c 1,167,168
 102 559 102 559 187 562 c 0,169,170
 220 563 220 563 255 550 c 0,171,172
 272 544 272 544 291 534 c 0,173,174
 323 515 323 515 347 496 c 2,175,-1
 428 432 l 1,176,177
 453 414 453 414 473 406 c 1,178,-1
 474 560 l 1,179,180
 474 591 474 591 508 601 c 0,181,182
 539 611 539 611 549 617 c 1,183,184
 555 625 555 625 557 629 c 1,185,-1
 556 332 l 1,186,-1
 556 319 l 1,24,-1
EndSplineSet
EndChar
StartChar: uni0A8C
Encoding: 2700 2700 12
Width: 908
GlyphClass: 2
Flags: W
Fore
598 629 m 1,0,1
 650 601 650 601 655 552 c 0,2,3
 656 536 656 536 652 522 c 0,4,5
 648 512 648 512 645 507 c 0,6,7
 641 495 641 495 642 487 c 0,8,9
 644 482 644 482 648 481 c 1,10,11
 652 478 652 478 679 471 c 0,12,13
 738 455 738 455 774 400 c 0,14,15
 805 354 805 354 802 290 c 0,16,17
 802 287 802 287 802 283 c 1,18,-1
 800 266 l 2,19,20
 793 204 793 204 756 202 c 1,21,-1
 735 206 l 1,22,23
 675 227 675 227 615 200 c 1,24,25
 560 171 560 171 557 122 c 0,26,27
 554 87 554 87 582 67 c 0,28,29
 598 57 598 57 623 51 c 0,30,31
 648 46 648 46 669 47 c 2,32,-1
 673 47 l 2,33,34
 750 50 750 50 811 97 c 1,35,36
 817 103 817 103 821 108 c 2,37,-1
 858 150 l 2,38,39
 868 161 868 161 867 153 c 1,40,-1
 863 139 l 1,41,-1
 857 125 l 1,42,43
 804 13 804 13 673 0 c 0,44,45
 639 -4 639 -4 606 3 c 0,46,47
 589 6 589 6 573 12 c 0,48,49
 556 19 556 19 527 38 c 1,50,51
 468 80 468 80 471 136 c 0,52,53
 472 138 472 138 472 141 c 0,54,55
 472 145 472 145 473 146 c 0,56,57
 491 230 491 230 577 260 c 0,58,59
 612 272 612 272 648 270 c 0,60,61
 651 270 651 270 655 270 c 0,62,63
 669 268 669 268 678 266 c 0,64,65
 710 258 710 258 720 272 c 0,66,67
 727 280 727 280 727 295 c 0,68,69
 727 304 727 304 724 314 c 0,70,71
 699 410 699 410 593 413 c 1,72,-1
 553 411 l 1,73,74
 478 399 478 399 440 306 c 0,75,76
 442 310 442 310 434 288 c 0,77,78
 423 256 423 256 423 255 c 1,79,-1
 394 332 l 1,80,81
 367 392 367 392 318 408 c 1,82,83
 304 411 304 411 289 411 c 0,84,85
 208 410 208 410 164 339 c 1,86,87
 131 289 131 289 138 231 c 0,88,89
 139 220 139 220 142 208 c 0,90,91
 166 122 166 122 227 67 c 1,92,93
 262 32 262 32 307 12 c 1,94,-1
 337 2 l 2,95,96
 340 1 340 1 336 1 c 0,97,98
 333 0 333 0 326 0 c 2,99,-1
 304 2 l 1,100,-1
 299 3 l 2,101,102
 179 16 179 16 104 111 c 0,103,104
 63 163 63 163 50 227 c 0,105,106
 29 319 29 319 64 382 c 0,107,108
 83 415 83 415 118 440 c 0,109,110
 179 485 179 485 256 484 c 2,111,-1
 261 484 l 2,112,113
 304 485 304 485 336 474 c 0,114,115
 352 469 352 469 365 460 c 0,116,117
 386 447 386 447 400 426 c 1,118,-1
 425 382 l 1,119,120
 468 464 468 464 522 483 c 0,121,122
 557 496 557 496 577 537 c 0,123,124
 582 549 582 549 582 557 c 0,125,126
 581 592 581 592 548 617 c 0,127,128
 535 627 535 627 519 629 c 1,129,-1
 509 642 l 1,130,131
 501 657 501 657 541 647 c 0,132,133
 563 641 563 641 598 629 c 1,0,1
EndSplineSet
EndChar
StartChar: vowelcandraE
Encoding: 2701 2701 13
Width: 1092
GlyphClass: 2
Flags: W
Fore
738 885 m 1,0,-1
 798 865 l 2,1,2
 919 823 919 823 952 752 c 0,3,4
 963 726 963 726 966 708 c 0,5,6
 968 693 968 693 966 685 c 0,7,8
 965 681 965 681 964 679 c 1,9,-1
 958 674 l 1,10,-1
 957 673 l 2,11,12
 950 673 950 673 946 683 c 0,13,14
 942 694 942 694 942 696 c 0,15,16
 936 716 936 716 918 733 c 0,17,18
 862 785 862 785 743 809 c 1,19,-1
 683 828 l 1,20,21
 563 871 563 871 530 941 c 0,22,23
 518 966 518 966 515 989 c 1,24,-1
 516 1012 l 1,25,26
 518 1016 l 0,27,28
 519 1020 519 1020 525 1020 c 0,29,30
 537 1020 537 1020 541 997 c 0,31,32
 544 980 544 980 562 962 c 0,33,34
 616 909 616 909 738 885 c 1,0,-1
971 629 m 1,35,-1
 971 108 l 2,36,37
 971 69 971 69 1006 69 c 0,38,39
 1031 69 1031 69 1047 100 c 2,40,-1
 1051 108 l 1,41,42
 1053 84 1053 84 1048 66 c 0,43,44
 1045 55 1045 55 1040 47 c 0,45,46
 1033 35 1033 35 1021 24 c 2,47,-1
 1002 9 l 1,48,-1
 978 1 l 1,49,-1
 963 0 l 2,50,51
 936 -1 936 -1 920 11 c 0,52,53
 911 17 911 17 905 27 c 1,54,55
 894 40 894 40 890 63 c 0,56,57
 888 85 888 85 888 93 c 2,58,-1
 888 316 l 1,59,60
 855 278 855 278 769 281 c 0,61,62
 766 281 766 281 762 281 c 0,63,64
 735 283 735 283 723 286 c 0,65,66
 721 286 721 286 710 272 c 0,67,68
 706 266 706 266 698 257 c 1,69,70
 630 160 630 160 581 129 c 0,71,72
 541 104 541 104 509 104 c 0,73,74
 410 104 410 104 323 188 c 1,75,76
 322 191 322 191 252 268 c 2,77,-1
 243 279 l 1,78,79
 206 281 l 2,80,81
 127 287 127 287 97 348 c 0,82,83
 92 359 92 359 96 370 c 0,84,85
 97 375 97 375 101 381 c 0,86,87
 106 387 106 387 120 397 c 0,88,89
 146 418 146 418 176 415 c 0,90,91
 179 415 179 415 182 414 c 0,92,93
 184 414 184 414 194 412 c 0,94,95
 258 394 258 394 274 351 c 1,96,97
 280 340 280 340 286 342 c 0,98,99
 401 388 401 388 401 454 c 0,100,101
 401 459 401 459 399 469 c 0,102,103
 364 596 364 596 238 581 c 0,104,105
 229 580 229 580 220 578 c 2,106,-1
 180 567 l 2,107,108
 137 554 137 554 85 527 c 1,109,110
 45 509 45 509 42 510 c 1,111,-1
 47 520 l 2,112,113
 48 522 48 522 52 526 c 0,114,115
 109 592 109 592 216 620 c 0,116,117
 270 633 270 633 321 631 c 0,118,119
 327 631 327 631 334 630 c 0,120,121
 354 629 354 629 379 622 c 0,122,123
 459 597 459 597 490 534 c 0,124,125
 510 495 510 495 505 459 c 0,126,127
 503 449 503 449 500 439 c 0,128,129
 494 422 494 422 474 394 c 0,130,131
 470 388 470 388 447 368 c 0,132,133
 400 327 400 327 313 304 c 0,134,135
 302 301 302 301 313 286 c 1,136,-1
 332 265 l 2,137,138
 384 211 384 211 456 191 c 1,139,140
 481 186 481 186 498 186 c 0,141,142
 574 187 574 187 625 246 c 1,143,144
 638 259 638 259 660 292 c 1,145,-1
 661 296 l 1,146,-1
 658 298 l 2,147,148
 654 300 654 300 651 301 c 2,149,-1
 621 313 l 1,150,151
 591 331 591 331 584 365 c 0,152,153
 581 380 581 380 585 393 c 0,154,155
 587 400 587 400 591 407 c 1,156,157
 603 421 603 421 608 425 c 0,158,159
 630 441 630 441 652 438 c 0,160,161
 655 438 655 438 658 437 c 0,162,163
 671 433 671 433 686 424 c 1,164,165
 728 391 728 391 727 321 c 1,166,-1
 728 314 l 1,167,168
 749 307 749 307 774 313 c 0,169,170
 786 316 786 316 800 322 c 0,171,172
 823 333 823 333 844 348 c 0,173,174
 870 366 870 366 888 391 c 1,175,-1
 888 563 l 2,176,177
 888 593 888 593 920 602 c 0,178,179
 951 611 951 611 961 616 c 1,180,181
 968 622 968 622 971 629 c 1,35,-1
668 325 m 1,182,183
 675 342 675 342 673 357 c 0,184,185
 672 362 672 362 670 367 c 0,186,187
 666 379 666 379 656 387 c 1,188,189
 645 398 645 398 638 395 c 0,190,191
 621 385 621 385 623 368 c 1,192,-1
 624 364 l 1,193,-1
 628 352 l 1,194,195
 639 331 639 331 668 325 c 1,182,183
218 325 m 1,196,197
 202 367 202 367 171 373 c 1,198,-1
 157 371 l 1,199,-1
 151 369 l 2,200,201
 142 365 142 365 144 354 c 0,202,203
 146 348 146 348 155 343 c 1,204,205
 180 325 180 325 218 325 c 1,196,197
EndSplineSet
EndChar
StartChar: letterE
Encoding: 2703 2703 14
Width: 1092
GlyphClass: 2
Flags: W
Fore
887 597 m 1,0,-1
 882 603 l 2,1,2
 843 653 843 653 777 788 c 1,3,4
 738 882 738 882 683 878 c 0,5,6
 680 877 680 877 678 877 c 2,7,-1
 642 866 l 1,8,-1
 632 865 l 1,9,-1
 633 868 l 1,10,11
 635 870 635 870 637 871 c 0,12,13
 643 877 643 877 648 880 c 0,14,15
 699 912 699 912 740 911 c 0,16,17
 755 910 755 910 767 904 c 0,18,19
 808 885 808 885 847 800 c 0,20,21
 898 690 898 690 969 628 c 1,22,23
 947 628 947 628 927 614 c 0,24,25
 901 597 901 597 887 597 c 1,0,-1
971 629 m 1,26,-1
 971 108 l 2,27,28
 971 69 971 69 1006 69 c 0,29,30
 1031 69 1031 69 1047 100 c 2,31,-1
 1051 108 l 1,32,33
 1053 84 1053 84 1048 66 c 0,34,35
 1045 55 1045 55 1040 47 c 0,36,37
 1033 35 1033 35 1021 24 c 2,38,-1
 1002 9 l 1,39,-1
 978 1 l 1,40,-1
 963 0 l 2,41,42
 936 -1 936 -1 920 11 c 0,43,44
 911 17 911 17 905 27 c 1,45,46
 894 40 894 40 890 63 c 0,47,48
 888 85 888 85 888 93 c 2,49,-1
 888 316 l 1,50,51
 855 278 855 278 769 281 c 0,52,53
 766 281 766 281 762 281 c 0,54,55
 735 283 735 283 723 286 c 0,56,57
 721 286 721 286 710 272 c 0,58,59
 706 266 706 266 698 257 c 1,60,61
 630 160 630 160 581 129 c 0,62,63
 541 104 541 104 509 104 c 0,64,65
 410 104 410 104 323 188 c 1,66,67
 322 191 322 191 252 268 c 2,68,-1
 243 279 l 1,69,70
 206 281 l 2,71,72
 127 287 127 287 97 348 c 0,73,74
 92 359 92 359 96 370 c 0,75,76
 97 375 97 375 101 381 c 0,77,78
 106 387 106 387 120 397 c 0,79,80
 146 418 146 418 176 415 c 0,81,82
 179 415 179 415 182 414 c 0,83,84
 184 414 184 414 194 412 c 0,85,86
 258 394 258 394 274 351 c 1,87,88
 280 340 280 340 286 342 c 0,89,90
 400 387 400 387 401 445 c 0,91,92
 401 451 401 451 400 456 c 0,93,94
 400 461 400 461 399 464 c 0,95,96
 364 591 364 591 240 575 c 0,97,98
 230 574 230 574 220 572 c 0,99,100
 181 562 181 562 180 562 c 0,101,102
 137 549 137 549 85 522 c 1,103,104
 45 504 45 504 42 505 c 1,105,-1
 47 515 l 2,106,107
 48 517 48 517 52 521 c 0,108,109
 109 588 109 588 216 614 c 0,110,111
 269 628 269 628 321 626 c 0,112,113
 327 626 327 626 334 625 c 0,114,115
 356 624 356 624 379 616 c 1,116,117
 458 594 458 594 490 529 c 1,118,119
 516 480 516 480 500 435 c 0,120,121
 492 413 492 413 473 391 c 0,122,123
 425 334 425 334 313 304 c 0,124,125
 302 301 302 301 313 286 c 1,126,-1
 332 265 l 2,127,128
 384 211 384 211 456 191 c 1,129,130
 481 186 481 186 498 186 c 0,131,132
 574 187 574 187 625 246 c 1,133,134
 638 259 638 259 660 292 c 1,135,-1
 661 296 l 1,136,-1
 658 298 l 2,137,138
 654 300 654 300 651 301 c 2,139,-1
 621 313 l 1,140,141
 591 331 591 331 584 365 c 0,142,143
 581 380 581 380 585 393 c 0,144,145
 587 400 587 400 591 407 c 1,146,147
 603 421 603 421 608 425 c 0,148,149
 630 441 630 441 652 438 c 0,150,151
 655 438 655 438 658 437 c 0,152,153
 671 433 671 433 686 424 c 1,154,155
 728 391 728 391 727 321 c 1,156,-1
 728 314 l 1,157,158
 749 307 749 307 774 313 c 0,159,160
 786 316 786 316 800 322 c 0,161,162
 823 333 823 333 844 348 c 0,163,164
 870 366 870 366 888 391 c 1,165,-1
 889 598 l 1,166,167
 903 598 903 598 929 615 c 0,168,169
 949 629 949 629 971 629 c 1,26,-1
668 325 m 1,170,171
 675 342 675 342 673 357 c 0,172,173
 672 362 672 362 670 367 c 0,174,175
 666 379 666 379 656 387 c 1,176,177
 645 398 645 398 638 395 c 0,178,179
 621 385 621 385 623 368 c 1,180,-1
 624 364 l 1,181,-1
 628 352 l 1,182,183
 639 331 639 331 668 325 c 1,170,171
218 325 m 1,184,185
 202 367 202 367 171 373 c 1,186,-1
 157 371 l 1,187,-1
 151 369 l 2,188,189
 142 365 142 365 144 354 c 0,190,191
 146 348 146 348 155 343 c 1,192,193
 180 325 180 325 218 325 c 1,184,185
EndSplineSet
EndChar
StartChar: letterAI
Encoding: 2704 2704 15
Width: 1092
GlyphClass: 2
Flags: W
Fore
888 563 m 1,0,1
 880 569 880 569 868 579 c 1,2,-1
 742 698 l 1,3,4
 609 820 609 820 525 811 c 0,5,6
 522 811 522 811 518 810 c 2,7,-1
 506 806 l 1,8,-1
 498 805 l 2,9,10
 495 805 495 805 495 807 c 0,11,12
 495 809 495 809 498 812 c 0,13,14
 504 816 504 816 512 822 c 0,15,16
 560 855 560 855 600 854 c 0,17,18
 616 853 616 853 640 846 c 0,19,20
 699 830 699 830 794 749 c 0,21,22
 854 698 854 698 872 693 c 1,23,-1
 864 716 l 1,24,25
 843 787 843 787 838 799 c 0,26,27
 799 894 799 894 735 888 c 2,28,-1
 730 887 l 1,29,-1
 693 877 l 1,30,-1
 684 876 l 1,31,-1
 686 881 l 1,32,-1
 688 882 l 2,33,34
 692 886 692 886 699 890 c 0,35,36
 751 923 751 923 792 922 c 0,37,38
 796 922 796 922 804 920 c 0,39,40
 898 900 898 900 953 710 c 1,41,-1
 971 632 l 1,42,43
 968 625 968 625 963 620 c 0,44,45
 954 612 954 612 920 601 c 0,46,47
 888 590 888 590 888 563 c 1,0,1
971 629 m 1,48,-1
 971 108 l 2,49,50
 971 69 971 69 1006 69 c 0,51,52
 1031 69 1031 69 1047 100 c 2,53,-1
 1051 108 l 1,54,55
 1053 84 1053 84 1048 66 c 0,56,57
 1045 55 1045 55 1040 47 c 0,58,59
 1033 35 1033 35 1021 24 c 2,60,-1
 1002 9 l 1,61,-1
 978 1 l 1,62,-1
 963 0 l 2,63,64
 936 -1 936 -1 920 11 c 0,65,66
 911 17 911 17 905 27 c 1,67,68
 894 40 894 40 890 63 c 0,69,70
 888 85 888 85 888 93 c 2,71,-1
 888 316 l 1,72,73
 855 278 855 278 769 281 c 0,74,75
 766 281 766 281 762 281 c 0,76,77
 735 283 735 283 723 286 c 0,78,79
 721 286 721 286 710 272 c 0,80,81
 706 266 706 266 698 257 c 1,82,83
 630 160 630 160 581 129 c 0,84,85
 541 104 541 104 509 104 c 0,86,87
 410 104 410 104 323 188 c 1,88,89
 322 191 322 191 252 268 c 2,90,-1
 243 279 l 1,91,92
 206 281 l 2,93,94
 127 287 127 287 97 348 c 0,95,96
 92 359 92 359 96 370 c 0,97,98
 97 375 97 375 101 381 c 0,99,100
 106 387 106 387 120 397 c 0,101,102
 146 418 146 418 176 415 c 0,103,104
 179 415 179 415 182 414 c 0,105,106
 184 414 184 414 194 412 c 0,107,108
 258 394 258 394 274 351 c 1,109,110
 280 340 280 340 286 342 c 0,111,112
 401 387 401 387 402 447 c 0,113,114
 402 451 402 451 401 456 c 0,115,116
 401 461 401 461 400 463 c 0,117,118
 400 466 400 466 399 467 c 0,119,120
 364 594 364 594 240 578 c 0,121,122
 230 577 230 577 220 575 c 0,123,124
 181 565 181 565 180 565 c 0,125,126
 137 552 137 552 85 525 c 1,127,128
 45 507 45 507 42 508 c 1,129,-1
 47 518 l 2,130,131
 48 520 48 520 52 524 c 0,132,133
 109 591 109 591 216 617 c 0,134,135
 269 631 269 631 321 629 c 0,136,137
 327 629 327 629 334 628 c 0,138,139
 354 627 354 627 379 620 c 0,140,141
 458 596 458 596 490 531 c 1,142,143
 510 494 510 494 505 458 c 0,144,145
 503 448 503 448 500 438 c 0,146,147
 494 420 494 420 474 393 c 1,148,149
 424 334 424 334 313 304 c 0,150,151
 302 301 302 301 313 286 c 1,152,-1
 332 265 l 2,153,154
 384 211 384 211 456 191 c 1,155,156
 481 186 481 186 498 186 c 0,157,158
 574 187 574 187 625 246 c 1,159,160
 638 259 638 259 660 292 c 1,161,-1
 661 296 l 1,162,-1
 658 298 l 2,163,164
 654 300 654 300 651 301 c 2,165,-1
 621 313 l 1,166,167
 591 331 591 331 584 365 c 0,168,169
 581 380 581 380 585 393 c 0,170,171
 587 400 587 400 591 407 c 1,172,173
 603 421 603 421 608 425 c 0,174,175
 630 441 630 441 652 438 c 0,176,177
 655 438 655 438 658 437 c 0,178,179
 671 433 671 433 686 424 c 1,180,181
 728 391 728 391 727 321 c 1,182,-1
 728 314 l 1,183,184
 749 307 749 307 774 313 c 0,185,186
 786 316 786 316 800 322 c 0,187,188
 823 333 823 333 844 348 c 0,189,190
 870 366 870 366 888 391 c 1,191,-1
 888 563 l 2,192,193
 888 593 888 593 920 602 c 0,194,195
 951 611 951 611 961 616 c 1,196,197
 968 622 968 622 971 629 c 1,48,-1
668 325 m 1,198,199
 675 342 675 342 673 357 c 0,200,201
 672 362 672 362 670 367 c 0,202,203
 666 379 666 379 656 387 c 1,204,205
 645 398 645 398 638 395 c 0,206,207
 621 385 621 385 623 368 c 1,208,-1
 624 364 l 1,209,-1
 628 352 l 1,210,211
 639 331 639 331 668 325 c 1,198,199
218 325 m 1,212,213
 202 367 202 367 171 373 c 1,214,-1
 157 371 l 1,215,-1
 151 369 l 2,216,217
 142 365 142 365 144 354 c 0,218,219
 146 348 146 348 155 343 c 1,220,221
 180 325 180 325 218 325 c 1,212,213
EndSplineSet
EndChar
StartChar: vowelcandraO
Encoding: 2705 2705 16
Width: 1315
GlyphClass: 2
Flags: W
Fore
957 885 m 1,0,-1
 1017 865 l 2,1,2
 1138 823 1138 823 1171 752 c 0,3,4
 1182 730 1182 730 1185 708 c 0,5,6
 1187 693 1187 693 1185 685 c 0,7,8
 1184 681 1184 681 1183 679 c 2,9,-1
 1178 674 l 1,10,-1
 1177 673 l 2,11,12
 1169 673 1169 673 1165 683 c 0,13,14
 1162 694 1162 694 1161 696 c 0,15,16
 1154 716 1154 716 1137 733 c 0,17,18
 1081 785 1081 785 963 809 c 1,19,-1
 902 828 l 1,20,21
 782 872 782 872 750 941 c 1,22,23
 737 965 737 965 734 989 c 1,24,-1
 735 1012 l 1,25,26
 737 1016 l 0,27,28
 738 1020 738 1020 744 1020 c 0,29,30
 756 1020 756 1020 760 997 c 0,31,32
 763 980 763 980 781 962 c 0,33,34
 835 909 835 909 957 885 c 1,0,-1
1193 629 m 1,35,-1
 1194 108 l 1,36,37
 1194 69 1194 69 1229 69 c 0,38,39
 1255 69 1255 69 1270 100 c 2,40,-1
 1274 108 l 1,41,42
 1275 84 1275 84 1270 64 c 0,43,44
 1267 55 1267 55 1263 47 c 0,45,46
 1253 32 1253 32 1244 24 c 1,47,48
 1223 2 1223 2 1186 0 c 0,49,50
 1161 -1 1161 -1 1144 10 c 1,51,-1
 1130 23 l 1,52,53
 1128 26 1128 26 1126 28 c 0,54,55
 1118 38 1118 38 1111 61 c 1,56,57
 1108 78 1108 78 1108 93 c 1,58,-1
 1109 563 l 1,59,60
 1109 593 1109 593 1141 602 c 0,61,62
 1175 612 1175 612 1181 615 c 0,63,64
 1187 618 1187 618 1193 629 c 1,35,-1
971 629 m 1,65,-1
 971 108 l 2,66,67
 971 69 971 69 1006 69 c 0,68,69
 1031 69 1031 69 1047 100 c 2,70,-1
 1051 108 l 1,71,72
 1053 84 1053 84 1048 66 c 0,73,74
 1045 55 1045 55 1040 47 c 0,75,76
 1033 35 1033 35 1021 24 c 2,77,-1
 1002 9 l 1,78,-1
 978 1 l 1,79,-1
 963 0 l 2,80,81
 936 -1 936 -1 920 11 c 0,82,83
 911 17 911 17 905 27 c 1,84,85
 894 40 894 40 890 63 c 0,86,87
 888 85 888 85 888 93 c 2,88,-1
 888 316 l 1,89,90
 855 278 855 278 769 281 c 0,91,92
 766 281 766 281 762 281 c 0,93,94
 735 283 735 283 723 286 c 0,95,96
 721 286 721 286 710 272 c 0,97,98
 706 266 706 266 698 257 c 1,99,100
 630 160 630 160 581 129 c 0,101,102
 541 104 541 104 509 104 c 0,103,104
 410 104 410 104 323 188 c 1,105,106
 322 191 322 191 252 268 c 2,107,-1
 243 279 l 1,108,109
 206 281 l 2,110,111
 127 287 127 287 97 348 c 0,112,113
 92 359 92 359 96 370 c 0,114,115
 97 375 97 375 101 381 c 0,116,117
 106 387 106 387 120 397 c 0,118,119
 146 418 146 418 176 415 c 0,120,121
 179 415 179 415 182 414 c 0,122,123
 184 414 184 414 194 412 c 0,124,125
 258 394 258 394 274 351 c 1,126,127
 280 340 280 340 286 342 c 0,128,129
 400 387 400 387 401 445 c 0,130,131
 401 451 401 451 400 456 c 0,132,133
 400 461 400 461 399 464 c 0,134,135
 364 591 364 591 240 575 c 0,136,137
 230 574 230 574 220 572 c 0,138,139
 181 562 181 562 180 562 c 0,140,141
 137 549 137 549 85 522 c 1,142,143
 45 504 45 504 42 505 c 1,144,-1
 47 515 l 2,145,146
 48 517 48 517 52 521 c 0,147,148
 109 588 109 588 216 614 c 0,149,150
 269 628 269 628 321 626 c 0,151,152
 327 626 327 626 334 625 c 0,153,154
 356 624 356 624 379 616 c 1,155,156
 458 594 458 594 490 529 c 1,157,158
 516 480 516 480 500 435 c 0,159,160
 492 413 492 413 473 391 c 0,161,162
 425 334 425 334 313 304 c 0,163,164
 302 301 302 301 313 286 c 1,165,-1
 332 265 l 2,166,167
 384 211 384 211 456 191 c 1,168,169
 481 186 481 186 498 186 c 0,170,171
 574 187 574 187 625 246 c 1,172,173
 638 259 638 259 660 292 c 1,174,-1
 661 296 l 1,175,-1
 658 298 l 2,176,177
 654 300 654 300 651 301 c 2,178,-1
 621 313 l 1,179,180
 591 331 591 331 584 365 c 0,181,182
 581 380 581 380 585 393 c 0,183,184
 587 400 587 400 591 407 c 1,185,186
 603 421 603 421 608 425 c 0,187,188
 630 441 630 441 652 438 c 0,189,190
 655 438 655 438 658 437 c 0,191,192
 671 433 671 433 686 424 c 1,193,194
 728 391 728 391 727 321 c 1,195,-1
 728 314 l 1,196,197
 749 307 749 307 774 313 c 0,198,199
 786 316 786 316 800 322 c 0,200,201
 823 333 823 333 844 348 c 0,202,203
 870 366 870 366 888 391 c 1,204,-1
 888 563 l 2,205,206
 888 593 888 593 920 602 c 0,207,208
 951 611 951 611 961 616 c 1,209,210
 968 622 968 622 971 629 c 1,65,-1
668 325 m 1,211,212
 675 342 675 342 673 357 c 0,213,214
 672 362 672 362 670 367 c 0,215,216
 666 379 666 379 656 387 c 1,217,218
 645 398 645 398 638 395 c 0,219,220
 621 385 621 385 623 368 c 1,221,-1
 624 364 l 1,222,-1
 628 352 l 1,223,224
 639 331 639 331 668 325 c 1,211,212
218 325 m 1,225,226
 202 367 202 367 171 373 c 1,227,-1
 157 371 l 1,228,-1
 151 369 l 2,229,230
 142 365 142 365 144 354 c 0,231,232
 146 348 146 348 155 343 c 1,233,234
 180 325 180 325 218 325 c 1,225,226
EndSplineSet
EndChar
StartChar: letterO
Encoding: 2707 2707 17
Width: 1315
GlyphClass: 2
Flags: W
Fore
1109 564 m 1,0,1
 1101 602 1101 602 1080 645 c 1,2,-1
 1000 793 l 1,3,4
 961 886 961 886 906 882 c 0,5,6
 903 881 903 881 901 881 c 2,7,-1
 865 870 l 1,8,-1
 856 869 l 1,9,-1
 858 874 l 1,10,-1
 860 876 l 2,11,12
 864 880 864 880 871 884 c 0,13,14
 922 916 922 916 964 915 c 1,15,16
 978 913 978 913 990 908 c 0,17,18
 1031 889 1031 889 1071 804 c 1,19,20
 1114 705 1114 705 1193 630 c 1,21,22
 1188 622 1188 622 1181 616 c 1,23,24
 1175 613 1175 613 1141 603 c 0,25,26
 1109 594 1109 594 1109 564 c 1,0,1
1193 629 m 1,27,-1
 1194 108 l 1,28,29
 1194 69 1194 69 1229 69 c 0,30,31
 1255 69 1255 69 1270 100 c 2,32,-1
 1274 108 l 1,33,34
 1275 84 1275 84 1270 64 c 0,35,36
 1267 55 1267 55 1263 47 c 0,37,38
 1253 32 1253 32 1244 24 c 1,39,40
 1223 2 1223 2 1186 0 c 0,41,42
 1161 -1 1161 -1 1144 10 c 1,43,-1
 1130 23 l 1,44,45
 1128 26 1128 26 1126 28 c 0,46,47
 1118 38 1118 38 1111 61 c 1,48,49
 1108 78 1108 78 1108 93 c 1,50,-1
 1109 563 l 1,51,52
 1109 593 1109 593 1141 602 c 0,53,54
 1175 612 1175 612 1181 615 c 0,55,56
 1187 618 1187 618 1193 629 c 1,27,-1
971 629 m 1,57,-1
 971 108 l 2,58,59
 971 69 971 69 1006 69 c 0,60,61
 1031 69 1031 69 1047 100 c 2,62,-1
 1051 108 l 1,63,64
 1053 84 1053 84 1048 66 c 0,65,66
 1045 55 1045 55 1040 47 c 0,67,68
 1033 35 1033 35 1021 24 c 2,69,-1
 1002 9 l 1,70,-1
 978 1 l 1,71,-1
 963 0 l 2,72,73
 936 -1 936 -1 920 11 c 0,74,75
 911 17 911 17 905 27 c 1,76,77
 894 40 894 40 890 63 c 0,78,79
 888 85 888 85 888 93 c 2,80,-1
 888 316 l 1,81,82
 855 278 855 278 769 281 c 0,83,84
 766 281 766 281 762 281 c 0,85,86
 735 283 735 283 723 286 c 0,87,88
 721 286 721 286 710 272 c 0,89,90
 706 266 706 266 698 257 c 1,91,92
 630 160 630 160 581 129 c 0,93,94
 541 104 541 104 509 104 c 0,95,96
 410 104 410 104 323 188 c 1,97,98
 322 191 322 191 252 268 c 2,99,-1
 243 279 l 1,100,101
 206 281 l 2,102,103
 127 287 127 287 97 348 c 0,104,105
 92 359 92 359 96 370 c 0,106,107
 97 375 97 375 101 381 c 0,108,109
 106 387 106 387 120 397 c 0,110,111
 146 418 146 418 176 415 c 0,112,113
 179 415 179 415 182 414 c 0,114,115
 184 414 184 414 194 412 c 0,116,117
 258 394 258 394 274 351 c 1,118,119
 280 340 280 340 286 342 c 0,120,121
 396 384 396 384 401 446 c 1,122,-1
 399 470 l 1,123,124
 364 597 364 597 238 582 c 0,125,126
 229 581 229 581 220 579 c 2,127,-1
 180 568 l 2,128,129
 130 553 130 553 85 528 c 1,130,131
 45 510 45 510 42 511 c 1,132,-1
 47 521 l 2,133,134
 48 523 48 523 52 527 c 0,135,136
 109 593 109 593 216 621 c 0,137,138
 274 635 274 635 322 632 c 0,139,140
 328 632 328 632 334 631 c 0,141,142
 354 630 354 630 379 623 c 0,143,144
 459 598 459 598 490 535 c 0,145,146
 510 496 510 496 505 460 c 0,147,148
 503 450 503 450 500 440 c 0,149,150
 493 420 493 420 475 395 c 0,151,152
 465 383 465 383 446 367 c 1,153,-1
 412 343 l 1,154,155
 370 319 370 319 313 304 c 0,156,157
 302 301 302 301 313 286 c 1,158,-1
 332 265 l 2,159,160
 384 211 384 211 456 191 c 1,161,162
 481 186 481 186 498 186 c 0,163,164
 574 187 574 187 625 246 c 1,165,166
 638 259 638 259 660 292 c 1,167,-1
 661 296 l 1,168,-1
 658 298 l 2,169,170
 654 300 654 300 651 301 c 2,171,-1
 621 313 l 1,172,173
 591 331 591 331 584 365 c 0,174,175
 581 380 581 380 585 393 c 0,176,177
 587 400 587 400 591 407 c 1,178,179
 603 421 603 421 608 425 c 0,180,181
 630 441 630 441 652 438 c 0,182,183
 655 438 655 438 658 437 c 0,184,185
 671 433 671 433 686 424 c 1,186,187
 728 391 728 391 727 321 c 1,188,-1
 728 314 l 1,189,190
 749 307 749 307 774 313 c 0,191,192
 786 316 786 316 800 322 c 0,193,194
 823 333 823 333 844 348 c 0,195,196
 870 366 870 366 888 391 c 1,197,-1
 888 563 l 2,198,199
 888 593 888 593 920 602 c 0,200,201
 951 611 951 611 961 616 c 1,202,203
 968 622 968 622 971 629 c 1,57,-1
668 325 m 1,204,205
 675 342 675 342 673 357 c 0,206,207
 672 362 672 362 670 367 c 0,208,209
 666 379 666 379 656 387 c 1,210,211
 645 398 645 398 638 395 c 0,212,213
 621 385 621 385 623 368 c 1,214,-1
 624 364 l 1,215,-1
 628 352 l 1,216,217
 639 331 639 331 668 325 c 1,204,205
218 325 m 1,218,219
 202 367 202 367 171 373 c 1,220,-1
 157 371 l 1,221,-1
 151 369 l 2,222,223
 142 365 142 365 144 354 c 0,224,225
 146 348 146 348 155 343 c 1,226,227
 180 325 180 325 218 325 c 1,218,219
EndSplineSet
EndChar
StartChar: letterAU
Encoding: 2708 2708 18
Width: 1315
GlyphClass: 2
Flags: W
Fore
1110 563 m 1,0,1
 1102 569 1102 569 1091 579 c 2,2,-1
 965 698 l 1,3,4
 831 819 831 819 748 811 c 0,5,6
 744 811 744 811 740 810 c 2,7,-1
 729 806 l 1,8,-1
 728 806 l 2,9,10
 725 805 725 805 720 805 c 0,11,12
 717 805 717 805 717 807 c 0,13,14
 717 809 717 809 720 812 c 0,15,16
 726 816 726 816 734 822 c 0,17,18
 783 855 783 855 822 854 c 0,19,20
 838 853 838 853 862 846 c 0,21,22
 921 830 921 830 1016 749 c 0,23,24
 1076 698 1076 698 1095 693 c 1,25,-1
 1086 716 l 1,26,27
 1069 778 1069 778 1060 799 c 0,28,29
 1022 891 1022 891 957 888 c 2,30,-1
 952 887 l 1,31,-1
 915 877 l 1,32,-1
 906 876 l 1,33,-1
 908 881 l 1,34,-1
 910 882 l 2,35,36
 914 886 914 886 922 890 c 1,37,38
 973 923 973 923 1014 922 c 1,39,-1
 1026 920 l 2,40,41
 1120 900 1120 900 1176 710 c 1,42,-1
 1193 632 l 1,43,44
 1190 625 1190 625 1185 620 c 0,45,46
 1178 613 1178 613 1142 601 c 0,47,48
 1110 590 1110 590 1110 563 c 1,0,1
1193 629 m 1,49,-1
 1194 108 l 1,50,51
 1194 69 1194 69 1229 69 c 0,52,53
 1255 69 1255 69 1270 100 c 2,54,-1
 1274 108 l 1,55,56
 1275 84 1275 84 1270 64 c 0,57,58
 1267 55 1267 55 1263 47 c 0,59,60
 1253 32 1253 32 1244 24 c 1,61,62
 1223 2 1223 2 1186 0 c 0,63,64
 1161 -1 1161 -1 1144 10 c 1,65,-1
 1130 23 l 1,66,67
 1128 26 1128 26 1126 28 c 0,68,69
 1118 38 1118 38 1111 61 c 1,70,71
 1108 78 1108 78 1108 93 c 1,72,-1
 1109 563 l 1,73,74
 1109 593 1109 593 1141 602 c 0,75,76
 1175 612 1175 612 1181 615 c 0,77,78
 1187 618 1187 618 1193 629 c 1,49,-1
971 629 m 1,79,-1
 971 108 l 2,80,81
 971 69 971 69 1006 69 c 0,82,83
 1031 69 1031 69 1047 100 c 2,84,-1
 1051 108 l 1,85,86
 1053 84 1053 84 1048 66 c 0,87,88
 1045 55 1045 55 1040 47 c 0,89,90
 1033 35 1033 35 1021 24 c 2,91,-1
 1002 9 l 1,92,-1
 978 1 l 1,93,-1
 963 0 l 2,94,95
 936 -1 936 -1 920 11 c 0,96,97
 911 17 911 17 905 27 c 1,98,99
 894 40 894 40 890 63 c 0,100,101
 888 85 888 85 888 93 c 2,102,-1
 888 316 l 1,103,104
 855 278 855 278 769 281 c 0,105,106
 766 281 766 281 762 281 c 0,107,108
 735 283 735 283 723 286 c 0,109,110
 721 286 721 286 710 272 c 0,111,112
 706 266 706 266 698 257 c 1,113,114
 630 160 630 160 581 129 c 0,115,116
 541 104 541 104 509 104 c 0,117,118
 410 104 410 104 323 188 c 1,119,120
 322 191 322 191 252 268 c 2,121,-1
 243 279 l 1,122,123
 206 281 l 2,124,125
 127 287 127 287 97 348 c 0,126,127
 92 359 92 359 96 370 c 0,128,129
 97 375 97 375 101 381 c 0,130,131
 106 387 106 387 120 397 c 0,132,133
 146 418 146 418 176 415 c 0,134,135
 179 415 179 415 182 414 c 0,136,137
 184 414 184 414 194 412 c 0,138,139
 258 394 258 394 274 351 c 1,140,141
 280 340 280 340 286 342 c 0,142,143
 401 387 401 387 402 447 c 0,144,145
 402 451 402 451 401 456 c 0,146,147
 401 461 401 461 400 463 c 0,148,149
 400 466 400 466 399 467 c 0,150,151
 364 594 364 594 240 578 c 0,152,153
 230 577 230 577 220 575 c 0,154,155
 181 565 181 565 180 565 c 0,156,157
 137 552 137 552 85 525 c 1,158,159
 45 507 45 507 42 508 c 1,160,-1
 47 518 l 2,161,162
 48 520 48 520 52 524 c 0,163,164
 109 591 109 591 216 617 c 0,165,166
 269 631 269 631 321 629 c 0,167,168
 327 629 327 629 334 628 c 0,169,170
 354 627 354 627 379 620 c 0,171,172
 458 596 458 596 490 531 c 1,173,174
 510 494 510 494 505 458 c 0,175,176
 503 448 503 448 500 438 c 0,177,178
 494 420 494 420 474 393 c 1,179,180
 424 334 424 334 313 304 c 0,181,182
 302 301 302 301 313 286 c 1,183,-1
 332 265 l 2,184,185
 384 211 384 211 456 191 c 1,186,187
 481 186 481 186 498 186 c 0,188,189
 574 187 574 187 625 246 c 1,190,191
 638 259 638 259 660 292 c 1,192,-1
 661 296 l 1,193,-1
 658 298 l 2,194,195
 654 300 654 300 651 301 c 2,196,-1
 621 313 l 1,197,198
 591 331 591 331 584 365 c 0,199,200
 581 380 581 380 585 393 c 0,201,202
 587 400 587 400 591 407 c 1,203,204
 603 421 603 421 608 425 c 0,205,206
 630 441 630 441 652 438 c 0,207,208
 655 438 655 438 658 437 c 0,209,210
 671 433 671 433 686 424 c 1,211,212
 728 391 728 391 727 321 c 1,213,-1
 728 314 l 1,214,215
 749 307 749 307 774 313 c 0,216,217
 786 316 786 316 800 322 c 0,218,219
 823 333 823 333 844 348 c 0,220,221
 870 366 870 366 888 391 c 1,222,-1
 888 563 l 2,223,224
 888 593 888 593 920 602 c 0,225,226
 951 611 951 611 961 616 c 1,227,228
 968 622 968 622 971 629 c 1,79,-1
668 325 m 1,229,230
 675 342 675 342 673 357 c 0,231,232
 672 362 672 362 670 367 c 0,233,234
 666 379 666 379 656 387 c 1,235,236
 645 398 645 398 638 395 c 0,237,238
 621 385 621 385 623 368 c 1,239,-1
 624 364 l 1,240,-1
 628 352 l 1,241,242
 639 331 639 331 668 325 c 1,229,230
218 325 m 1,243,244
 202 367 202 367 171 373 c 1,245,-1
 157 371 l 1,246,-1
 151 369 l 2,247,248
 142 365 142 365 144 354 c 0,249,250
 146 348 146 348 155 343 c 1,251,252
 180 325 180 325 218 325 c 1,243,244
EndSplineSet
EndChar
StartChar: letterKA
Encoding: 2709 2709 19
Width: 793
GlyphClass: 2
Flags: W
AnchorPoint: "Anchor-1" 379 642 basechar 0
AnchorPoint: "Anchor-0" 385 -5 basechar 0
Fore
456 337 m 1,0,-1
 556 282 l 1,1,2
 641 228 641 228 640 164 c 0,3,4
 639 94 639 94 545 41 c 0,5,6
 475 0 475 0 407 -2 c 1,7,-1
 369 -1 l 2,8,9
 365 0 365 0 364 1 c 0,10,11
 361 2 361 2 363 4 c 0,12,13
 364 5 364 5 367 6 c 0,14,15
 378 12 378 12 406 18 c 0,16,17
 520 46 520 46 550 123 c 0,18,19
 557 140 557 140 556 164 c 0,20,21
 553 215 553 215 464 272 c 1,22,23
 428 297 428 297 407 301 c 1,24,-1
 315 237 l 1,25,26
 213 169 213 169 130 163 c 0,27,28
 105 161 105 161 89 165 c 0,29,30
 80 166 80 166 72 170 c 1,31,32
 57 174 57 174 50 183 c 1,33,34
 42 190 42 190 43 199 c 1,35,36
 45 203 45 203 49 204 c 0,37,38
 56 206 56 206 68 204 c 0,39,40
 80 202 l 0,41,42
 105 194 105 194 164 221 c 0,43,44
 194 235 194 235 232 257 c 0,45,46
 296 294 296 294 343 335 c 1,47,48
 231 395 231 395 231 470 c 0,49,50
 230 505 230 505 258 536 c 0,51,52
 271 550 271 550 290 564 c 0,53,54
 320 586 320 586 365 604 c 0,55,56
 406 620 406 620 439 629 c 0,57,58
 474 638 474 638 486 637 c 1,59,-1
 487 633 l 1,60,61
 487 631 487 631 486 630 c 0,62,63
 475 619 475 619 444 606 c 0,64,65
 310 545 310 545 313 462 c 0,66,67
 316 411 316 411 364 382 c 1,68,69
 386 371 386 371 396 369 c 1,70,-1
 488 435 l 1,71,72
 587 498 587 498 665 506 c 0,73,74
 689 508 689 508 706 504 c 0,75,76
 716 502 716 502 725 498 c 0,77,78
 736 494 736 494 745 484 c 2,79,-1
 752 475 l 1,80,81
 754 469 754 469 749 466 c 1,82,-1
 740 464 l 1,83,-1
 720 466 l 2,84,85
 718 466 718 466 715 467 c 0,86,87
 689 474 689 474 630 447 c 0,88,89
 601 434 601 434 564 413 c 0,90,91
 508 380 508 380 456 337 c 1,0,-1
EndSplineSet
EndChar
StartChar: letterKHA
Encoding: 2710 2710 20
Width: 871
GlyphClass: 2
Flags: W
AnchorPoint: "Anchor-1" 716 632 basechar 0
AnchorPoint: "Anchor-0" 741 -9 basechar 0
Fore
122 632 m 0,0,1
 178 633 178 633 213 601 c 0,2,3
 230 585 230 585 242 561 c 0,4,5
 264 514 264 514 257 467 c 0,6,7
 254 449 254 449 247 431 c 0,8,9
 242 417 242 417 233 406 c 1,10,11
 170 308 170 308 181 250 c 0,12,13
 182 243 182 243 184 237 c 0,14,15
 190 220 190 220 211 204 c 1,16,17
 242 177 242 177 300 179 c 0,18,19
 302 179 302 179 305 179 c 2,20,-1
 318 181 l 2,21,22
 382 188 382 188 420 261 c 1,23,24
 434 292 434 292 434 313 c 0,25,26
 434 320 434 320 417 326 c 1,27,-1
 393 338 l 1,28,29
 371 354 371 354 365 387 c 0,30,31
 361 402 361 402 367 417 c 0,32,33
 370 424 370 424 375 430 c 0,34,35
 382 440 382 440 394 449 c 0,36,37
 423 470 423 470 452 467 c 0,38,39
 455 467 455 467 458 466 c 0,40,41
 471 463 471 463 482 456 c 0,42,43
 526 432 526 432 520 381 c 0,44,45
 519 375 519 375 518 370 c 0,46,47
 517 358 517 358 510 343 c 0,48,49
 508 337 508 337 509 337 c 0,50,51
 529 330 529 330 555 336 c 0,52,53
 567 338 567 338 581 344 c 0,54,55
 603 353 603 353 625 370 c 0,56,57
 652 390 652 390 669 413 c 1,58,-1
 670 562 l 1,59,60
 670 592 670 592 703 603 c 0,61,62
 738 613 738 613 743 620 c 1,63,64
 749 624 749 624 753 631 c 1,65,-1
 752 108 l 1,66,67
 752 69 752 69 786 69 c 0,68,69
 812 69 812 69 827 100 c 2,70,-1
 831 108 l 1,71,72
 833 84 833 84 826 63 c 0,73,74
 823 55 823 55 819 47 c 0,75,76
 813 34 813 34 802 24 c 2,77,-1
 784 10 l 1,78,-1
 761 2 l 1,79,80
 751 0 751 0 743 0 c 0,81,82
 702 -1 702 -1 684 27 c 0,83,84
 675 41 675 41 671 63 c 1,85,86
 669 85 669 85 669 93 c 2,87,-1
 669 339 l 1,88,89
 640 302 640 302 552 303 c 2,90,-1
 548 303 l 1,91,-1
 542 303 l 2,92,93
 516 303 516 303 496 307 c 0,94,95
 495 307 495 307 489 300 c 0,96,97
 486 296 486 296 483 288 c 0,98,99
 449 200 449 200 386 160 c 0,100,101
 352 137 352 137 314 127 c 0,102,103
 255 109 255 109 202 122 c 0,104,105
 178 128 178 128 155 141 c 0,106,107
 88 180 88 180 91 258 c 1,108,-1
 91 264 l 1,109,110
 97 328 97 328 158 401 c 1,111,112
 203 459 203 459 197 512 c 0,113,114
 197 516 197 516 196 520 c 1,115,-1
 193 538 l 1,116,117
 177 586 177 586 134 596 c 0,118,119
 130 597 130 597 122 597 c 1,120,121
 109 603 109 603 94 601 c 0,122,123
 88 600 88 600 83 598 c 0,124,125
 66 592 66 592 57 583 c 0,126,127
 48 574 48 574 42 579 c 1,128,129
 47 598 47 598 74 615 c 1,130,131
 95 631 95 631 122 632 c 0,0,1
EndSplineSet
EndChar
StartChar: letterGA
Encoding: 2711 2711 21
Width: 799
GlyphClass: 2
Flags: W
AnchorPoint: "Anchor-1" 636 628 basechar 0
AnchorPoint: "Anchor-0" 667 -4 basechar 0
Fore
679 630 m 1,0,-1
 679 109 l 2,1,2
 679 70 679 70 713 70 c 0,3,4
 737 70 737 70 755 101 c 1,5,-1
 758 109 l 1,6,7
 759 85 759 85 754 69 c 1,8,9
 752 57 752 57 746 48 c 1,10,11
 740 35 740 35 730 25 c 1,12,-1
 712 11 l 1,13,-1
 689 3 l 1,14,15
 679 1 679 1 670 1 c 0,16,17
 644 0 644 0 627 12 c 0,18,19
 618 18 618 18 611 28 c 0,20,21
 602 40 602 40 597 65 c 0,22,23
 594 80 594 80 594 94 c 2,24,-1
 594 563 l 2,25,26
 594 592 594 592 627 603 c 0,27,28
 665 614 665 614 668 616 c 0,29,30
 673 620 673 620 679 630 c 1,0,-1
124 624 m 2,31,32
 164 627 164 627 220 609 c 0,33,34
 254 598 254 598 281 586 c 0,35,36
 412 530 412 530 441 447 c 0,37,38
 450 422 450 422 448 400 c 0,39,40
 447 398 447 398 447 395 c 0,41,42
 437 263 437 263 332 214 c 0,43,44
 271 186 271 186 208 195 c 0,45,46
 182 199 182 199 156 209 c 1,47,48
 74 236 74 236 49 305 c 0,49,50
 41 326 41 326 42 352 c 0,51,52
 42 356 l 0,53,54
 47 402 47 402 59 428 c 0,55,56
 63 437 63 437 67 435 c 1,57,-1
 71 430 l 1,58,-1
 73 410 l 1,59,-1
 73 401 l 1,60,61
 78 279 78 279 205 261 c 0,62,63
 222 258 222 258 242 258 c 0,64,65
 278 257 278 257 306 281 c 0,66,67
 319 292 319 292 332 311 c 0,68,69
 362 359 362 359 353 414 c 0,70,71
 351 430 351 430 345 447 c 0,72,73
 318 521 318 521 227 566 c 1,74,75
 202 580 202 580 159 594 c 0,76,77
 101 611 101 611 101 617 c 0,78,79
 101 621 101 621 111 622 c 2,80,-1
 124 624 l 2,31,32
EndSplineSet
EndChar
StartChar: letterGHA
Encoding: 2712 2712 22
Width: 670
GlyphClass: 2
Flags: W
AnchorPoint: "Anchor-1" 506 629 basechar 0
AnchorPoint: "Anchor-0" 541 -3 basechar 0
Fore
283 607 m 0,0,1
 287 604 287 604 282 600 c 2,2,-1
 275 596 l 1,3,-1
 265 592 l 1,4,5
 226 597 226 597 194 582 c 0,6,7
 177 575 177 575 162 562 c 1,8,9
 144 549 144 549 135 528 c 0,10,11
 124 501 124 501 127 478 c 0,12,13
 129 467 129 467 133 457 c 0,14,15
 139 441 139 441 155 429 c 1,16,17
 184 402 184 402 247 402 c 2,18,-1
 287 402 l 2,19,20
 344 402 344 402 349 394 c 1,21,22
 350 383 350 383 334 377 c 1,23,-1
 311 373 l 1,24,-1
 299 371 l 1,25,-1
 231 361 l 2,26,27
 226 360 226 360 225 358 c 1,28,29
 154 325 154 325 156 242 c 1,30,-1
 156 237 l 1,31,32
 160 170 160 170 194 142 c 1,33,34
 247 103 247 103 295 110 c 0,35,36
 305 112 l 0,37,38
 313 114 313 114 318 115 c 0,39,40
 420 146 420 146 468 265 c 1,41,-1
 468 560 l 2,42,43
 468 566 468 566 470 574 c 0,44,45
 476 595 476 595 510 605 c 0,46,47
 541 615 541 615 550 631 c 1,48,-1
 550 108 l 2,49,50
 550 69 550 69 584 69 c 2,51,-1
 596 70 l 1,52,53
 612 74 612 74 629 108 c 1,54,-1
 627 76 l 1,55,56
 624 62 624 62 624 61 c 0,57,58
 604 1 604 1 541 0 c 0,59,60
 468 0 468 0 468 93 c 2,61,-1
 468 180 l 1,62,63
 378 58 378 58 264 57 c 0,64,65
 205 57 205 57 170 74 c 1,66,67
 136 87 136 87 108 118 c 0,68,69
 61 168 61 168 63 237 c 1,70,71
 66 256 66 256 72 271 c 0,72,73
 94 338 94 338 180 368 c 1,74,75
 95 388 95 388 87 392 c 0,76,77
 61 407 61 407 49 438 c 0,78,79
 30 494 30 494 59 538 c 1,80,81
 73 562 73 562 101 582 c 0,82,83
 114 592 114 592 140 606 c 1,84,-1
 178 620 l 1,85,86
 221 631 221 631 253 622 c 0,87,88
 270 617 270 617 283 607 c 0,0,1
EndSplineSet
EndChar
StartChar: letterNGA
Encoding: 2713 2713 23
Width: 663
GlyphClass: 2
Flags: W
AnchorPoint: "Anchor-1" 308 632 basechar 0
AnchorPoint: "Anchor-0" 330 0 basechar 0
Fore
406 138 m 0,0,1
 408 166 408 166 395 199 c 0,2,3
 390 213 390 213 382 229 c 0,4,5
 368 254 368 254 337 294 c 1,6,7
 290 345 290 345 258 374 c 2,8,-1
 252 379 l 2,9,10
 219 406 219 406 211 416 c 0,11,12
 191 438 191 438 208 457 c 0,13,14
 216 466 216 466 232 474 c 1,15,-1
 342 520 l 1,16,17
 374 536 374 536 374 548 c 0,18,19
 374 559 374 559 350 577 c 2,20,-1
 337 588 l 1,21,22
 292 618 292 618 298 627 c 0,23,24
 299 628 299 628 305 628 c 0,25,26
 319 628 319 628 333 621 c 0,27,28
 411 580 411 580 427 562 c 1,29,-1
 433 550 l 1,30,-1
 434 541 l 1,31,32
 436 531 436 531 418 517 c 0,33,34
 410 511 410 511 395 502 c 2,35,-1
 296 449 l 1,36,37
 276 435 276 435 281 423 c 1,38,-1
 297 404 l 2,39,40
 300 401 300 401 303 399 c 0,41,42
 380 328 380 328 424 282 c 1,43,44
 504 190 504 190 500 128 c 1,45,46
 492 54 492 54 429 23 c 1,47,48
 390 1 390 1 335 2 c 0,49,50
 174 5 174 5 43 245 c 1,51,-1
 42 255 l 1,52,53
 44 261 l 0,54,55
 48 271 48 271 55 268 c 0,56,57
 59 266 l 1,58,-1
 116 193 l 1,59,60
 224 58 224 58 318 59 c 0,61,62
 358 60 358 60 388 94 c 1,63,64
 403 113 403 113 406 138 c 0,0,1
623 421 m 0,65,66
 623 395 623 395 605 377 c 0,67,68
 588 359 588 359 561 359 c 0,69,70
 532 359 532 359 516 377 c 1,71,72
 496 393 496 393 496 421 c 0,73,74
 496 449 496 449 516 466 c 1,75,76
 533 483 533 483 561 483 c 0,77,78
 587 483 587 483 604 466 c 0,79,80
 622 447 622 447 623 421 c 0,65,66
EndSplineSet
EndChar
StartChar: letterCA
Encoding: 2714 2714 24
Width: 869
GlyphClass: 2
Flags: W
AnchorPoint: "Anchor-1" 710 635 basechar 0
AnchorPoint: "Anchor-0" 729 -3 basechar 0
Fore
403 135 m 0,0,1
 462 134 462 134 519 172 c 0,2,3
 548 190 548 190 577 219 c 0,4,5
 626 269 626 269 666 334 c 1,6,-1
 666 563 l 1,7,-1
 668 578 l 1,8,9
 674 596 674 596 708 607 c 0,10,11
 741 616 741 616 749 632 c 1,12,-1
 749 109 l 2,13,14
 749 70 749 70 783 70 c 2,15,-1
 795 71 l 1,16,17
 813 76 813 76 828 109 c 1,18,-1
 826 77 l 1,19,20
 823 63 823 63 823 62 c 0,21,22
 803 3 803 3 740 1 c 1,23,24
 666 3 666 3 666 94 c 1,25,-1
 667 243 l 1,26,-1
 607 179 l 1,27,28
 501 70 501 70 392 70 c 0,29,30
 280 71 280 71 179 194 c 1,31,32
 156 212 156 212 143 224 c 0,33,34
 122 245 122 245 80 268 c 1,35,36
 58 288 58 288 52 298 c 0,37,38
 40 319 40 319 43 341 c 0,39,40
 43 346 43 346 45 351 c 0,41,42
 50 367 50 367 59 378 c 0,43,44
 84 405 84 405 111 403 c 0,45,46
 114 402 114 402 116 402 c 2,47,-1
 124 400 l 2,48,49
 155 392 155 392 168 374 c 1,50,-1
 190 338 l 1,51,52
 196 333 196 333 207 336 c 0,53,54
 214 337 214 337 221 341 c 0,55,56
 230 345 230 345 249 357 c 1,57,58
 317 405 317 405 330 456 c 1,59,60
 337 493 337 493 315 526 c 0,61,62
 304 543 304 543 286 559 c 1,63,64
 244 591 244 591 212 606 c 2,65,-1
 157 630 l 1,66,67
 147 632 147 632 144 633 c 0,68,69
 132 639 132 639 132 646 c 1,70,71
 137 653 137 653 161 651 c 0,72,73
 174 650 174 650 190 646 c 0,74,75
 211 643 211 643 253 629 c 1,76,77
 288 621 288 621 323 602 c 0,78,79
 418 551 418 551 417 475 c 0,80,81
 417 437 417 437 396 404 c 1,82,83
 349 323 349 323 211 293 c 1,84,85
 213 288 213 288 222 271 c 1,86,-1
 263 207 l 1,87,88
 317 136 317 136 403 135 c 0,0,1
EndSplineSet
EndChar
StartChar: letterCHA
Encoding: 2715 2715 25
Width: 792
GlyphClass: 2
Flags: W
AnchorPoint: "Anchor-1" 551 641 basechar 0
AnchorPoint: "Anchor-0" 482 0 basechar 0
Fore
563 555 m 0,0,1
 527 555 527 555 505 532 c 1,2,3
 490 519 490 519 482 504 c 0,4,5
 465 472 465 472 468 441 c 0,6,7
 468 436 468 436 469 432 c 0,8,9
 472 417 472 417 480 401 c 0,10,11
 493 375 493 375 528 358 c 0,12,13
 569 340 569 340 572 330 c 0,14,15
 573 325 573 325 566 324 c 0,16,17
 562 323 562 323 556 324 c 2,18,-1
 532 327 l 2,19,20
 445 342 445 342 408 416 c 0,21,22
 384 463 384 463 392 509 c 0,23,24
 395 528 395 528 404 548 c 0,25,26
 443 625 443 625 554 626 c 2,27,-1
 559 626 l 2,28,29
 701 626 701 626 739 518 c 0,30,31
 756 473 756 473 750 419 c 0,32,33
 748 397 748 397 742 373 c 0,34,35
 733 331 733 331 712 288 c 0,36,37
 647 150 647 150 524 71 c 0,38,39
 433 11 433 11 334 2 c 0,40,41
 263 -5 263 -5 210 8 c 0,42,43
 182 15 182 15 159 27 c 0,44,45
 127 42 127 42 97 73 c 0,46,47
 49 125 49 125 53 191 c 0,48,49
 54 195 54 195 54 199 c 1,50,-1
 57 214 l 1,51,-1
 57 215 l 1,52,53
 77 294 77 294 155 327 c 1,54,55
 164 332 164 332 186 338 c 1,56,57
 151 333 151 333 118 352 c 0,58,59
 102 361 102 361 85 377 c 0,60,61
 36 422 36 422 43 477 c 0,62,63
 45 489 l 0,64,65
 64 577 64 577 222 629 c 1,66,67
 282 654 282 654 307 651 c 0,68,69
 309 650 309 650 311 650 c 0,70,71
 314 649 314 649 318 647 c 0,72,73
 325 643 325 643 321 639 c 1,74,-1
 310 632 l 1,75,-1
 303 629 l 1,76,-1
 302 629 l 2,77,78
 192 596 192 596 146 526 c 0,79,80
 123 489 123 489 127 458 c 0,81,82
 129 450 l 0,83,84
 134 430 134 430 146 417 c 0,85,86
 179 381 179 381 259 370 c 0,87,88
 308 364 308 364 315 351 c 0,89,90
 321 339 321 339 309 330 c 1,91,-1
 294 323 l 1,92,-1
 267 316 l 1,93,94
 196 304 196 304 168 244 c 1,95,96
 136 182 136 182 171 130 c 0,97,98
 212 68 212 68 326 68 c 0,99,100
 428 68 428 68 507 121 c 1,101,102
 541 142 541 142 584 188 c 1,103,104
 666 283 666 283 679 393 c 0,105,106
 684 439 684 439 674 472 c 0,107,108
 669 490 669 490 660 504 c 0,109,110
 650 523 650 523 628 537 c 0,111,112
 601 555 601 555 563 555 c 0,0,1
EndSplineSet
EndChar
StartChar: letterJA
Encoding: 2716 2716 26
Width: 1090
GlyphClass: 2
Flags: W
AnchorPoint: "Anchor-1" 972 656 basechar 0
AnchorPoint: "Anchor-0" 830 2 basechar 0
Fore
1039 636 m 1,0,1
 886 541 886 541 771 426 c 0,2,3
 618 271 618 271 637 160 c 0,4,5
 639 151 639 151 641 143 c 0,6,7
 660 77 660 77 716 61 c 1,8,9
 739 56 739 56 757 61 c 0,10,11
 769 64 769 64 780 71 c 0,12,13
 793 78 793 78 807 93 c 0,14,15
 828 117 828 117 837 150 c 0,16,17
 863 260 863 260 805 350 c 0,18,19
 776 394 776 394 727 434 c 0,20,21
 617 521 617 521 462 550 c 1,22,23
 410 558 410 558 370 557 c 0,24,25
 364 556 364 556 359 556 c 0,26,27
 350 556 350 556 336 554 c 0,28,29
 217 536 217 536 164 468 c 0,30,31
 134 430 134 430 138 384 c 0,32,33
 138 379 138 379 139 374 c 0,34,35
 141 360 141 360 145 349 c 0,36,37
 174 264 174 264 242 255 c 0,38,39
 264 252 264 252 285 257 c 0,40,41
 297 260 297 260 307 265 c 0,42,43
 320 272 320 272 336 288 c 0,44,45
 367 319 367 319 361 355 c 0,46,47
 360 360 360 360 359 364 c 0,48,49
 358 371 358 371 352 385 c 0,50,51
 334 424 334 424 293 452 c 0,52,53
 243 484 243 484 240 489 c 1,54,55
 240 493 240 493 246 495 c 1,56,-1
 271 495 l 2,57,58
 278 494 278 494 291 492 c 0,59,60
 422 466 422 466 445 385 c 0,61,62
 453 356 453 356 447 330 c 0,63,64
 444 317 444 317 437 303 c 0,65,66
 426 278 426 278 409 263 c 1,67,68
 360 207 360 207 276 199 c 0,69,70
 235 194 235 194 198 205 c 0,71,72
 181 210 181 210 165 218 c 0,73,74
 146 228 146 228 121 249 c 1,75,76
 87 273 87 273 69 313 c 0,77,78
 35 383 35 383 44 442 c 0,79,80
 47 458 47 458 52 473 c 0,81,82
 64 506 64 506 97 542 c 1,83,84
 160 607 160 607 265 624 c 0,85,86
 266 625 266 625 270 625 c 0,87,88
 292 628 292 628 312 628 c 0,89,90
 397 629 397 629 470 617 c 0,91,92
 512 610 512 610 551 598 c 0,93,94
 603 583 603 583 671 550 c 1,95,96
 828 469 828 469 887 334 c 0,97,98
 919 260 919 260 916 180 c 0,99,100
 915 176 915 176 915 171 c 0,101,102
 914 166 914 166 914 156 c 0,103,104
 907 57 907 57 819 17 c 1,105,106
 767 -4 767 -4 711 4 c 0,107,108
 684 8 684 8 656 19 c 1,109,110
 570 57 570 57 549 136 c 0,111,112
 541 164 541 164 542 196 c 0,113,114
 542 198 542 198 542 201 c 0,115,116
 551 316 551 316 736 470 c 0,117,118
 857 571 857 571 959 618 c 0,119,120
 973 625 973 625 978 627 c 0,121,122
 1036 649 1036 649 1050 644 c 1,123,-1
 1039 636 l 1,0,1
EndSplineSet
EndChar
StartChar: letterJHA
Encoding: 2717 2717 27
Width: 1000
GlyphClass: 2
Flags: W
AnchorPoint: "Anchor-1" 699 660 basechar 0
AnchorPoint: "Anchor-0" 749 -18 basechar 0
Fore
794 487 m 1,0,-1
 823 477 l 1,1,2
 916 432 916 432 946 340 c 0,3,4
 962 291 962 291 960 251 c 0,5,6
 959 248 959 248 959 245 c 2,7,-1
 959 234 l 1,8,9
 945 89 945 89 754 10 c 0,10,11
 728 -1 728 -1 716 -2 c 0,12,13
 701 -4 701 -4 721 13 c 0,14,15
 732 23 732 23 754 38 c 0,16,17
 782 58 782 58 797 71 c 0,18,19
 815 86 815 86 828 102 c 0,20,21
 882 164 882 164 873 238 c 0,22,23
 872 246 872 246 870 255 c 0,24,25
 865 280 865 280 853 306 c 0,26,27
 825 367 825 367 758 392 c 1,28,29
 701 416 701 416 648 405 c 0,30,31
 624 400 624 400 600 387 c 2,32,-1
 595 384 l 2,33,34
 567 370 567 370 538 332 c 1,35,36
 543 296 543 296 542 268 c 1,37,-1
 540 245 l 1,38,39
 522 125 522 125 430 58 c 1,40,41
 358 8 358 8 297 4 c 0,42,43
 238 0 238 0 186 27 c 0,44,45
 158 41 158 41 132 65 c 0,46,47
 97 95 97 95 56 154 c 1,48,49
 51 159 51 159 47 165 c 1,50,-1
 42 177 l 1,51,52
 42 195 42 195 79 193 c 1,53,54
 133 187 133 187 166 154 c 1,55,56
 209 107 209 107 251 92 c 0,57,58
 286 80 286 80 316 86 c 0,59,60
 332 88 332 88 348 96 c 0,61,62
 369 107 369 107 393 132 c 0,63,64
 449 191 449 191 445 264 c 0,65,66
 445 266 445 266 445 269 c 0,67,68
 445 274 445 274 444 278 c 0,69,70
 436 351 436 351 386 393 c 0,71,72
 362 414 362 414 336 423 c 0,73,74
 261 452 261 452 182 425 c 0,75,76
 142 412 142 412 101 384 c 0,77,78
 61 356 61 356 48 352 c 0,79,80
 41 351 41 351 43 357 c 0,81,82
 45 361 45 361 51 369 c 0,83,84
 56 376 56 376 75 393 c 1,85,86
 106 426 106 426 161 466 c 1,87,88
 280 547 280 547 380 517 c 0,89,90
 427 503 427 503 475 456 c 1,91,92
 503 426 503 426 519 391 c 1,93,-1
 523 395 l 1,94,-1
 567 437 l 1,95,96
 628 479 628 479 695 490 c 1,97,98
 712 502 712 502 716 507 c 2,99,-1
 730 525 l 1,100,101
 740 542 740 542 739 557 c 0,102,103
 739 574 739 574 730 589 c 0,104,105
 708 626 708 626 676 629 c 1,106,107
 680 651 680 651 713 644 c 0,108,109
 730 640 730 640 755 629 c 1,110,-1
 775 617 l 1,111,112
 791 603 791 603 796 596 c 0,113,114
 820 564 820 564 812 532 c 0,115,116
 810 520 810 520 802 507 c 1,117,-1
 794 487 l 1,0,-1
EndSplineSet
EndChar
StartChar: letterNYA
Encoding: 2718 2718 28
Width: 866
GlyphClass: 2
Flags: W
AnchorPoint: "Anchor-1" 706 635 basechar 0
AnchorPoint: "Anchor-0" 725 -3 basechar 0
Fore
497 393 m 1,0,1
 553 358 553 358 608 369 c 0,2,3
 622 371 622 371 636 377 c 0,4,5
 666 388 666 388 686 412 c 1,6,-1
 686 340 l 1,7,8
 643 315 643 315 596 320 c 0,9,10
 590 320 590 320 585 321 c 0,11,12
 564 324 564 324 545 332 c 0,13,14
 513 343 513 343 487 366 c 1,15,-1
 497 393 l 1,0,1
663 562 m 2,16,17
 663 592 663 592 696 603 c 0,18,19
 730 614 730 614 737 620 c 0,20,21
 742 625 742 625 745 631 c 1,22,-1
 745 108 l 2,23,24
 745 69 745 69 780 69 c 0,25,26
 806 69 806 69 822 100 c 1,27,-1
 825 108 l 1,28,29
 826 84 826 84 821 64 c 0,30,31
 818 55 818 55 814 47 c 0,32,33
 809 38 809 38 797 24 c 1,34,-1
 779 10 l 1,35,-1
 756 2 l 1,36,37
 744 0 744 0 737 0 c 0,38,39
 712 -1 712 -1 695 11 c 0,40,41
 685 17 685 17 679 28 c 1,42,43
 670 40 670 40 665 63 c 1,44,45
 663 85 663 85 663 93 c 2,46,-1
 663 562 l 2,16,17
507 493 m 0,47,48
 520 449 520 449 516 405 c 0,49,50
 514 388 514 388 510 371 c 0,51,52
 504 345 504 345 484 311 c 0,53,54
 432 222 432 222 335 206 c 1,55,56
 294 202 294 202 254 214 c 0,57,58
 234 220 234 220 214 230 c 1,59,60
 178 254 178 254 156 273 c 1,61,62
 88 337 88 337 50 439 c 1,63,64
 42 468 42 468 43 475 c 1,65,66
 45 475 45 475 67 434 c 1,67,68
 130 301 130 301 239 268 c 0,69,70
 268 260 268 260 298 261 c 0,71,72
 301 261 301 261 303 261 c 2,73,-1
 321 264 l 2,74,75
 384 277 384 277 413 348 c 1,76,77
 431 388 431 388 428 427 c 0,78,79
 428 433 428 433 427 438 c 0,80,81
 426 454 426 454 419 471 c 0,82,83
 373 594 373 594 260 583 c 0,84,85
 255 583 255 583 249 582 c 2,86,-1
 227 579 l 1,87,88
 218 576 218 576 216 575 c 0,89,90
 176 565 176 565 168 567 c 0,91,92
 166 568 166 568 171 573 c 2,93,-1
 178 579 l 1,94,-1
 200 594 l 2,95,96
 246 628 246 628 319 626 c 0,97,98
 322 626 322 626 324 626 c 0,99,100
 331 626 331 626 334 625 c 0,101,102
 441 619 441 619 490 531 c 1,103,104
 498 519 498 519 507 493 c 0,47,48
EndSplineSet
EndChar
StartChar: letterTTA
Encoding: 2719 2719 29
Width: 608
GlyphClass: 2
Flags: W
AnchorPoint: "Anchor-1" 325 641 basechar 0
AnchorPoint: "Anchor-0" 271 -9 basechar 0
Fore
399 514 m 0,0,1
 402 535 402 535 392 550 c 0,2,3
 387 558 387 558 379 564 c 1,4,-1
 355 577 l 1,5,-1
 345 581 l 2,6,7
 308 592 308 592 280 589 c 0,8,9
 277 589 277 589 274 588 c 0,10,11
 259 585 259 585 240 579 c 1,12,13
 209 566 209 566 194 569 c 0,14,15
 190 570 190 570 190 574 c 0,16,17
 190 583 190 583 208 595 c 0,18,19
 216 601 216 601 229 607 c 0,20,21
 273 626 273 626 330 629 c 0,22,23
 361 631 361 631 394 618 c 0,24,25
 411 612 411 612 429 601 c 0,26,27
 459 581 459 581 469 561 c 1,28,-1
 476 539 l 1,29,-1
 477 523 l 1,30,31
 471 448 471 448 388 410 c 0,32,33
 363 399 363 399 282 371 c 0,34,35
 185 337 185 337 158 291 c 1,36,-1
 143 263 l 1,37,38
 135 236 135 236 135 204 c 0,39,40
 136 111 136 111 229 78 c 1,41,42
 279 56 279 56 337 60 c 0,43,44
 345 60 345 60 352 61 c 0,45,46
 377 65 377 65 422 78 c 0,47,48
 476 95 476 95 516 130 c 0,49,50
 538 149 538 149 560 156 c 1,51,52
 568 157 568 157 567 150 c 0,53,54
 567 147 567 147 564 141 c 1,55,-1
 550 120 l 1,56,57
 492 41 492 41 368 12 c 0,58,59
 306 -2 306 -2 252 2 c 0,60,61
 232 4 232 4 212 8 c 0,62,63
 174 16 174 16 144 32 c 0,64,65
 41 88 41 88 42 215 c 0,66,67
 43 323 43 323 148 373 c 1,68,69
 166 380 166 380 274 416 c 1,70,71
 364 441 364 441 388 479 c 0,72,73
 398 495 398 495 399 514 c 0,0,1
EndSplineSet
EndChar
StartChar: letterTTHA
Encoding: 2720 2720 30
Width: 598
GlyphClass: 2
Flags: W
AnchorPoint: "Anchor-1" 260 648 basechar 0
AnchorPoint: "Anchor-0" 300 -15 basechar 0
Fore
44 216 m 0,0,1
 62 100 62 100 170 42 c 1,2,3
 241 0 241 0 318 0 c 0,4,5
 336 0 336 0 343 1 c 0,6,7
 462 11 462 11 523 111 c 0,8,9
 560 170 560 170 557 223 c 0,10,11
 556 227 556 227 556 230 c 0,12,13
 556 238 556 238 555 242 c 2,14,-1
 548 268 l 1,15,16
 519 357 519 357 420 396 c 1,17,-1
 283 441 l 1,18,19
 214 472 214 472 210 523 c 1,20,21
 207 542 207 542 215 556 c 0,22,23
 219 562 219 562 226 568 c 0,24,25
 238 578 238 578 257 583 c 1,26,27
 286 594 286 594 318 592 c 0,28,29
 323 592 323 592 329 591 c 0,30,31
 349 588 349 588 365 581 c 0,32,33
 396 569 396 569 408 574 c 1,34,-1
 407 583 l 1,35,-1
 394 595 l 1,36,37
 344 630 344 630 263 636 c 1,38,-1
 231 634 l 1,39,40
 215 630 l 0,41,42
 193 623 193 623 183 618 c 0,43,44
 115 589 115 589 116 531 c 0,45,46
 118 500 118 500 134 476 c 0,47,48
 163 434 163 434 259 401 c 1,49,50
 360 370 360 370 380 359 c 1,51,52
 467 318 467 318 466 228 c 1,53,54
 463 142 463 142 402 95 c 0,55,56
 352 56 352 56 291 60 c 0,57,58
 287 61 287 61 283 61 c 0,59,60
 272 63 272 63 261 67 c 1,61,62
 177 88 177 88 137 179 c 1,63,64
 124 212 124 212 128 250 c 0,65,66
 130 269 130 269 137 289 c 0,67,68
 165 363 165 363 239 381 c 1,69,70
 256 387 256 387 254 392 c 1,71,72
 250 396 250 396 249 396 c 0,73,74
 232 406 232 406 205 401 c 1,75,-1
 181 394 l 2,76,77
 138 380 138 380 99 345 c 0,78,79
 38 290 38 290 42 230 c 0,80,81
 43 227 43 227 43 224 c 0,82,83
 43 219 43 219 44 216 c 0,0,1
EndSplineSet
EndChar
StartChar: letterDDA
Encoding: 2721 2721 31
Width: 575
GlyphClass: 2
Flags: W
AnchorPoint: "Anchor-1" 335 641 basechar 0
AnchorPoint: "Anchor-0" 360 -12 basechar 0
Fore
340 59 m 0,0,1
 398 60 398 60 425 104 c 0,2,3
 443 135 443 135 434 174 c 0,4,5
 430 194 430 194 418 216 c 0,6,7
 403 243 403 243 365 288 c 1,8,9
 337 318 337 318 318 335 c 2,10,-1
 266 379 l 1,11,12
 226 410 226 410 223 414 c 0,13,14
 202 438 202 438 218 456 c 0,15,16
 227 466 227 466 246 474 c 2,17,-1
 365 520 l 1,18,19
 400 538 400 538 390 559 c 0,20,21
 387 566 387 566 378 574 c 1,22,-1
 358 588 l 2,23,24
 310 619 310 619 316 627 c 0,25,26
 317 628 317 628 323 628 c 0,27,28
 333 629 333 629 345 625 c 0,29,30
 349 623 349 623 354 621 c 0,31,32
 435 582 435 582 457 562 c 1,33,-1
 465 551 l 1,34,-1
 465 545 l 1,35,36
 464 520 464 520 386 485 c 1,37,38
 315 456 315 456 297 440 c 0,39,40
 283 429 283 429 287 416 c 0,41,42
 291 410 l 0,43,44
 295 402 295 402 309 394 c 0,45,46
 428 322 428 322 492 238 c 0,47,48
 536 181 536 181 534 128 c 1,49,50
 526 52 526 52 455 19 c 0,51,52
 399 -6 399 -6 334 5 c 0,53,54
 302 10 302 10 266 25 c 0,55,56
 148 72 148 72 68 215 c 0,57,58
 51 244 51 244 43 260 c 1,59,-1
 43 267 l 1,60,61
 44 268 44 268 48 266 c 0,62,63
 64 259 64 259 83 239 c 2,64,-1
 148 168 l 1,65,66
 258 58 258 58 340 59 c 0,0,1
EndSplineSet
EndChar
StartChar: letterDDHA
Encoding: 2722 2722 32
Width: 508
GlyphClass: 2
Flags: W
AnchorPoint: "Anchor-1" 309 641 basechar 0
AnchorPoint: "Anchor-0" 291 -6 basechar 0
Fore
43 253 m 1,0,-1
 45 263 l 2,1,2
 65 355 65 355 166 400 c 1,3,-1
 289 449 l 1,4,5
 354 478 354 478 360 528 c 1,6,-1
 359 541 l 1,7,8
 356 570 356 570 317 582 c 0,9,10
 287 592 287 592 261 589 c 0,11,12
 256 589 256 589 252 588 c 0,13,14
 233 585 233 585 217 579 c 0,15,16
 194 570 194 570 182 570 c 0,17,18
 175 571 175 571 178 579 c 0,19,20
 180 582 180 582 189 591 c 1,21,22
 235 625 235 625 310 629 c 1,23,-1
 355 627 l 2,24,25
 376 625 376 625 389 618 c 1,26,27
 445 597 445 597 444 539 c 1,28,-1
 444 535 l 1,29,30
 441 509 441 509 430 487 c 1,31,32
 403 445 403 445 314 417 c 1,33,34
 207 378 207 378 206 378 c 0,35,36
 125 339 125 339 126 258 c 1,37,38
 131 125 131 125 233 70 c 0,39,40
 277 45 277 45 312 46 c 0,41,42
 314 47 314 47 317 47 c 0,43,44
 371 56 371 56 396 92 c 0,45,46
 407 106 407 106 406 126 c 1,47,48
 404 127 404 127 404 131 c 0,49,50
 400 162 400 162 373 167 c 0,51,52
 369 168 369 168 364 168 c 0,53,54
 332 171 332 171 317 155 c 0,55,56
 308 145 308 145 305 130 c 1,57,-1
 303 123 l 1,58,59
 300 106 300 106 305 89 c 0,60,61
 307 83 307 83 310 76 c 0,62,63
 317 60 317 60 325 52 c 1,64,65
 291 70 291 70 276 111 c 1,66,67
 272 128 272 128 273 144 c 0,68,69
 273 147 273 147 274 151 c 0,70,71
 276 166 276 166 280 173 c 1,72,73
 302 227 302 227 367 233 c 2,74,-1
 376 233 l 2,75,76
 422 234 422 234 445 209 c 1,77,-1
 458 189 l 2,78,79
 462 182 462 182 464 174 c 0,80,81
 471 151 471 151 469 128 c 0,82,83
 468 117 468 117 465 105 c 0,84,85
 463 96 463 96 450 73 c 0,86,87
 413 11 413 11 323 0 c 1,88,-1
 277 -2 l 2,89,90
 276 -2 276 -2 274 -2 c 0,91,92
 263 -2 263 -2 258 -1 c 0,93,94
 141 11 141 11 78 122 c 0,95,96
 40 187 40 187 42 247 c 0,97,98
 42 251 42 251 43 253 c 1,0,-1
EndSplineSet
EndChar
StartChar: letterNNA
Encoding: 2723 2723 33
Width: 915
GlyphClass: 2
Flags: W
AnchorPoint: "Anchor-1" 747 635 basechar 0
AnchorPoint: "Anchor-0" 779 -106 basechar 0
Fore
795 629 m 1,0,-1
 795 108 l 2,1,2
 795 76 795 76 822 70 c 0,3,4
 824 69 824 69 828 69 c 0,5,6
 846 67 846 67 859 81 c 0,7,8
 866 88 866 88 871 100 c 2,9,-1
 874 108 l 1,10,11
 876 85 876 85 870 65 c 0,12,13
 868 55 868 55 863 47 c 0,14,15
 857 34 857 34 846 24 c 2,16,-1
 828 10 l 1,17,-1
 805 2 l 1,18,19
 793 0 793 0 786 0 c 0,20,21
 746 -1 746 -1 729 28 c 0,22,23
 720 43 720 43 716 65 c 0,24,25
 714 83 714 83 714 93 c 2,26,-1
 714 562 l 2,27,28
 714 591 714 591 745 602 c 1,29,30
 777 611 777 611 784 616 c 0,31,32
 792 621 792 621 795 629 c 1,0,-1
317 566 m 0,33,34
 298 559 298 559 294 562 c 0,35,36
 291 564 291 564 293 568 c 0,37,38
 298 587 298 587 335 606 c 0,39,40
 371 625 371 625 406 624 c 1,41,42
 525 615 525 615 573 521 c 0,43,44
 601 468 601 468 596 409 c 0,45,46
 596 403 596 403 595 396 c 0,47,48
 593 383 593 383 583 350 c 1,49,50
 551 261 551 261 468 228 c 1,51,52
 440 220 440 220 414 217 c 0,53,54
 382 214 382 214 354 225 c 0,55,56
 338 232 338 232 324 243 c 1,57,58
 302 257 302 257 285 280 c 1,59,60
 255 314 255 314 256 336 c 0,61,62
 257 344 257 344 265 339 c 0,63,64
 270 337 270 337 276 331 c 0,65,66
 351 264 351 264 407 274 c 0,67,68
 412 274 412 274 417 276 c 0,69,70
 426 280 426 280 444 292 c 0,71,72
 496 328 496 328 500 418 c 1,73,-1
 500 443 l 1,74,75
 495 529 495 529 426 561 c 1,76,77
 387 577 387 577 354 574 c 0,78,79
 351 573 351 573 348 573 c 0,80,81
 336 572 336 572 317 566 c 0,33,34
222 624 m 1,82,83
 126 520 126 520 137 391 c 0,84,85
 139 373 l 0,86,87
 162 245 162 245 271 158 c 1,88,89
 340 101 340 101 429 79 c 1,90,91
 490 62 490 62 541 12 c 0,92,93
 582 -27 582 -27 581 -70 c 0,94,95
 578 -162 578 -162 475 -174 c 0,96,97
 447 -177 447 -177 425 -176 c 0,98,99
 411 -175 411 -175 397 -172 c 0,100,101
 383 -169 383 -169 362 -163 c 0,102,103
 350 -159 350 -159 350 -155 c 1,104,-1
 355 -152 l 1,105,-1
 389 -155 l 2,106,107
 410 -158 410 -158 426 -153 c 0,108,109
 435 -150 435 -150 443 -144 c 0,110,111
 457 -136 457 -136 466 -126 c 1,112,113
 487 -97 487 -97 477 -66 c 0,114,115
 471 -50 471 -50 458 -33 c 0,116,117
 413 24 413 24 289 65 c 0,118,119
 154 109 154 109 88 217 c 0,120,121
 35 302 35 302 43 396 c 0,122,123
 44 406 44 406 46 417 c 0,124,125
 50 445 50 445 63 480 c 0,126,127
 90 548 90 548 152 614 c 0,128,129
 178 642 178 642 214 641 c 0,130,131
 227 640 227 640 225 629 c 1,132,-1
 222 624 l 1,82,83
EndSplineSet
EndChar
StartChar: letterTA
Encoding: 2724 2724 34
Width: 680
GlyphClass: 2
Flags: W
AnchorPoint: "Anchor-1" 513 635 basechar 0
AnchorPoint: "Anchor-0" 542 -22 basechar 0
Fore
561 629 m 1,0,-1
 561 108 l 2,1,2
 561 69 561 69 596 69 c 0,3,4
 621 69 621 69 637 100 c 2,5,-1
 641 108 l 1,6,7
 642 84 642 84 637 65 c 0,8,9
 634 55 634 55 629 47 c 0,10,11
 623 36 623 36 611 24 c 1,12,-1
 594 10 l 1,13,-1
 570 2 l 2,14,15
 560 0 560 0 553 0 c 0,16,17
 512 -1 512 -1 493 27 c 0,18,19
 484 41 484 41 480 63 c 1,20,21
 478 85 478 85 478 93 c 1,22,-1
 477 324 l 1,23,24
 465 362 465 362 396 384 c 0,25,26
 333 404 333 404 273 393 c 0,27,28
 243 388 243 388 214 376 c 1,29,30
 188 362 188 362 171 349 c 0,31,32
 111 302 111 302 114 209 c 0,33,34
 114 207 114 207 114 204 c 2,35,-1
 114 194 l 1,36,37
 120 126 120 126 156 53 c 1,38,-1
 172 8 l 1,39,40
 174 0 174 0 172 -1 c 0,41,42
 171 -2 171 -2 168 0 c 0,43,44
 115 38 115 38 77 130 c 1,45,46
 36 223 36 223 43 295 c 0,47,48
 45 311 l 0,49,50
 48 334 48 334 57 354 c 0,51,52
 83 410 83 410 134 434 c 0,53,54
 202 468 202 468 298 466 c 0,55,56
 304 466 l 2,57,-1
 315 466 l 2,58,59
 404 462 404 462 478 424 c 1,60,-1
 477 562 l 1,61,62
 477 592 477 592 510 602 c 0,63,64
 549 614 549 614 550 615 c 0,65,66
 554 617 554 617 561 629 c 1,0,-1
EndSplineSet
EndChar
StartChar: letterTHA
Encoding: 2725 2725 35
Width: 779
GlyphClass: 2
Flags: W
AnchorPoint: "Anchor-1" 622 638 basechar 0
AnchorPoint: "Anchor-0" 644 -22 basechar 0
Fore
667 620 m 1,0,-1
 666 98 l 1,1,2
 666 61 666 61 697 61 c 0,3,4
 720 61 720 61 736 92 c 1,5,-1
 738 98 l 1,6,7
 739 77 739 77 735 61 c 0,8,9
 732 51 732 51 728 43 c 0,10,11
 726 38 726 38 712 20 c 1,12,13
 692 1 692 1 658 0 c 0,14,15
 623 -1 623 -1 604 23 c 0,16,17
 594 35 594 35 589 55 c 0,18,19
 585 68 585 68 585 85 c 2,20,-1
 585 220 l 1,21,22
 559 154 559 154 474 100 c 0,23,24
 395 51 395 51 324 53 c 0,25,26
 322 54 322 54 317 54 c 0,27,28
 140 67 140 67 71 223 c 0,29,30
 52 264 52 264 43 312 c 0,31,32
 40 334 40 334 45 349 c 0,33,34
 47 356 47 356 51 362 c 0,35,36
 58 374 58 374 69 379 c 0,37,38
 90 391 90 391 111 382 c 0,39,40
 122 377 122 377 133 366 c 1,41,42
 164 344 164 344 224 346 c 0,43,44
 228 346 228 346 231 346 c 2,45,-1
 244 346 l 2,46,47
 306 350 306 350 336 379 c 0,48,49
 378 419 378 419 374 474 c 0,50,51
 374 480 l 1,52,-1
 371 492 l 1,53,54
 362 545 362 545 323 560 c 0,55,56
 311 564 311 564 296 564 c 1,57,58
 236 559 236 559 227 519 c 0,59,60
 225 508 225 508 227 498 c 0,61,62
 228 492 228 492 230 487 c 1,63,-1
 240 472 l 1,64,65
 264 444 264 444 298 452 c 0,66,67
 305 454 305 454 313 457 c 0,68,69
 315 458 315 458 326 463 c 1,70,-1
 343 474 l 1,71,-1
 347 473 l 1,72,-1
 348 472 l 1,73,74
 350 466 350 466 349 463 c 0,75,76
 344 445 344 445 324 428 c 1,77,78
 283 387 283 387 232 391 c 0,79,80
 228 391 228 391 224 392 c 2,81,-1
 209 395 l 2,82,83
 158 408 158 408 141 455 c 0,84,85
 139 463 139 463 137 475 c 0,86,87
 132 514 132 514 143 543 c 0,88,89
 149 559 149 559 160 572 c 1,90,91
 175 593 175 593 199 606 c 1,92,93
 238 632 238 632 298 631 c 0,94,95
 386 628 386 628 433 547 c 1,96,97
 465 488 465 488 461 433 c 0,98,99
 460 429 460 429 460 425 c 0,100,101
 458 417 458 417 454 399 c 0,102,103
 448 379 448 379 435 359 c 0,104,105
 399 305 399 305 314 290 c 1,106,107
 280 282 280 282 245 285 c 0,108,109
 227 286 227 286 208 290 c 0,110,111
 181 294 181 294 152 305 c 1,112,113
 148 300 148 300 147 295 c 1,114,-1
 150 276 l 1,115,116
 164 198 164 198 227 151 c 0,117,118
 247 136 247 136 276 124 c 0,119,120
 335 101 335 101 400 121 c 0,121,122
 431 131 431 131 465 150 c 0,123,124
 545 197 545 197 574 265 c 0,125,126
 585 288 585 288 585 314 c 1,127,-1
 584 558 l 1,128,129
 584 584 584 584 616 595 c 1,130,131
 653 605 653 605 657 608 c 0,132,133
 664 612 664 612 667 620 c 1,0,-1
EndSplineSet
EndChar
StartChar: letterDA
Encoding: 2726 2726 36
Width: 578
GlyphClass: 2
Flags: W
AnchorPoint: "Anchor-1" 315 673 basechar 0
AnchorPoint: "Anchor-0" 262 -50 basechar 0
Fore
407 629 m 1,0,1
 457 597 457 597 454 560 c 0,2,3
 453 558 453 558 453 556 c 0,4,5
 453 554 453 554 451 548 c 0,6,7
 442 520 442 520 409 505 c 0,8,9
 382 492 382 492 349 494 c 0,10,11
 344 494 344 494 340 495 c 0,12,13
 322 497 322 497 314 499 c 0,14,15
 249 517 249 517 208 496 c 0,16,17
 187 486 187 486 171 465 c 1,18,19
 160 446 160 446 154 425 c 0,20,21
 145 400 145 400 152 379 c 0,22,23
 155 368 155 368 163 357 c 0,24,25
 173 345 173 345 190 332 c 1,26,27
 234 302 234 302 305 305 c 0,28,29
 310 305 310 305 314 305 c 2,30,-1
 326 305 l 2,31,32
 377 305 377 305 375 293 c 1,33,-1
 365 286 l 2,34,35
 354 280 354 280 336 275 c 1,36,37
 223 263 223 263 187 188 c 1,38,39
 179 168 179 168 177 142 c 0,40,41
 176 109 176 109 183 86 c 0,42,43
 187 71 187 71 195 60 c 0,44,45
 212 39 212 39 231 28 c 0,46,47
 270 3 270 3 325 11 c 0,48,49
 347 15 347 15 371 23 c 0,50,51
 381 26 381 26 393 30 c 0,52,53
 428 41 428 41 467 80 c 0,54,55
 509 121 509 121 530 122 c 0,56,57
 536 123 536 123 538 119 c 0,58,59
 538 117 538 117 537 114 c 0,60,61
 533 92 533 92 494 50 c 1,62,-1
 489 46 l 2,63,64
 399 -44 399 -44 303 -44 c 0,65,66
 196 -44 196 -44 133 0 c 0,67,68
 75 42 75 42 69 123 c 0,69,70
 65 164 65 164 85 198 c 0,71,72
 94 214 94 214 108 228 c 0,73,74
 128 248 128 248 145 259 c 1,75,76
 176 276 176 276 183 280 c 1,77,78
 81 303 81 303 51 365 c 0,79,80
 42 384 42 384 42 407 c 0,81,82
 42 489 42 489 103 534 c 1,83,84
 160 574 160 574 250 563 c 0,85,86
 275 560 275 560 302 553 c 0,87,88
 332 544 332 544 351 547 c 0,89,90
 358 548 358 548 364 551 c 0,91,92
 376 556 376 556 381 565 c 0,93,94
 387 574 387 574 385 584 c 0,95,96
 385 589 385 589 382 594 c 0,97,98
 377 603 377 603 368 609 c 0,99,100
 351 623 351 623 331 628 c 1,101,102
 325 670 325 670 391 637 c 1,103,104
 403 629 403 629 407 629 c 1,0,1
EndSplineSet
EndChar
StartChar: letterDHA
Encoding: 2727 2727 37
Width: 615
GlyphClass: 2
Flags: W
AnchorPoint: "Anchor-1" 459 657 basechar 0
AnchorPoint: "Anchor-0" 475 -6 basechar 0
Fore
202 698 m 0,0,1
 214 715 214 715 225 710 c 0,2,3
 228 709 228 709 231 705 c 1,4,-1
 237 692 l 1,5,6
 240 676 240 676 228 660 c 1,7,-1
 217 648 l 1,8,-1
 160 624 l 1,9,10
 135 609 135 609 125 589 c 0,11,12
 121 583 121 583 118 570 c 0,13,14
 109 536 109 536 123 502 c 0,15,16
 130 486 130 486 141 471 c 0,17,18
 151 458 151 458 164 449 c 1,19,20
 199 421 199 421 239 423 c 1,21,22
 251 425 251 425 256 426 c 0,23,24
 277 430 277 430 290 429 c 0,25,26
 293 429 293 429 295 428 c 0,27,28
 304 425 304 425 304 418 c 0,29,30
 304 399 304 399 276 393 c 0,31,32
 267 391 267 391 258 388 c 2,33,-1
 198 368 l 1,34,-1
 195 367 l 2,35,36
 130 324 130 324 132 266 c 0,37,38
 135 219 135 219 168 180 c 0,39,40
 196 147 196 147 249 148 c 0,41,42
 264 148 264 148 274 154 c 1,43,44
 365 185 365 185 413 293 c 1,45,-1
 413 564 l 2,46,47
 413 581 413 581 428 594 c 1,48,-1
 453 603 l 1,49,50
 488 613 488 613 495 626 c 1,51,-1
 495 97 l 2,52,53
 495 62 495 62 529 62 c 2,54,-1
 540 63 l 1,55,56
 559 71 559 71 573 97 c 1,57,-1
 571 69 l 1,58,59
 570 65 570 65 568 59 c 0,60,61
 549 5 549 5 486 3 c 1,62,63
 413 4 413 4 413 85 c 2,64,-1
 413 214 l 1,65,66
 342 133 342 133 258 109 c 1,67,68
 250 104 250 104 240 103 c 0,69,70
 207 96 207 96 175 104 c 0,71,72
 155 109 155 109 136 119 c 0,73,74
 101 138 101 138 82 160 c 1,75,76
 42 200 42 200 46 262 c 0,77,78
 46 266 46 266 47 271 c 0,79,80
 49 285 49 285 53 297 c 0,81,82
 74 356 74 356 161 385 c 1,83,84
 107 396 107 396 71 441 c 1,85,86
 49 465 49 465 44 493 c 0,87,88
 35 551 35 551 66 594 c 0,89,90
 82 617 82 617 109 636 c 1,91,-1
 187 685 l 1,92,93
 201 697 201 697 202 698 c 0,0,1
EndSplineSet
EndChar
StartChar: letterNA
Encoding: 2728 2728 38
Width: 815
GlyphClass: 2
Flags: W
AnchorPoint: "Anchor-1" 650 641 basechar 0
AnchorPoint: "Anchor-0" 673 -9 basechar 0
Fore
695 631 m 1,0,-1
 695 108 l 2,1,2
 695 69 695 69 730 69 c 0,3,4
 755 69 755 69 771 100 c 2,5,-1
 775 108 l 1,6,7
 776 84 776 84 771 66 c 0,8,9
 767 56 767 56 762 47 c 0,10,11
 756 34 756 34 745 24 c 2,12,-1
 728 10 l 1,13,-1
 705 2 l 1,14,15
 693 0 693 0 687 0 c 0,16,17
 659 -1 659 -1 643 11 c 0,18,19
 634 18 634 18 628 28 c 0,20,21
 618 42 618 42 614 63 c 1,22,23
 612 85 612 85 612 93 c 1,24,-1
 614 336 l 1,25,26
 614 378 614 378 596 386 c 0,27,28
 527 415 527 415 472 422 c 0,29,30
 424 427 424 427 391 426 c 0,31,32
 365 424 365 424 352 422 c 0,33,34
 326 418 326 418 315 414 c 1,35,36
 335 365 335 365 339 330 c 1,37,-1
 341 307 l 1,38,39
 346 255 346 255 332 217 c 0,40,41
 325 197 325 197 313 180 c 0,42,43
 305 167 305 167 285 151 c 1,44,-1
 269 141 l 2,45,46
 226 117 226 117 178 121 c 0,47,48
 172 121 172 121 167 122 c 0,49,50
 150 124 150 124 133 130 c 0,51,52
 93 143 93 143 68 177 c 0,53,54
 40 215 40 215 42 274 c 0,55,56
 42 277 42 277 42 279 c 1,57,-1
 44 292 l 1,58,59
 55 396 55 396 154 441 c 1,60,61
 201 464 201 464 261 468 c 2,62,-1
 355 475 l 1,63,64
 418 477 418 477 475 470 c 0,65,66
 503 466 503 466 531 460 c 0,67,68
 560 453 560 453 614 435 c 1,69,-1
 612 562 l 1,70,71
 612 592 612 592 645 603 c 0,72,73
 681 614 681 614 686 620 c 1,74,75
 692 624 692 624 695 631 c 1,0,-1
256 404 m 1,76,77
 230 404 230 404 203 389 c 0,78,79
 187 381 187 381 172 369 c 0,80,81
 118 325 118 325 124 274 c 0,82,83
 124 270 124 270 125 266 c 0,84,85
 126 261 126 261 130 251 c 0,86,87
 134 235 134 235 146 220 c 0,88,89
 170 190 170 190 203 198 c 0,90,91
 209 199 209 199 215 202 c 0,92,93
 260 217 260 217 274 273 c 0,94,95
 280 299 280 299 278 325 c 0,96,97
 276 340 276 340 272 356 c 0,98,99
 266 381 266 381 256 404 c 1,76,77
EndSplineSet
EndChar
StartChar: letterPA
Encoding: 2730 2730 39
Width: 686
GlyphClass: 2
Flags: W
AnchorPoint: "Anchor-1" 510 644 basechar 0
AnchorPoint: "Anchor-0" 548 -9 basechar 0
Fore
231 539 m 2,0,-1
 231 339 l 1,1,2
 233 268 233 268 289 233 c 0,3,4
 318 214 318 214 344 214 c 0,5,6
 366 213 366 213 386 217 c 0,7,8
 397 220 397 220 407 224 c 0,9,10
 426 231 426 231 437 242 c 1,11,12
 477 267 477 267 483 297 c 1,13,-1
 483 561 l 1,14,-1
 485 578 l 1,15,16
 493 595 493 595 525 604 c 0,17,18
 557 612 557 612 565 629 c 1,19,-1
 565 108 l 2,20,21
 565 71 565 71 600 69 c 1,22,-1
 615 71 l 1,23,24
 630 76 630 76 645 108 c 1,25,26
 647 90 647 90 643 72 c 0,27,28
 640 63 640 63 636 53 c 0,29,30
 612 1 612 1 557 0 c 0,31,32
 483 0 483 0 483 93 c 2,33,-1
 483 253 l 2,34,35
 483 252 483 252 478 245 c 0,36,37
 431 169 431 169 323 159 c 1,38,39
 303 159 303 159 267 171 c 1,40,41
 153 214 153 214 150 322 c 1,42,-1
 150 539 l 2,43,44
 150 573 150 573 126 591 c 0,45,46
 112 600 112 600 94 597 c 0,47,48
 88 596 88 596 82 594 c 0,49,50
 68 589 68 589 57 579 c 0,51,52
 49 571 49 571 44 571 c 0,53,54
 41 572 41 572 42 575 c 0,55,56
 42 577 42 577 44 580 c 2,57,-1
 51 591 l 1,58,59
 83 628 83 628 125 629 c 0,60,61
 231 629 231 629 231 539 c 2,0,-1
EndSplineSet
EndChar
StartChar: letterPHA
Encoding: 2731 2731 40
Width: 792
GlyphClass: 2
Flags: W
AnchorPoint: "Anchor-1" 440 648 basechar 0
AnchorPoint: "Anchor-0" 408 -141 basechar 0
Fore
358 -11 m 1,0,1
 368 -37 368 -37 385 -63 c 0,2,3
 434 -143 434 -143 490 -131 c 0,4,5
 496 -130 496 -130 502 -128 c 0,6,7
 514 -125 514 -125 534 -112 c 1,8,-1
 540 -106 l 1,9,10
 546 -102 546 -102 553 -103 c 0,11,12
 556 -103 556 -103 557 -106 c 0,13,14
 557 -116 557 -116 539 -132 c 0,15,16
 512 -157 512 -157 494 -165 c 0,17,18
 449 -184 449 -184 408 -164 c 0,19,20
 386 -154 386 -154 365 -133 c 0,21,22
 337 -105 337 -105 305 -46 c 0,23,24
 297 -32 297 -32 273 -19 c 1,25,26
 242 -6 242 -6 230 8 c 0,27,28
 227 11 227 11 223 19 c 0,29,30
 207 48 207 48 212 70 c 0,31,32
 215 81 215 81 223 90 c 0,33,34
 244 112 244 112 273 107 c 0,35,36
 276 106 276 106 280 105 c 0,37,38
 294 102 294 102 312 94 c 0,39,40
 333 83 333 83 340 70 c 1,41,-1
 352 38 l 1,42,43
 364 19 364 19 439 19 c 0,44,45
 483 20 483 20 521 45 c 1,46,-1
 543 62 l 1,47,48
 574 97 574 97 571 130 c 0,49,50
 570 133 570 133 570 135 c 1,51,-1
 567 144 l 1,52,53
 566 186 566 186 496 245 c 1,54,55
 433 295 433 295 406 301 c 1,56,-1
 379 281 l 2,57,58
 223 170 223 170 129 163 c 1,59,-1
 96 164 l 1,60,-1
 91 165 l 2,61,62
 78 167 78 167 73 170 c 1,63,64
 44 180 44 180 42 195 c 0,65,66
 42 207 42 207 57 206 c 1,67,-1
 79 202 l 2,68,69
 89 199 89 199 106 203 c 0,70,71
 114 204 114 204 124 207 c 2,72,-1
 159 219 l 1,73,74
 261 263 261 263 342 335 c 1,75,76
 230 395 230 395 230 470 c 0,77,78
 229 488 229 488 238 506 c 0,79,80
 242 515 242 515 249 523 c 1,81,82
 257 535 257 535 272 550 c 1,83,84
 331 601 331 601 438 629 c 0,85,86
 467 637 467 637 482 637 c 1,87,-1
 486 633 l 1,88,89
 487 630 487 630 478 623 c 0,90,91
 475 621 475 621 469 617 c 0,92,93
 458 611 458 611 443 606 c 1,94,-1
 428 599 l 2,95,96
 302 538 302 538 312 466 c 0,97,98
 312 462 312 462 313 458 c 2,99,100
 318 443 l 1,101,102
 340 394 340 394 395 369 c 1,103,-1
 430 394 l 2,104,105
 568 497 568 497 664 506 c 1,106,-1
 699 505 l 2,107,108
 705 504 705 504 710 502 c 1,109,110
 720 501 720 501 729 495 c 0,111,112
 751 483 751 483 752 473 c 0,113,114
 752 462 752 462 736 463 c 1,115,-1
 714 467 l 2,116,117
 705 470 705 470 686 467 c 0,118,119
 679 465 679 465 670 463 c 0,120,121
 660 460 660 460 638 450 c 0,122,123
 542 410 542 410 455 337 c 1,124,-1
 493 312 l 2,125,126
 632 224 632 224 652 135 c 1,127,-1
 654 129 l 1,128,129
 660 89 660 89 640 57 c 0,130,131
 629 40 629 40 611 25 c 0,132,133
 547 -31 547 -31 436 -22 c 0,134,135
 414 -20 l 0,136,137
 393 -18 393 -18 358 -11 c 1,0,1
EndSplineSet
EndChar
StartChar: letterBA
Encoding: 2732 2732 41
Width: 824
GlyphClass: 2
Flags: W
AnchorPoint: "Anchor-1" 659 641 basechar 0
AnchorPoint: "Anchor-0" 684 -12 basechar 0
Fore
385 280 m 1,0,-1
 344 297 l 1,1,2
 314 313 314 313 305 359 c 0,3,4
 302 377 302 377 307 391 c 0,5,6
 310 399 310 399 316 406 c 1,7,8
 328 416 328 416 341 422 c 0,9,10
 361 433 361 433 382 431 c 0,11,12
 385 431 385 431 387 431 c 2,13,-1
 396 428 l 1,14,-1
 397 428 l 2,15,16
 456 407 456 407 460 322 c 0,17,18
 460 314 460 314 461 314 c 0,19,20
 482 307 482 307 509 313 c 0,21,22
 523 316 523 316 538 322 c 0,23,24
 557 328 557 328 578 344 c 0,25,26
 598 359 598 359 621 391 c 1,27,-1
 621 563 l 2,28,29
 621 593 621 593 653 602 c 0,30,31
 686 611 686 611 693 616 c 0,32,33
 700 622 700 622 703 629 c 1,34,-1
 703 108 l 2,35,36
 703 69 703 69 738 69 c 0,37,38
 764 69 764 69 780 100 c 1,39,-1
 783 108 l 1,40,41
 785 84 785 84 780 66 c 0,42,43
 778 56 778 56 773 47 c 0,44,45
 768 38 768 38 754 24 c 1,46,-1
 736 9 l 1,47,-1
 712 1 l 1,48,-1
 695 0 l 2,49,50
 655 -1 655 -1 637 27 c 0,51,52
 628 41 628 41 624 63 c 0,53,54
 621 80 621 80 621 93 c 2,55,-1
 621 316 l 1,56,57
 588 278 588 278 495 280 c 2,58,-1
 486 280 l 1,59,-1
 454 283 l 1,60,61
 457 266 457 266 452 250 c 0,62,63
 449 240 449 240 442 229 c 0,64,65
 434 216 434 216 420 201 c 0,66,67
 361 137 361 137 272 142 c 0,68,69
 269 142 269 142 265 142 c 0,70,71
 258 142 258 142 254 143 c 2,72,-1
 237 145 l 1,73,74
 179 159 179 159 124 209 c 0,75,76
 34 289 34 289 42 401 c 0,77,78
 42 407 42 407 43 413 c 1,79,-1
 46 437 l 1,80,-1
 47 441 l 2,81,82
 63 512 63 512 155 553 c 0,83,84
 211 578 211 578 275 577 c 1,85,86
 333 574 333 574 346 557 c 1,87,-1
 348 551 l 1,88,89
 346 544 346 544 329 544 c 0,90,91
 280 545 280 545 243 533 c 0,92,93
 223 526 223 526 206 516 c 0,94,95
 183 502 183 502 163 476 c 1,96,97
 131 439 131 439 129 388 c 0,98,99
 128 349 128 349 136 316 c 0,100,101
 141 297 141 297 148 281 c 0,102,103
 179 218 179 218 242 194 c 0,104,105
 270 183 270 183 297 187 c 0,106,107
 308 189 308 189 319 193 c 0,108,109
 340 201 340 201 358 215 c 0,110,111
 393 242 393 242 391 268 c 0,112,113
 391 274 391 274 385 280 c 1,0,-1
396 321 m 1,114,115
 403 337 403 337 401 351 c 0,116,117
 400 357 400 357 397 364 c 0,118,119
 392 376 392 376 383 385 c 0,120,121
 372 395 372 395 360 393 c 1,122,123
 344 381 344 381 347 359 c 1,124,-1
 350 350 l 1,125,126
 362 326 362 326 396 321 c 1,114,115
EndSplineSet
EndChar
StartChar: letterBHA
Encoding: 2733 2733 42
Width: 821
GlyphClass: 2
Flags: W
AnchorPoint: "Anchor-1" 656 635 basechar 0
AnchorPoint: "Anchor-0" 687 -15 basechar 0
Fore
395 397 m 1,0,1
 376 397 376 397 356 381 c 1,2,-1
 337 358 l 1,3,4
 312 331 312 331 316 308 c 0,5,6
 316 305 316 305 317 302 c 0,7,8
 318 300 318 300 325 290 c 1,9,10
 340 275 340 275 352 280 c 0,11,12
 355 281 355 281 358 283 c 0,13,14
 368 288 368 288 377 301 c 0,15,16
 402 335 402 335 398 378 c 0,17,18
 398 383 398 383 397 388 c 2,19,-1
 395 396 l 1,20,-1
 395 397 l 1,0,1
633 432 m 1,21,-1
 637 384 l 1,22,23
 552 414 552 414 488 412 c 0,24,25
 484 412 l 0,26,27
 480 411 480 411 473 411 c 0,28,29
 471 410 471 410 467 410 c 1,30,31
 472 361 472 361 464 323 c 0,32,33
 460 304 460 304 453 288 c 0,34,35
 442 262 442 262 423 243 c 0,36,37
 389 207 389 207 340 208 c 2,38,-1
 335 208 l 2,39,40
 255 214 255 214 242 272 c 0,41,42
 236 297 236 297 243 322 c 0,43,44
 246 332 246 332 252 344 c 0,45,46
 264 366 264 366 278 381 c 0,47,48
 322 432 322 432 391 442 c 1,49,50
 394 465 394 465 386 487 c 0,51,52
 382 497 382 497 376 508 c 1,53,54
 367 519 367 519 349 539 c 1,55,56
 305 582 305 582 260 580 c 0,57,58
 259 579 259 579 255 579 c 0,59,60
 167 566 167 566 130 468 c 0,61,62
 105 404 105 404 113 335 c 0,63,64
 117 302 117 302 128 267 c 0,65,66
 142 220 142 220 178 176 c 1,67,68
 215 134 215 134 207 130 c 0,69,70
 206 130 206 130 203 130 c 1,71,-1
 184 139 l 1,72,73
 133 175 133 175 88 244 c 0,74,75
 45 311 45 311 42 375 c 0,76,77
 40 419 40 419 51 457 c 0,78,79
 58 478 58 478 69 498 c 1,80,81
 82 526 82 526 105 554 c 1,82,83
 170 628 170 628 254 628 c 0,84,85
 340 628 340 628 406 556 c 0,86,87
 451 506 451 506 457 453 c 1,88,89
 490 456 490 456 521 455 c 0,90,91
 537 455 537 455 552 453 c 0,92,93
 569 451 569 451 596 443 c 2,94,-1
 633 432 l 1,21,-1
700 629 m 1,95,-1
 700 108 l 2,96,97
 700 76 700 76 727 70 c 0,98,99
 729 69 729 69 734 69 c 0,100,101
 752 67 752 67 765 81 c 0,102,103
 772 88 772 88 777 100 c 2,104,-1
 780 108 l 1,105,106
 781 84 781 84 776 64 c 0,107,108
 773 55 773 55 769 47 c 0,109,110
 759 32 759 32 751 24 c 2,111,-1
 734 10 l 1,112,-1
 711 2 l 1,113,114
 699 0 699 0 692 0 c 0,115,116
 652 -1 652 -1 634 27 c 0,117,118
 625 42 625 42 622 65 c 0,119,120
 620 83 620 83 620 93 c 2,121,-1
 620 562 l 2,122,123
 620 592 620 592 651 602 c 0,124,125
 684 612 684 612 690 616 c 0,126,127
 697 622 697 622 700 629 c 1,95,-1
EndSplineSet
EndChar
StartChar: letterMA
Encoding: 2734 2734 43
Width: 724
GlyphClass: 2
Flags: W
AnchorPoint: "Anchor-1" 554 635 basechar 0
AnchorPoint: "Anchor-0" 583 -22 basechar 0
Fore
303 354 m 1,0,1
 255 354 255 354 201 329 c 0,2,3
 141 300 141 300 131 260 c 1,4,-1
 129 248 l 1,5,6
 128 221 128 221 138 203 c 0,7,8
 143 194 143 194 151 186 c 0,9,10
 164 174 164 174 182 169 c 0,11,12
 201 163 201 163 215 165 c 0,13,14
 219 165 219 165 222 166 c 0,15,16
 230 168 230 168 236 170 c 0,17,18
 296 197 296 197 306 285 c 0,19,20
 309 311 309 311 307 332 c 0,21,22
 306 344 306 344 303 354 c 1,0,1
521 431 m 1,23,-1
 521 562 l 2,24,25
 521 592 521 592 554 602 c 0,26,27
 588 612 588 612 594 616 c 0,28,29
 601 622 601 622 604 629 c 1,30,-1
 604 108 l 2,31,32
 604 69 604 69 639 69 c 0,33,34
 663 69 663 69 681 100 c 1,35,-1
 684 108 l 1,36,37
 685 84 685 84 680 67 c 0,38,39
 677 56 677 56 672 47 c 0,40,41
 666 34 666 34 655 24 c 2,42,-1
 638 10 l 1,43,-1
 614 2 l 1,44,45
 602 0 602 0 596 0 c 0,46,47
 556 -1 556 -1 538 26 c 0,48,49
 528 41 528 41 524 63 c 0,50,51
 521 80 521 80 521 93 c 2,52,-1
 521 431 l 1,23,-1
364 359 m 1,53,54
 370 327 370 327 369 292 c 0,55,56
 369 285 369 285 368 278 c 0,57,58
 366 253 366 253 362 239 c 0,59,60
 350 191 350 191 330 165 c 0,61,62
 269 81 269 81 187 87 c 0,63,64
 183 88 183 88 179 88 c 0,65,66
 172 88 172 88 168 89 c 0,67,68
 99 103 99 103 62 164 c 0,69,70
 39 203 39 203 42 246 c 0,71,72
 42 250 42 250 43 254 c 0,73,74
 61 383 61 383 296 398 c 1,75,76
 288 455 288 455 250 526 c 0,77,78
 208 601 208 601 142 599 c 0,79,80
 121 598 121 598 99 580 c 1,81,82
 77 560 77 560 67 562 c 0,83,84
 63 564 63 564 63 566 c 0,85,86
 66 581 66 581 96 606 c 0,87,88
 130 633 130 633 162 633 c 0,89,90
 258 633 258 633 323 502 c 0,91,92
 351 446 351 446 356 401 c 1,93,94
 378 408 378 408 415 405 c 0,95,96
 436 404 436 404 462 400 c 0,97,98
 501 395 501 395 532 386 c 0,99,100
 541 383 541 383 537 372 c 1,101,-1
 530 358 l 1,102,-1
 525 352 l 1,103,-1
 524 352 l 2,104,105
 461 371 461 371 400 365 c 0,106,107
 382 363 382 363 364 359 c 1,53,54
EndSplineSet
EndChar
StartChar: letterYA
Encoding: 2735 2735 44
Width: 840
GlyphClass: 2
Flags: W
AnchorPoint: "Anchor-1" 675 641 basechar 0
AnchorPoint: "Anchor-0" 697 -18 basechar 0
Fore
720 631 m 1,0,-1
 720 108 l 2,1,2
 720 69 720 69 755 69 c 0,3,4
 780 69 780 69 796 100 c 2,5,-1
 800 108 l 1,6,7
 801 73 801 73 789 49 c 0,8,9
 782 35 782 35 771 24 c 1,10,-1
 753 10 l 1,11,-1
 730 2 l 1,12,13
 720 0 720 0 712 0 c 0,14,15
 650 -2 650 -2 640 63 c 1,16,17
 638 85 638 85 638 93 c 2,18,-1
 638 243 l 1,19,-1
 604 199 l 2,20,21
 523 91 523 91 414 65 c 0,22,23
 348 48 348 48 285 62 c 1,24,25
 248 72 248 72 219 83 c 1,26,27
 69 147 69 147 44 331 c 1,28,29
 44 339 44 339 43 344 c 0,30,31
 39 379 39 379 53 397 c 0,32,33
 60 407 60 407 73 414 c 0,34,35
 94 426 94 426 116 417 c 0,36,37
 129 412 129 412 141 401 c 1,38,39
 180 373 180 373 227 376 c 0,40,41
 229 376 229 376 232 376 c 0,42,43
 288 381 288 381 315 425 c 1,44,45
 342 463 342 463 334 504 c 0,46,47
 330 520 330 520 322 537 c 0,48,49
 306 569 306 569 275 600 c 0,50,51
 253 622 253 622 244 629 c 1,52,53
 207 648 207 648 214 658 c 1,54,55
 223 662 223 662 239 658 c 0,56,57
 246 657 246 657 256 653 c 0,58,59
 269 649 269 649 291 639 c 1,60,61
 306 630 306 630 308 629 c 0,62,63
 428 565 428 565 439 464 c 1,64,-1
 438 425 l 1,65,66
 436 417 l 0,67,68
 435 408 435 408 429 398 c 0,69,70
 376 319 376 319 290 316 c 0,71,72
 257 315 257 315 210 325 c 0,73,74
 188 329 188 329 163 336 c 0,75,76
 160 337 160 337 159 333 c 1,77,-1
 159 323 l 2,78,79
 159 319 159 319 161 303 c 0,80,81
 173 223 173 223 242 169 c 0,82,83
 272 146 272 146 300 136 c 0,84,85
 369 110 369 110 444 136 c 0,86,87
 474 146 474 146 523 178 c 1,88,89
 585 222 585 222 614 267 c 0,90,91
 639 304 639 304 640 318 c 1,92,-1
 640 331 l 1,93,-1
 638 562 l 1,94,95
 638 592 638 592 671 603 c 0,96,97
 706 614 706 614 712 620 c 0,98,99
 717 625 717 625 720 631 c 1,0,-1
EndSplineSet
EndChar
StartChar: letterRA
Encoding: 2736 2736 45
Width: 542
GlyphClass: 2
Flags: W
Fore
274 629 m 0,0,1
 330 602 330 602 389 553 c 0,2,3
 438 511 438 511 443 450 c 0,4,5
 446 414 446 414 433 387 c 0,6,7
 426 371 426 371 413 358 c 0,8,9
 394 340 394 340 367 329 c 2,10,-1
 333 315 l 1,11,12
 290 310 290 310 256 311 c 0,13,14
 249 311 249 311 243 312 c 0,15,16
 219 314 219 314 208 317 c 1,17,-1
 226 257 l 1,18,-1
 226 255 l 1,19,20
 243 172 243 172 272 125 c 1,21,22
 323 51 323 51 412 50 c 0,23,24
 453 50 453 50 478 78 c 0,25,26
 489 89 489 89 500 88 c 1,27,-1
 501 85 l 1,28,-1
 499 82 l 2,29,30
 461 14 461 14 380 2 c 0,31,32
 339 -4 339 -4 301 6 c 0,33,34
 282 11 282 11 265 19 c 1,35,36
 234 37 234 37 216 54 c 0,37,38
 148 118 148 118 131 233 c 0,39,40
 126 271 126 271 86 301 c 0,41,42
 79 307 79 307 75 308 c 0,43,44
 45 318 45 318 42 358 c 0,45,46
 40 387 40 387 53 404 c 0,47,48
 60 413 60 413 72 419 c 0,49,50
 91 429 91 429 117 423 c 0,51,52
 132 420 132 420 147 412 c 2,53,-1
 199 383 l 1,54,55
 214 378 214 378 227 379 c 2,56,-1
 237 381 l 2,57,58
 312 397 312 397 330 446 c 0,59,60
 333 455 333 455 333 465 c 0,61,62
 335 496 335 496 324 524 c 0,63,64
 319 538 319 538 310 552 c 0,65,66
 295 576 295 576 278 591 c 0,67,68
 235 628 235 628 193 629 c 1,69,70
 180 640 180 640 185 645 c 0,71,72
 188 647 188 647 198 648 c 0,73,74
 219 651 219 651 244 642 c 0,75,76
 259 637 259 637 274 629 c 0,0,1
EndSplineSet
EndChar
StartChar: letterLA
Encoding: 2738 2738 46
Width: 858
GlyphClass: 2
Flags: W
AnchorPoint: "Anchor-1" 689 654 basechar 0
AnchorPoint: "Anchor-0" 718 -18 basechar 0
Fore
651 559 m 1,0,-1
 653 96 l 1,1,2
 653 78 653 78 655 68 c 0,3,4
 667 3 667 3 729 3 c 0,5,6
 734 3 734 3 748 5 c 1,7,-1
 771 13 l 1,8,-1
 788 27 l 2,9,10
 818 54 818 54 817 112 c 1,11,-1
 814 103 l 1,12,13
 796 72 796 72 772 72 c 0,14,15
 737 72 737 72 737 112 c 2,16,-1
 737 629 l 1,17,18
 734 622 734 622 727 616 c 0,19,20
 724 614 724 614 684 603 c 0,21,22
 651 594 651 594 651 559 c 1,0,-1
423 392 m 1,23,-1
 396 374 l 1,24,25
 380 356 380 356 385 343 c 1,26,-1
 392 334 l 1,27,28
 399 327 399 327 412 329 c 0,29,30
 419 330 419 330 429 334 c 0,31,32
 442 338 442 338 457 349 c 0,33,34
 486 369 486 369 553 387 c 0,35,36
 623 406 623 406 674 400 c 0,37,38
 700 397 700 397 720 388 c 1,39,-1
 720 480 l 1,40,41
 692 483 692 483 649 477 c 2,42,-1
 604 469 l 1,43,44
 489 445 489 445 423 392 c 1,23,-1
463 135 m 0,45,46
 463 132 463 132 455 128 c 0,47,48
 449 125 449 125 435 121 c 0,49,50
 357 98 357 98 279 121 c 0,51,52
 235 133 235 133 201 152 c 1,53,54
 97 205 97 205 57 306 c 1,55,56
 42 348 42 348 42 390 c 0,57,58
 42 456 42 456 76 511 c 0,59,60
 97 543 97 543 119 563 c 0,61,62
 197 637 197 637 298 632 c 0,63,64
 302 631 302 631 307 631 c 0,65,66
 374 625 374 625 417 598 c 1,67,68
 457 569 457 569 446 557 c 0,69,70
 443 553 443 553 436 551 c 2,71,-1
 433 550 l 1,72,73
 379 582 379 582 325 576 c 0,74,75
 319 575 319 575 312 574 c 0,76,77
 290 570 290 570 266 559 c 0,78,79
 198 529 198 529 168 461 c 0,80,81
 151 419 151 419 148 380 c 1,82,83
 148 318 148 318 199 259 c 1,84,85
 224 227 224 227 258 207 c 1,86,87
 334 153 334 153 411 147 c 0,88,89
 462 142 462 142 463 135 c 0,45,46
EndSplineSet
EndChar
StartChar: letterLLA
Encoding: 2739 2739 47
Width: 800
GlyphClass: 2
Flags: W
AnchorPoint: "Anchor-1" 523 666 basechar 0
AnchorPoint: "Anchor-0" 661 -22 basechar 0
Fore
523 631 m 2,0,-1
 529 631 l 2,1,2
 659 627 659 627 680 532 c 1,3,-1
 680 104 l 2,4,5
 680 65 680 65 714 65 c 1,6,-1
 726 67 l 2,7,8
 744 72 744 72 759 104 c 1,9,-1
 758 71 l 1,10,-1
 758 69 l 1,11,12
 757 60 757 60 753 51 c 0,13,14
 731 -1 731 -1 671 -3 c 1,15,16
 597 -1 597 -1 597 90 c 1,17,-1
 595 532 l 1,18,19
 595 548 595 548 592 558 c 1,20,-1
 587 568 l 2,21,22
 572 598 572 598 522 597 c 1,23,24
 498 595 498 595 479 573 c 0,25,26
 442 529 442 529 444 429 c 0,27,28
 444 423 l 2,29,-1
 444 411 l 1,30,31
 445 378 445 378 439 350 c 0,32,33
 436 335 436 335 431 321 c 0,34,35
 424 300 424 300 410 282 c 1,36,37
 358 207 358 207 245 205 c 0,38,39
 196 204 196 204 158 222 c 0,40,41
 139 231 139 231 121 246 c 0,42,43
 43 311 43 311 42 434 c 0,44,45
 42 486 42 486 72 537 c 0,46,47
 130 635 130 635 237 630 c 0,48,49
 239 630 239 630 242 630 c 0,50,51
 245 629 245 629 251 629 c 0,52,53
 282 623 282 623 285 612 c 0,54,55
 286 606 286 606 273 601 c 1,56,-1
 252 596 l 1,57,58
 217 599 217 599 190 583 c 0,59,60
 177 575 177 575 167 563 c 0,61,62
 127 517 127 517 128 436 c 0,63,64
 130 374 130 374 151 325 c 0,65,66
 183 247 183 247 242 244 c 1,67,-1
 272 245 l 2,68,69
 274 246 274 246 276 246 c 0,70,71
 285 248 285 248 294 251 c 0,72,73
 357 279 357 279 356 409 c 1,74,-1
 356 414 l 1,75,-1
 356 427 l 1,76,77
 358 517 358 517 397 570 c 0,78,79
 444 632 444 632 523 631 c 2,0,-1
EndSplineSet
EndChar
StartChar: letterVA
Encoding: 2741 2741 48
Width: 638
GlyphClass: 2
Flags: W
AnchorPoint: "Anchor-1" 472 635 basechar 0
AnchorPoint: "Anchor-0" 501 -18 basechar 0
Fore
519 629 m 1,0,-1
 519 108 l 2,1,2
 519 69 519 69 554 69 c 0,3,4
 579 69 579 69 595 100 c 2,5,-1
 599 108 l 1,6,7
 600 84 600 84 595 66 c 0,8,9
 591 56 591 56 586 47 c 0,10,11
 580 34 580 34 569 24 c 2,12,-1
 552 10 l 1,13,-1
 528 2 l 2,14,15
 518 0 518 0 511 0 c 0,16,17
 485 -1 485 -1 467 11 c 0,18,19
 459 17 459 17 452 27 c 0,20,21
 443 39 443 39 438 63 c 1,22,23
 436 85 436 85 436 93 c 2,24,-1
 436 229 l 1,25,26
 360 116 360 116 253 120 c 0,27,28
 247 120 l 0,29,30
 239 120 239 120 236 121 c 0,31,32
 151 130 151 130 89 204 c 0,33,34
 40 263 40 263 42 330 c 0,35,36
 42 333 42 333 43 335 c 0,37,38
 55 467 55 467 165 511 c 1,39,40
 222 530 222 530 282 523 c 0,41,42
 313 520 313 520 343 508 c 0,43,44
 415 479 415 479 436 433 c 1,45,-1
 436 561 l 2,46,47
 436 591 436 591 468 601 c 0,48,49
 502 611 502 611 508 615 c 0,50,51
 512 617 512 617 519 629 c 1,0,-1
436 273 m 1,52,-1
 436 392 l 1,53,54
 363 488 363 488 275 480 c 0,55,56
 270 480 270 480 265 479 c 0,57,58
 252 476 252 476 248 475 c 0,59,60
 184 459 184 459 147 394 c 0,61,62
 131 366 131 366 129 335 c 0,63,64
 126 281 126 281 151 244 c 0,65,66
 164 224 164 224 184 209 c 0,67,68
 233 171 233 171 294 181 c 0,69,70
 312 184 312 184 331 191 c 0,71,72
 389 216 389 216 436 273 c 1,52,-1
EndSplineSet
EndChar
StartChar: letterSHA
Encoding: 2742 2742 49
Width: 833
GlyphClass: 2
Flags: W
AnchorPoint: "Anchor-1" 665 635 basechar 0
AnchorPoint: "Anchor-0" 691 -25 basechar 0
Fore
712 626 m 1,0,-1
 712 104 l 2,1,2
 712 65 712 65 746 65 c 0,3,4
 771 65 771 65 788 97 c 2,5,-1
 792 104 l 1,6,7
 793 81 793 81 789 64 c 0,8,9
 786 53 786 53 780 44 c 1,10,11
 775 32 775 32 763 19 c 1,12,-1
 745 7 l 1,13,-1
 723 -1 l 1,14,15
 711 -3 711 -3 703 -3 c 0,16,17
 664 -4 664 -4 646 24 c 0,18,19
 636 38 636 38 632 60 c 0,20,21
 629 76 629 76 629 90 c 1,22,-1
 627 559 l 1,23,24
 627 588 627 588 660 599 c 1,25,26
 697 609 697 609 701 612 c 0,27,28
 708 615 708 615 712 626 c 1,0,-1
210 406 m 0,29,30
 167 400 167 400 131 411 c 0,31,32
 116 415 116 415 102 423 c 0,33,34
 80 437 80 437 68 455 c 1,35,36
 49 477 49 477 47 507 c 0,37,38
 46 531 46 531 55 550 c 0,39,40
 61 562 61 562 72 573 c 1,41,42
 85 589 85 589 104 601 c 0,43,44
 147 626 147 626 198 627 c 1,45,46
 355 625 355 625 437 526 c 1,47,48
 490 464 490 464 489 392 c 0,49,50
 489 268 489 268 377 196 c 0,51,52
 329 166 329 166 280 157 c 1,53,54
 308 55 308 55 373 53 c 0,55,56
 390 53 390 53 407 60 c 1,57,-1
 425 71 l 1,58,-1
 463 98 l 2,59,60
 464 99 464 99 465 96 c 1,61,-1
 461 89 l 1,62,-1
 450 71 l 1,63,64
 401 -2 401 -2 337 -1 c 2,65,-1
 333 -1 l 2,66,67
 273 4 273 4 240 76 c 1,68,-1
 215 136 l 1,69,70
 169 129 169 129 134 136 c 0,71,72
 115 139 115 139 99 147 c 1,73,74
 78 160 78 160 61 179 c 1,75,76
 36 212 36 212 43 246 c 0,77,78
 45 255 45 255 49 265 c 0,79,80
 68 312 68 312 130 310 c 1,81,82
 146 308 146 308 156 307 c 0,83,84
 212 295 212 295 253 225 c 1,85,86
 260 210 260 210 265 198 c 1,87,88
 315 201 315 201 353 267 c 1,89,90
 389 325 389 325 388 395 c 0,91,92
 388 462 388 462 334 518 c 0,93,94
 280 574 280 574 200 573 c 0,95,96
 141 571 141 571 128 529 c 0,97,98
 120 506 120 506 129 488 c 0,99,100
 134 478 134 478 144 469 c 0,101,102
 163 453 163 453 189 453 c 0,103,104
 249 453 249 453 289 480 c 0,105,106
 296 484 296 484 304 494 c 1,107,108
 314 502 314 502 316 500 c 1,109,-1
 317 495 l 1,110,-1
 310 476 l 1,111,112
 287 431 287 431 237 412 c 0,113,114
 221 407 221 407 210 406 c 0,29,30
124 245 m 1,115,116
 116 233 116 233 119 224 c 0,117,118
 120 220 120 220 123 217 c 0,119,120
 128 211 128 211 138 205 c 0,121,122
 163 191 163 191 195 188 c 1,123,124
 187 222 187 222 156 244 c 1,125,126
 141 253 141 253 132 250 c 0,127,128
 128 249 128 249 124 245 c 1,115,116
EndSplineSet
EndChar
StartChar: letterSSA
Encoding: 2743 2743 50
Width: 574
GlyphClass: 2
Flags: W
AnchorPoint: "Anchor-1" 407 635 basechar 0
AnchorPoint: "Anchor-0" 423 -12 basechar 0
Fore
453 626 m 1,0,-1
 453 104 l 2,1,2
 453 65 453 65 487 65 c 0,3,4
 512 65 512 65 529 97 c 1,5,-1
 532 104 l 1,6,7
 534 81 534 81 527 60 c 0,8,9
 525 51 525 51 521 44 c 0,10,11
 515 33 515 33 504 19 c 1,12,-1
 486 7 l 1,13,-1
 464 -1 l 1,14,15
 450 -3 450 -3 444 -3 c 0,16,17
 404 -4 404 -4 386 24 c 0,18,19
 377 38 377 38 373 60 c 0,20,21
 370 76 370 76 370 90 c 1,22,-1
 369 559 l 1,23,24
 369 588 369 588 401 599 c 0,25,26
 437 610 437 610 441 612 c 0,27,28
 449 617 449 617 453 626 c 1,0,-1
147 595 m 2,29,30
 162 575 162 575 200 535 c 1,31,32
 237 493 237 493 253 453 c 1,33,34
 292 364 292 364 370 324 c 2,35,-1
 382 318 l 1,36,37
 394 303 394 303 390 271 c 1,38,-1
 386 246 l 1,39,-1
 383 232 l 1,40,41
 343 160 343 160 229 160 c 0,42,43
 147 160 147 160 94 207 c 0,44,45
 42 252 42 252 42 336 c 2,46,-1
 42 577 l 2,47,48
 42 611 42 611 76 626 c 0,49,50
 84 629 84 629 90 629 c 0,51,52
 112 629 112 629 122 622 c 1,53,54
 137 609 137 609 144 599 c 2,55,-1
 147 595 l 2,29,30
124 536 m 1,56,-1
 124 339 l 1,57,58
 123 312 123 312 133 287 c 0,59,60
 138 275 138 275 146 263 c 0,61,62
 179 217 179 217 240 215 c 0,63,64
 268 214 268 214 294 222 c 0,65,66
 306 226 306 226 318 232 c 1,67,68
 347 250 347 250 364 273 c 1,69,70
 300 310 300 310 294 314 c 0,71,72
 252 345 252 345 224 397 c 1,73,-1
 194 462 l 1,74,75
 166 506 166 506 124 536 c 1,56,-1
EndSplineSet
EndChar
StartChar: letterSA
Encoding: 2744 2744 51
Width: 851
GlyphClass: 2
Flags: W
AnchorPoint: "Anchor-1" 687 635 basechar 0
AnchorPoint: "Anchor-0" 713 -18 basechar 0
Fore
731 629 m 1,0,-1
 731 108 l 2,1,2
 731 69 731 69 766 69 c 0,3,4
 792 69 792 69 807 100 c 2,5,-1
 811 108 l 1,6,7
 812 84 812 84 807 67 c 0,8,9
 804 56 804 56 799 47 c 0,10,11
 793 34 793 34 782 24 c 2,12,-1
 764 10 l 1,13,-1
 741 2 l 1,14,15
 731 0 731 0 723 0 c 0,16,17
 683 -1 683 -1 665 26 c 0,18,19
 655 41 655 41 651 63 c 0,20,21
 648 80 648 80 648 93 c 2,22,-1
 648 306 l 1,23,24
 563 255 563 255 469 272 c 0,25,26
 432 279 432 279 394 296 c 2,27,-1
 342 318 l 1,28,-1
 331 318 l 1,29,-1
 273 312 l 1,30,-1
 226 313 l 1,31,32
 216 315 216 315 208 317 c 1,33,-1
 226 257 l 1,34,-1
 226 255 l 1,35,36
 243 168 243 168 268 124 c 0,37,38
 315 42 315 42 407 51 c 0,39,40
 413 52 413 52 420 53 c 0,41,42
 435 53 435 53 465 70 c 0,43,44
 478 76 478 76 485 83 c 0,45,46
 498 95 498 95 510 97 c 0,47,48
 512 98 512 98 512 97 c 1,49,-1
 509 92 l 1,50,-1
 499 82 l 1,51,52
 433 4 433 4 342 -1 c 0,53,54
 298 -2 298 -2 262 14 c 0,55,56
 243 23 243 23 226 37 c 0,57,58
 206 54 206 54 182 87 c 1,59,60
 144 149 144 149 131 233 c 1,61,-1
 83 302 l 1,62,63
 78 307 78 307 75 308 c 0,64,65
 45 318 45 318 42 358 c 0,66,67
 40 387 40 387 53 404 c 0,68,69
 60 413 60 413 72 419 c 0,70,71
 91 429 91 429 117 423 c 0,72,73
 132 420 132 420 147 412 c 2,74,-1
 199 383 l 1,75,76
 214 378 214 378 227 379 c 2,77,-1
 237 381 l 2,78,79
 299 396 299 396 316 421 c 1,80,81
 332 438 332 438 333 465 c 0,82,83
 338 522 338 522 293 567 c 0,84,85
 270 591 270 591 233 612 c 2,86,-1
 201 629 l 1,87,88
 168 638 168 638 165 649 c 0,89,90
 163 656 163 656 178 655 c 0,91,92
 195 655 195 655 239 644 c 0,93,94
 259 640 259 640 291 629 c 1,95,-1
 345 603 l 1,96,97
 391 577 391 577 428 524 c 1,98,99
 461 459 461 459 452 415 c 0,100,101
 450 405 450 405 446 396 c 0,102,103
 436 370 436 370 411 353 c 1,104,105
 398 346 398 346 382 340 c 1,106,-1
 431 325 l 1,107,108
 493 311 493 311 539 322 c 0,109,110
 562 328 562 328 582 341 c 0,111,112
 610 358 610 358 630 392 c 0,113,114
 637 402 637 402 648 432 c 1,115,-1
 646 562 l 1,116,117
 646 592 646 592 680 602 c 0,118,119
 718 613 718 613 720 615 c 0,120,121
 727 618 727 618 731 629 c 1,0,-1
EndSplineSet
EndChar
StartChar: letterHA
Encoding: 2745 2745 52
Width: 760
GlyphClass: 2
Flags: W
AnchorPoint: "Anchor-1" 421 654 basechar 0
AnchorPoint: "Anchor-0" 396 -207 basechar 0
Fore
525 138 m 0,0,1
 526 166 526 166 515 196 c 0,2,3
 509 212 509 212 500 229 c 0,4,5
 484 258 484 258 456 294 c 1,6,7
 419 336 419 336 377 374 c 1,8,-1
 370 379 l 2,9,10
 335 408 335 408 331 416 c 1,11,12
 316 432 316 432 320 446 c 0,13,14
 322 451 322 451 326 456 c 0,15,16
 335 467 335 467 351 474 c 2,17,-1
 462 520 l 1,18,19
 493 536 493 536 493 548 c 0,20,21
 493 559 493 559 470 577 c 2,22,-1
 455 588 l 2,23,24
 411 618 411 618 418 627 c 0,25,26
 419 628 419 628 425 628 c 0,27,28
 438 628 438 628 451 621 c 0,29,30
 528 581 528 581 545 562 c 1,31,-1
 553 550 l 1,32,-1
 553 541 l 1,33,34
 556 531 556 531 534 515 c 2,35,-1
 514 502 l 1,36,-1
 414 449 l 1,37,38
 397 437 397 437 400 423 c 1,39,-1
 417 404 l 1,40,-1
 422 399 l 2,41,42
 509 318 509 318 543 282 c 1,43,44
 623 192 623 192 618 132 c 0,45,46
 618 128 l 0,47,48
 612 54 612 54 549 23 c 1,49,50
 510 1 510 1 453 2 c 0,51,52
 294 5 294 5 163 245 c 0,53,54
 160 249 160 249 161 254 c 0,55,56
 161 257 161 257 163 261 c 0,57,58
 167 271 167 271 174 268 c 0,59,60
 178 266 l 1,61,-1
 233 193 l 1,62,63
 345 58 345 58 437 59 c 0,64,65
 476 60 476 60 508 94 c 1,66,67
 524 116 524 116 525 138 c 0,0,1
50 70 m 0,68,69
 33 164 33 164 52 235 c 0,70,71
 62 273 62 273 83 305 c 1,72,73
 102 339 102 339 146 376 c 1,74,75
 196 413 196 413 229 412 c 0,76,77
 233 412 233 412 236 411 c 0,78,79
 253 405 253 405 249 390 c 0,80,81
 249 387 249 387 247 384 c 0,82,83
 242 374 242 374 228 364 c 0,84,85
 172 321 172 321 145 249 c 1,86,87
 128 196 128 196 133 135 c 0,88,89
 134 117 134 117 137 99 c 0,90,91
 145 54 145 54 164 24 c 1,92,93
 214 -66 214 -66 310 -113 c 1,94,95
 336 -124 336 -124 344 -126 c 0,96,97
 403 -145 403 -145 469 -136 c 0,98,99
 504 -131 504 -131 540 -119 c 1,100,101
 601 -93 601 -93 648 -61 c 1,102,103
 688 -36 688 -36 708 -31 c 1,104,-1
 718 -32 l 1,105,-1
 719 -34 l 1,106,-1
 718 -42 l 1,107,108
 707 -69 707 -69 651 -111 c 1,109,110
 536 -193 536 -193 397 -193 c 1,111,-1
 360 -190 l 2,112,113
 243 -179 243 -179 152 -100 c 1,114,115
 68 -29 68 -29 50 70 c 0,68,69
EndSplineSet
EndChar
StartChar: signnukta
Encoding: 2748 2748 54
Width: 0
GlyphClass: 2
Flags: W
Fore
-159 -33 m 1,0,1
 -185 -59 -185 -59 -219 -58 c 1,2,-1
 -240 -60 l 2,3,4
 -244 -61 -244 -61 -248 -63 c 1,5,-1
 -258 -73 l 2,6,7
 -272 -88 -272 -88 -267 -106 c 0,8,9
 -266 -113 -266 -113 -260 -125 c 0,10,11
 -244 -152 -244 -152 -216 -148 c 0,12,13
 -212 -148 -212 -148 -211 -147 c 0,14,15
 -190 -142 -190 -142 -176 -124 c 0,16,17
 -155 -95 -155 -95 -156 -52 c 0,18,19
 -157 -49 -157 -49 -157 -44 c 1,20,-1
 -159 -33 l 1,0,1
EndSplineSet
EndChar
StartChar: signavagraha
Encoding: 2749 2749 55
Width: 537
GlyphClass: 2
Flags: W
Fore
471 179 m 0,0,1
 476 151 476 151 471 126 c 0,2,3
 469 110 469 110 463 96 c 0,4,5
 456 81 456 81 439 57 c 1,6,7
 389 -6 389 -6 307 -2 c 0,8,9
 304 -1 304 -1 300 -1 c 0,10,11
 293 -1 293 -1 289 0 c 0,12,13
 182 14 182 14 65 135 c 1,14,15
 49 149 49 149 46 178 c 1,16,-1
 47 189 l 1,17,18
 49 191 l 0,19,20
 50 192 50 192 58 190 c 0,21,22
 72 186 72 186 101 157 c 0,23,24
 161 96 161 96 244 80 c 0,25,26
 285 72 285 72 313 78 c 0,27,28
 328 80 328 80 341 87 c 0,29,30
 360 99 360 99 370 117 c 0,31,32
 385 140 385 140 385 177 c 0,33,34
 383 245 383 245 304 311 c 2,35,-1
 293 321 l 1,36,-1
 180 401 l 1,37,38
 120 451 120 451 120 499 c 0,39,40
 119 549 119 549 162 582 c 0,41,42
 183 599 183 599 215 611 c 0,43,44
 267 632 267 632 308 630 c 0,45,46
 312 630 l 2,47,-1
 317 630 l 2,48,49
 415 621 415 621 462 588 c 0,50,51
 474 580 474 580 472 574 c 1,52,53
 470 572 470 572 465 572 c 2,54,-1
 439 577 l 2,55,56
 429 579 429 579 419 583 c 0,57,58
 372 600 372 600 326 592 c 1,59,60
 294 584 294 584 276 577 c 0,61,62
 215 553 215 553 209 509 c 0,63,64
 208 507 208 507 208 502 c 0,65,66
 207 475 207 475 218 451 c 0,67,68
 224 437 224 437 234 425 c 0,69,70
 257 400 257 400 272 389 c 2,71,-1
 380 313 l 1,72,73
 455 253 455 253 471 179 c 0,0,1
EndSplineSet
EndChar
StartChar: vowelsignAA
Encoding: 2750 2750 56
Width: 248
GlyphClass: 2
Flags: W
Fore
130 629 m 1,0,-1
 130 108 l 2,1,2
 130 69 130 69 165 69 c 0,3,4
 189 69 189 69 207 100 c 1,5,-1
 210 108 l 1,6,7
 211 84 211 84 206 64 c 0,8,9
 203 55 203 55 199 47 c 0,10,11
 191 35 191 35 180 24 c 0,12,13
 159 2 159 2 122 0 c 0,14,15
 81 -1 81 -1 62 27 c 0,16,17
 53 41 53 41 49 63 c 1,18,19
 47 85 47 85 47 93 c 1,20,-1
 46 562 l 1,21,22
 46 592 46 592 79 602 c 0,23,24
 118 614 118 614 119 615 c 0,25,26
 126 619 126 619 130 629 c 1,0,-1
EndSplineSet
EndChar
StartChar: vowelsignI
Encoding: 2751 2751 57
Width: 223
GlyphClass: 2
Flags: W
Fore
172 629 m 2,0,-1
 172 108 l 2,1,2
 172 69 172 69 207 69 c 0,3,4
 231 69 231 69 249 100 c 1,5,-1
 252 108 l 1,6,7
 253 84 253 84 248 65 c 0,8,9
 245 55 245 55 240 47 c 0,10,11
 230 32 230 32 222 24 c 0,12,13
 201 2 201 2 164 0 c 0,14,15
 123 -1 123 -1 104 27 c 0,16,17
 95 41 95 41 91 63 c 1,18,19
 89 85 89 85 89 93 c 1,20,-1
 88 625 l 1,21,22
 86 774 86 774 177 843 c 0,23,24
 222 877 222 877 291 891 c 0,25,26
 334 901 334 901 392 901 c 0,27,28
 554 901 554 901 643 796 c 0,29,30
 675 758 675 758 691 714 c 1,31,32
 703 674 703 674 698 657 c 1,33,-1
 694 649 l 1,34,35
 692 648 692 648 689 647 c 0,36,37
 675 647 675 647 657 681 c 2,38,-1
 648 699 l 1,39,40
 588 809 588 809 469 831 c 1,41,42
 440 838 440 838 404 837 c 0,43,44
 394 837 l 0,45,46
 255 828 255 828 201 738 c 1,47,48
 172 694 172 694 172 629 c 2,0,-1
EndSplineSet
EndChar
StartChar: vowelsignII
Encoding: 2752 2752 58
Width: 223
GlyphClass: 2
Flags: W
Fore
191 630 m 1,0,-1
 193 108 l 1,1,2
 193 69 193 69 227 69 c 0,3,4
 253 69 253 69 269 100 c 1,5,-1
 272 108 l 1,6,7
 273 74 273 74 261 49 c 0,8,9
 255 35 255 35 244 24 c 0,10,11
 220 1 220 1 184 0 c 0,12,13
 144 -1 144 -1 126 27 c 0,14,15
 117 41 117 41 113 63 c 1,16,17
 111 85 111 85 111 93 c 1,18,-1
 109 625 l 1,19,20
 115 729 115 729 72 781 c 0,21,22
 51 808 51 808 17 821 c 0,23,24
 -2 828 -2 828 -27 830 c 0,25,26
 -46 831 -46 831 -64 827 c 0,27,28
 -74 824 -74 824 -85 819 c 0,29,30
 -154 789 -154 789 -141 704 c 0,31,32
 -140 693 -140 693 -137 682 c 1,33,-1
 -128 642 l 1,34,-1
 -130 632 l 1,35,-1
 -137 629 l 1,36,-1
 -138 629 l 2,37,38
 -156 628 -156 628 -167 639 c 0,39,40
 -172 645 -172 645 -175 652 c 2,41,-1
 -182 667 l 2,42,43
 -212 729 -212 729 -195 782 c 0,44,45
 -187 809 -187 809 -166 834 c 0,46,47
 -116 892 -116 892 -37 900 c 0,48,49
 -32 901 -32 901 -19 901 c 0,50,51
 174 899 174 899 190 705 c 1,52,53
 193 652 193 652 191 630 c 1,0,-1
EndSplineSet
EndChar
StartChar: vowelsignU
Encoding: 2753 2753 59
Width: 0
GlyphClass: 4
Flags: W
AnchorPoint: "Anchor-0" -150 4 mark 0
Fore
-139 -104 m 1,0,1
 -149 -118 -149 -118 -167 -124 c 0,2,3
 -181 -130 -181 -130 -194 -128 c 0,4,5
 -198 -127 -198 -127 -203 -125 c 0,6,7
 -216 -121 -216 -121 -225 -113 c 1,8,9
 -257 -91 -257 -91 -252 -66 c 0,10,11
 -251 -62 -251 -62 -250 -59 c 0,12,13
 -244 -47 -244 -47 -238 -40 c 0,14,15
 -210 -4 -210 -4 -162 0 c 0,16,17
 -139 2 -139 2 -119 -2 c 0,18,19
 -109 -3 -109 -3 -98 -7 c 0,20,21
 -92 -9 -92 -9 -72 -20 c 1,22,23
 -26 -52 -26 -52 -26 -105 c 1,24,25
 -31 -174 -31 -174 -91 -208 c 1,26,27
 -140 -233 -140 -233 -200 -229 c 0,28,29
 -207 -228 -207 -228 -215 -227 c 0,30,31
 -245 -223 -245 -223 -291 -208 c 1,32,33
 -314 -199 -314 -199 -340 -185 c 2,34,-1
 -467 -113 l 1,35,-1
 -479 -105 l 1,36,37
 -528 -84 -528 -84 -611 -83 c 1,38,-1
 -600 -76 l 2,39,40
 -564 -52 -564 -52 -512 -54 c 0,41,42
 -508 -55 -508 -55 -504 -55 c 0,43,44
 -466 -58 -466 -58 -432 -75 c 0,45,46
 -396 -93 -396 -93 -340 -127 c 0,47,48
 -261 -176 -261 -176 -176 -175 c 1,49,50
 -145 -173 -145 -173 -124 -151 c 0,51,52
 -93 -120 -93 -120 -95 -77 c 0,53,54
 -98 -36 -98 -36 -142 -37 c 0,55,56
 -153 -37 -153 -37 -161 -42 c 0,57,58
 -180 -52 -180 -52 -179 -79 c 1,59,60
 -175 -104 -175 -104 -139 -104 c 1,0,1
EndSplineSet
EndChar
StartChar: vowelsignUU
Encoding: 2754 2754 60
Width: 0
GlyphClass: 4
Flags: W
AnchorPoint: "Anchor-0" -121 10 mark 0
Fore
-127 -102 m 1,0,1
 -114 -92 -114 -92 -96 -88 c 1,2,-1
 -76 -87 l 2,3,4
 -73 -87 -73 -87 -71 -88 c 2,5,-1
 -61 -92 l 1,6,-1
 -60 -92 l 1,7,-1
 -39 -105 l 1,8,-1
 -24 -122 l 2,9,10
 -8 -139 -8 -139 -12 -158 c 0,11,12
 -13 -163 -13 -163 -16 -168 c 0,13,14
 -20 -175 -20 -175 -38 -189 c 0,15,16
 -71 -216 -71 -216 -115 -214 c 0,17,18
 -117 -213 -117 -213 -121 -213 c 0,19,20
 -159 -208 -159 -208 -188 -183 c 1,21,22
 -240 -144 -240 -144 -239 -85 c 0,23,24
 -239 -78 -239 -78 -238 -76 c 0,25,26
 -229 -11 -229 -11 -159 8 c 0,27,28
 -120 18 -120 18 -78 13 c 0,29,30
 -57 11 -57 11 -34 5 c 0,31,32
 3 -4 3 -4 38 -24 c 0,33,34
 80 -46 80 -46 113 -75 c 0,35,36
 179 -131 179 -131 199 -143 c 0,37,38
 254 -179 254 -179 338 -193 c 1,39,-1
 325 -200 l 2,40,41
 295 -213 295 -213 262 -211 c 0,42,43
 258 -210 258 -210 254 -210 c 0,44,45
 247 -209 247 -209 226 -205 c 0,46,47
 193 -198 193 -198 157 -174 c 1,48,49
 75 -112 l 1,50,51
 -3 -48 -3 -48 -80 -39 c 0,52,53
 -94 -37 -94 -37 -109 -42 c 0,54,55
 -116 -44 -116 -44 -124 -48 c 0,56,57
 -162 -69 -162 -69 -171 -111 c 0,58,59
 -175 -130 -175 -130 -168 -144 c 0,60,61
 -165 -151 -165 -151 -160 -157 c 0,62,63
 -151 -166 -151 -166 -133 -171 c 0,64,65
 -124 -173 -124 -173 -122 -172 c 2,66,-1
 -108 -168 l 1,67,68
 -101 -162 -101 -162 -98 -158 c 0,69,70
 -92 -148 -92 -148 -92 -137 c 0,71,72
 -92 -106 -92 -106 -127 -102 c 1,0,1
EndSplineSet
EndChar
StartChar: vowelsign_vocalicR
Encoding: 2755 2755 61
Width: 0
GlyphClass: 4
Flags: W
AnchorPoint: "Anchor-0" -127 6 mark 0
Fore
-51 -36 m 1,0,1
 -97 -16 -97 -16 -137 -21 c 0,2,3
 -146 -23 -146 -23 -154 -25 c 0,4,5
 -174 -29 -174 -29 -199 -43 c 0,6,7
 -244 -69 -244 -69 -244 -114 c 1,8,9
 -242 -128 -242 -128 -234 -138 c 1,10,11
 -192 -213 -192 -213 -96 -203 c 0,12,13
 -87 -202 -87 -202 -77 -200 c 0,14,15
 -57 -196 -57 -196 -30 -184 c 2,16,-1
 20 -161 l 1,17,18
 24 -161 24 -161 24 -162 c 0,19,20
 23 -172 23 -172 -16 -198 c 1,21,22
 -85 -236 -85 -236 -150 -230 c 0,23,24
 -157 -229 -157 -229 -163 -228 c 0,25,26
 -170 -227 -170 -227 -195 -221 c 0,27,28
 -213 -215 -213 -215 -237 -203 c 1,29,30
 -297 -165 -297 -165 -301 -111 c 0,31,32
 -305 -71 -305 -71 -281 -43 c 0,33,34
 -268 -29 -268 -29 -247 -17 c 1,35,36
 -226 -8 -226 -8 -212 -4 c 0,37,38
 -170 7 -170 7 -125 5 c 0,39,40
 -120 5 -120 5 -116 5 c 2,41,-1
 -92 3 l 1,42,-1
 -65 -1 l 2,43,44
 -42 -4 -42 -4 -29 -26 c 0,45,46
 -23 -34 -23 -34 -25 -40 c 1,47,-1
 -32 -41 l 1,48,-1
 -51 -36 l 1,0,1
EndSplineSet
EndChar
StartChar: vowelsign_vocalicRR
Encoding: 2756 2756 62
Width: 0
GlyphClass: 4
Flags: W
AnchorPoint: "Anchor-0" -142 0 mark 0
Fore
-142 -122 m 2,0,-1
 -137 -123 l 2,1,2
 -123 -129 -123 -129 -98 -127 c 0,3,4
 -84 -126 -84 -126 -68 -123 c 0,5,6
 -41 -118 -41 -118 -11 -106 c 0,7,8
 -3 -104 -3 -104 -1 -106 c 1,9,-1
 -1 -112 l 1,10,11
 -4 -118 -4 -118 -19 -127 c 1,12,-1
 -27 -130 l 2,13,14
 -82 -156 -82 -156 -130 -153 c 0,15,16
 -133 -152 -133 -152 -136 -152 c 0,17,18
 -150 -150 -150 -150 -158 -148 c 2,19,-1
 -165 -146 l 1,20,21
 -197 -165 -197 -165 -203 -189 c 0,22,23
 -206 -205 -206 -205 -199 -215 c 0,24,25
 -195 -222 -195 -222 -187 -227 c 1,26,27
 -182 -232 -182 -232 -164 -243 c 1,28,29
 -145 -251 -145 -251 -117 -248 c 0,30,31
 -107 -247 -107 -247 -96 -245 c 0,32,33
 -73 -240 -73 -240 -45 -228 c 0,34,35
 -44 -227 -44 -227 -41 -227 c 0,36,37
 -34 -225 -34 -225 -32 -227 c 1,38,-1
 -30 -231 l 1,39,40
 -30 -238 -30 -238 -38 -244 c 1,41,-1
 -55 -252 l 2,42,43
 -104 -272 -104 -272 -156 -272 c 1,44,45
 -171 -274 -171 -274 -186 -269 c 0,46,47
 -197 -267 -197 -267 -204 -264 c 0,48,49
 -248 -245 -248 -245 -250 -201 c 0,50,51
 -251 -170 -251 -170 -232 -146 c 0,52,53
 -222 -133 -222 -133 -207 -123 c 1,54,55
 -242 -86 -242 -86 -235 -57 c 0,56,57
 -234 -53 -234 -53 -232 -49 c 0,58,59
 -229 -40 -229 -40 -220 -29 c 0,60,61
 -205 -10 -205 -10 -182 -4 c 0,62,63
 -159 2 -159 2 -132 0 c 0,64,65
 -118 0 -118 0 -104 -3 c 0,66,67
 -83 -7 -83 -7 -55 -18 c 1,68,-1
 -44 -25 l 1,69,70
 -20 -37 -20 -37 -19 -42 c 1,71,-1
 -20 -46 l 1,72,-1
 -30 -46 l 1,73,-1
 -31 -46 l 2,74,75
 -84 -26 -84 -26 -123 -23 c 1,76,-1
 -150 -25 l 1,77,-1
 -157 -27 l 2,78,79
 -198 -44 -198 -44 -192 -70 c 0,80,81
 -192 -72 -192 -72 -191 -74 c 2,82,-1
 -187 -84 l 2,83,84
 -177 -108 -177 -108 -142 -122 c 2,0,-1
EndSplineSet
EndChar
StartChar: vowelsign_candraE
Encoding: 2757 2757 63
Width: 0
GlyphClass: 4
Flags: W
AnchorPoint: "Anchor-1" -195 629 mark 0
Fore
-352 969 m 1,0,1
 -342 876 -342 876 -285 805 c 1,2,3
 -258 775 -258 775 -239 766 c 1,4,5
 -202 743 -202 743 -152 750 c 0,6,7
 -127 754 -127 754 -99 764 c 2,8,-1
 -70 776 l 1,9,-1
 -73 744 l 1,10,11
 -77 728 -77 728 -86 722 c 1,12,13
 -126 685 -126 685 -179 686 c 1,14,15
 -200 688 -200 688 -224 692 c 1,16,17
 -275 695 -275 695 -326 752 c 1,18,19
 -382 812 -382 812 -386 879 c 0,20,21
 -389 912 -389 912 -382 931 c 0,22,23
 -379 940 -379 940 -373 945 c 0,24,25
 -357 956 -357 956 -352 969 c 1,0,1
EndSplineSet
EndChar
StartChar: vowelsignE
Encoding: 2759 2759 64
Width: 0
GlyphClass: 4
Flags: W
AnchorPoint: "Anchor-1" -144 645 mark 0
Fore
-195 681 m 1,0,1
 -229 710 -229 710 -280 811 c 2,2,-1
 -294 838 l 1,3,4
 -336 938 -336 938 -399 926 c 0,5,6
 -404 925 -404 925 -409 923 c 2,7,-1
 -429 915 l 1,8,-1
 -439 914 l 1,9,-1
 -439 915 l 1,10,-1
 -436 920 l 1,11,-1
 -435 921 l 2,12,13
 -411 942 -411 942 -362 956 c 0,14,15
 -340 962 -340 962 -331 961 c 0,16,17
 -270 955 -270 955 -225 855 c 1,18,-1
 -225 854 l 1,19,-1
 -223 849 l 2,20,21
 -157 704 -157 704 -97 681 c 1,22,-1
 -147 672 l 1,23,24
 -166 672 -166 672 -195 681 c 1,0,1
EndSplineSet
EndChar
StartChar: vowelsignAI
Encoding: 2760 2760 65
Width: 0
GlyphClass: 4
Flags: W
AnchorPoint: "Anchor-1" -117 637 mark 0
Fore
-237 966 m 0,0,1
 -230 966 -230 966 -227 965 c 0,2,3
 -137 947 -137 947 -83 762 c 1,4,-1
 -63 686 l 1,5,6
 -77 686 -77 686 -117 673 c 0,7,8
 -144 665 -144 665 -175 673 c 0,9,10
 -192 677 -192 677 -210 686 c 1,11,12
 -238 706 -238 706 -293 752 c 1,13,14
 -370 821 -370 821 -381 828 c 0,15,16
 -430 864 -430 864 -485 859 c 0,17,18
 -497 857 l 0,19,20
 -512 856 -512 856 -523 850 c 1,21,-1
 -530 849 l 2,22,23
 -534 849 -534 849 -534 851 c 0,24,25
 -533 853 -533 853 -530 856 c 0,26,27
 -526 860 -526 860 -517 866 c 0,28,29
 -468 899 -468 899 -429 898 c 1,30,31
 -410 896 -410 896 -389 890 c 0,32,33
 -331 874 -331 874 -234 793 c 1,34,35
 -177 742 -177 742 -157 737 c 1,36,-1
 -165 760 l 1,37,38
 -183 827 -183 827 -190 843 c 0,39,40
 -229 935 -229 935 -294 932 c 0,41,42
 -297 932 -297 932 -299 931 c 2,43,-1
 -336 921 l 2,44,45
 -344 919 -344 919 -345 920 c 0,46,47
 -348 922 -348 922 -342 926 c 0,48,49
 -340 928 -340 928 -330 934 c 0,50,51
 -275 967 -275 967 -237 966 c 0,0,1
EndSplineSet
EndChar
StartChar: vowelsign_candraO
Encoding: 2761 2761 66
Width: 274
GlyphClass: 2
Flags: W
Fore
-158 948 m 1,0,1
 -146 852 -146 852 -89 784 c 0,2,3
 -66 757 -66 757 -44 744 c 0,4,5
 -6 723 -6 723 43 730 c 0,6,7
 68 733 68 733 95 743 c 2,8,-1
 126 755 l 1,9,-1
 123 724 l 1,10,11
 119 707 119 707 109 700 c 1,12,13
 70 664 70 664 15 665 c 0,14,15
 -2 666 -2 666 -30 671 c 1,16,17
 -79 674 -79 674 -131 731 c 1,18,19
 -185 788 -185 788 -190 858 c 1,20,21
 -194 891 -194 891 -186 911 c 0,22,23
 -182 919 -182 919 -177 924 c 0,24,25
 -163 937 -163 937 -158 948 c 1,0,1
143 628 m 1,26,-1
 143 106 l 2,27,28
 143 68 143 68 178 68 c 0,29,30
 204 68 204 68 219 99 c 1,31,-1
 223 106 l 1,32,33
 224 83 224 83 219 65 c 0,34,35
 216 54 216 54 211 46 c 0,36,37
 205 33 205 33 194 24 c 1,38,39
 172 0 172 0 135 -1 c 0,40,41
 93 -1 93 -1 77 28 c 0,42,43
 71 37 71 37 62 62 c 1,44,45
 60 84 60 84 60 92 c 2,46,-1
 60 561 l 2,47,48
 60 591 60 591 91 601 c 0,49,50
 125 611 125 611 132 615 c 0,51,52
 137 618 137 618 143 628 c 1,26,-1
EndSplineSet
EndChar
StartChar: vowelsignO
Encoding: 2763 2763 67
Width: 248
GlyphClass: 2
Flags: W
Fore
42 564 m 1,0,1
 33 604 33 604 12 645 c 1,2,-1
 -68 793 l 1,3,4
 -105 886 -105 886 -162 882 c 0,5,6
 -165 881 -165 881 -167 881 c 2,7,-1
 -203 870 l 2,8,9
 -211 868 -211 868 -212 869 c 1,10,-1
 -210 874 l 1,11,-1
 -208 876 l 2,12,13
 -205 879 -205 879 -195 884 c 1,14,15
 -146 916 -146 916 -103 915 c 1,16,17
 -89 913 -89 913 -77 908 c 0,18,19
 -38 890 -38 890 3 804 c 1,20,21
 48 705 48 705 126 630 c 1,22,23
 121 622 121 622 114 616 c 0,24,25
 110 614 110 614 74 603 c 0,26,27
 42 594 42 594 42 564 c 1,0,1
126 629 m 1,28,-1
 127 108 l 1,29,30
 127 69 127 69 162 69 c 0,31,32
 185 69 185 69 204 100 c 1,33,-1
 207 108 l 1,34,35
 208 84 208 84 203 65 c 0,36,37
 200 55 200 55 195 47 c 0,38,39
 185 32 185 32 177 24 c 0,40,41
 159 3 159 3 119 0 c 0,42,43
 92 -1 92 -1 74 12 c 0,44,45
 65 18 65 18 58 28 c 0,46,47
 49 40 49 40 44 61 c 0,48,49
 41 78 41 78 41 93 c 1,50,-1
 42 563 l 1,51,52
 42 593 42 593 74 602 c 0,53,54
 110 613 110 613 114 615 c 0,55,56
 120 618 120 618 126 629 c 1,28,-1
EndSplineSet
EndChar
StartChar: vowelsignAU
Encoding: 2764 2764 68
Width: 262
GlyphClass: 2
Flags: W
Fore
60 563 m 1,0,1
 52 569 52 569 41 579 c 2,2,-1
 -85 698 l 1,3,4
 -218 820 -218 820 -302 811 c 0,5,6
 -305 811 -305 811 -309 810 c 2,7,-1
 -322 806 l 2,8,9
 -325 805 -325 805 -330 805 c 0,10,11
 -333 805 -333 805 -333 807 c 0,12,13
 -332 809 -332 809 -329 812 c 0,14,15
 -321 818 -321 818 -315 822 c 0,16,17
 -267 855 -267 855 -227 854 c 0,18,19
 -213 853 -213 853 -187 846 c 0,20,21
 -127 830 -127 830 -34 749 c 0,22,23
 25 698 25 698 45 693 c 1,24,-1
 37 716 l 1,25,26
 23 769 23 769 10 799 c 0,27,28
 -26 891 -26 891 -92 888 c 0,29,30
 -95 888 -95 888 -97 887 c 2,31,-1
 -134 877 l 2,32,33
 -143 875 -143 875 -143 876 c 1,34,-1
 -141 881 l 1,35,-1
 -139 882 l 2,36,37
 -137 884 -137 884 -127 890 c 0,38,39
 -73 923 -73 923 -36 922 c 1,40,-1
 -24 920 l 2,41,42
 70 900 70 900 126 710 c 1,43,-1
 143 632 l 1,44,45
 140 625 140 625 135 620 c 0,46,47
 128 612 128 612 93 601 c 0,48,49
 60 590 60 590 60 563 c 1,0,1
143 629 m 1,50,-1
 144 108 l 1,51,52
 144 69 144 69 179 69 c 0,53,54
 205 69 205 69 221 100 c 1,55,-1
 224 108 l 1,56,57
 225 84 225 84 220 64 c 0,58,59
 217 55 217 55 213 47 c 0,60,61
 205 33 205 33 195 24 c 0,62,63
 172 1 172 1 136 0 c 0,64,65
 111 -1 111 -1 94 11 c 0,66,67
 84 17 84 17 77 28 c 1,68,69
 67 40 67 40 61 61 c 1,70,71
 58 78 58 78 58 93 c 1,72,-1
 59 563 l 1,73,74
 59 592 59 592 91 602 c 0,75,76
 123 611 123 611 131 615 c 0,77,78
 137 618 137 618 143 629 c 1,50,-1
EndSplineSet
EndChar
StartChar: signhalant
Encoding: 2765 2765 69
Width: 0
GlyphClass: 4
Flags: W
AnchorPoint: "Anchor-0" -123 -36 mark 0
Fore
-50 -104 m 2,0,-1
 67 -286 l 1,1,2
 73 -299 73 -299 71 -308 c 0,3,4
 71 -310 71 -310 70 -312 c 2,5,-1
 63 -321 l 1,6,-1
 59 -323 l 2,7,8
 48 -330 48 -330 31 -316 c 0,9,10
 23 -310 23 -310 13 -299 c 1,11,-1
 -129 -109 l 1,12,13
 -150 -75 -150 -75 -144 -59 c 0,14,15
 -143 -55 -143 -55 -140 -52 c 2,16,-1
 -135 -47 l 2,17,18
 -123 -37 -123 -37 -108 -39 c 0,19,20
 -105 -39 -105 -39 -102 -40 c 0,21,22
 -96 -41 -96 -41 -91 -46 c 0,23,24
 -87 -50 -87 -50 -58 -91 c 1,25,26
 -51 -103 -51 -103 -50 -104 c 2,0,-1
EndSplineSet
EndChar
StartChar: OM
Encoding: 2768 2768 70
Width: 1119
GlyphClass: 2
Flags: W
Fore
865 865 m 1,0,1
 869 843 869 843 868 826 c 0,2,3
 868 822 868 822 867 818 c 0,4,5
 866 810 866 810 860 796 c 1,6,-1
 847 774 l 1,7,8
 822 743 822 743 797 748 c 0,9,10
 795 749 795 749 792 750 c 0,11,12
 783 752 783 752 779 755 c 0,13,14
 754 773 754 773 755 803 c 0,15,16
 756 816 756 816 764 825 c 0,17,18
 779 840 779 840 804 839 c 0,19,20
 826 838 826 838 845 849 c 0,21,22
 855 855 855 855 865 865 c 1,0,1
801 209 m 0,23,24
 824 189 824 189 858 192 c 0,25,26
 861 192 861 192 865 193 c 0,27,28
 878 195 878 195 884 198 c 1,29,30
 947 215 947 215 964 270 c 0,31,32
 970 292 970 292 969 314 c 1,33,-1
 969 318 l 1,34,35
 968 355 968 355 931 385 c 0,36,37
 899 411 899 411 860 405 c 0,38,39
 852 404 852 404 844 401 c 0,40,41
 819 394 819 394 793 375 c 1,42,43
 760 347 760 347 735 316 c 0,44,45
 633 188 633 188 571 176 c 1,46,47
 574 159 574 159 572 142 c 0,48,49
 570 130 570 130 567 120 c 0,50,51
 562 104 562 104 555 87 c 1,52,53
 511 0 511 0 391 0 c 0,54,55
 236 0 236 0 112 129 c 1,56,57
 92 147 92 147 62 185 c 1,58,59
 42 216 42 216 46 219 c 0,60,61
 48 220 48 220 52 218 c 0,62,63
 67 211 67 211 112 172 c 1,64,65
 190 101 190 101 294 77 c 1,66,67
 378 54 378 54 429 75 c 0,68,69
 453 85 453 85 469 105 c 0,70,71
 486 128 486 128 490 159 c 0,72,73
 497 200 497 200 478 232 c 0,74,75
 470 247 470 247 455 261 c 1,76,-1
 427 282 l 1,77,-1
 392 300 l 1,78,-1
 339 319 l 2,79,80
 308 329 308 329 289 332 c 0,81,82
 250 339 250 339 247 347 c 0,83,84
 246 350 246 350 249 353 c 0,85,86
 252 355 252 355 257 358 c 2,87,-1
 270 365 l 1,88,-1
 271 366 l 2,89,90
 442 436 442 436 442 520 c 1,91,-1
 441 535 l 1,92,93
 429 597 429 597 356 612 c 0,94,95
 317 621 317 621 277 614 c 0,96,97
 258 611 258 611 238 605 c 0,98,99
 216 598 216 598 175 577 c 1,100,-1
 159 566 l 1,101,102
 116 528 116 528 103 536 c 1,103,104
 102 542 102 542 110 554 c 0,105,106
 114 560 114 560 120 568 c 2,107,-1
 143 596 l 1,108,109
 188 643 188 643 274 669 c 0,110,111
 346 692 346 692 401 686 c 0,112,113
 414 684 414 684 427 681 c 0,114,115
 463 670 463 670 484 651 c 1,116,117
 529 618 529 618 547 551 c 0,118,119
 554 520 554 520 546 493 c 0,120,121
 542 478 542 478 534 464 c 0,122,123
 521 439 521 439 500 421 c 1,124,125
 447 367 447 367 362 349 c 1,126,127
 478 344 478 344 539 274 c 2,128,-1
 548 264 l 1,129,130
 571 263 571 263 594 273 c 0,131,132
 608 280 608 280 621 290 c 0,133,134
 642 306 642 306 657 326 c 1,135,-1
 727 411 l 1,136,-1
 741 426 l 1,137,138
 816 497 816 497 896 489 c 0,139,140
 903 488 903 488 909 487 c 0,141,142
 922 486 922 486 934 481 c 1,143,144
 1003 460 1003 460 1040 393 c 0,145,146
 1056 365 1056 365 1058 334 c 0,147,148
 1061 281 1061 281 1048 245 c 0,149,150
 1041 225 1041 225 1028 209 c 2,151,-1
 1009 188 l 1,152,153
 987 173 987 173 979 169 c 0,154,155
 934 145 934 145 887 150 c 0,156,157
 882 150 882 150 876 151 c 0,158,159
 850 157 850 157 838 161 c 1,160,-1
 807 175 l 1,161,-1
 796 182 l 1,162,163
 762 210 762 210 758 228 c 1,164,-1
 758 233 l 1,165,166
 761 236 761 236 763 234 c 1,167,168
 772 233 772 233 801 209 c 0,23,24
561 749 m 1,169,170
 548 792 548 792 550 817 c 0,171,172
 550 821 550 821 551 823 c 0,173,174
 553 828 553 828 558 821 c 0,175,176
 561 817 561 817 565 810 c 1,177,-1
 575 786 l 1,178,179
 635 662 635 662 764 648 c 0,180,181
 839 641 839 641 909 671 c 0,182,183
 945 686 945 686 979 711 c 0,184,185
 1020 740 1020 740 1050 778 c 1,186,-1
 1074 817 l 2,187,188
 1075 818 1075 818 1075 815 c 1,189,-1
 1073 792 l 1,190,191
 1072 789 1072 789 1071 785 c 1,192,-1
 1063 766 l 2,193,194
 1060 758 1060 758 1056 749 c 0,195,196
 997 626 997 626 884 585 c 0,197,198
 828 564 828 564 773 569 c 0,199,200
 758 571 758 571 744 574 c 0,201,202
 704 585 704 585 679 601 c 1,203,204
 596 647 596 647 561 749 c 1,169,170
EndSplineSet
EndChar
StartChar: letter_vocalicRR
Encoding: 2784 2784 71
Width: 1117
GlyphClass: 2
Flags: W
Fore
561 631 m 1,0,1
 561 545 561 545 560 376 c 1,2,3
 608 366 608 366 646 368 c 0,4,5
 653 368 653 368 659 369 c 0,6,7
 679 372 679 372 697 380 c 0,8,9
 716 387 716 387 714 397 c 0,10,11
 713 398 713 398 711 401 c 0,12,13
 676 436 676 436 687 482 c 0,14,15
 697 529 697 529 742 539 c 1,16,-1
 772 540 l 1,17,-1
 776 540 l 2,18,19
 839 532 839 532 851 481 c 1,20,-1
 855 453 l 1,21,22
 854 437 854 437 835 403 c 1,23,24
 824 388 824 388 826 373 c 0,25,26
 826 371 826 371 827 369 c 0,27,28
 829 358 829 358 835 352 c 1,29,30
 856 323 856 323 903 295 c 1,31,32
 918 284 918 284 916 268 c 0,33,34
 916 266 916 266 915 264 c 0,35,36
 914 262 914 262 908 251 c 1,37,-1
 894 237 l 1,38,-1
 870 224 l 1,39,-1
 868 223 l 2,40,41
 831 209 831 209 807 164 c 0,42,43
 791 131 791 131 794 107 c 0,44,45
 795 102 795 102 796 98 c 0,46,47
 801 83 801 83 813 74 c 1,48,49
 831 53 831 53 877 50 c 0,50,51
 914 47 914 47 979 91 c 0,52,53
 1010 111 1010 111 1047 142 c 1,54,55
 1066 165 1066 165 1071 166 c 1,56,-1
 1048 134 l 1,57,-1
 1028 111 l 2,58,59
 974 47 974 47 925 20 c 1,60,61
 882 0 882 0 831 0 c 0,62,63
 771 0 771 0 733 47 c 0,64,65
 700 88 700 88 706 130 c 0,66,67
 708 140 l 0,68,69
 711 157 711 157 720 174 c 0,70,71
 738 207 738 207 773 236 c 1,72,-1
 806 260 l 1,73,74
 816 270 816 270 810 282 c 0,75,76
 807 288 807 288 798 296 c 1,77,-1
 751 346 l 1,78,79
 716 319 716 319 638 323 c 0,80,81
 631 323 631 323 623 324 c 0,82,83
 597 325 597 325 561 335 c 1,84,-1
 561 108 l 2,85,86
 561 69 561 69 596 69 c 0,87,88
 620 69 620 69 638 100 c 1,89,-1
 641 108 l 1,90,91
 642 84 642 84 637 65 c 0,92,93
 634 55 634 55 629 47 c 0,94,95
 623 36 623 36 611 24 c 2,96,-1
 595 10 l 1,97,-1
 571 2 l 1,98,99
 559 0 559 0 553 0 c 0,100,101
 512 -1 512 -1 493 27 c 0,102,103
 484 41 484 41 480 63 c 1,104,105
 478 85 478 85 478 93 c 0,106,107
 478 139 478 139 477 227 c 1,108,109
 464 230 464 230 437 215 c 0,110,111
 420 206 420 206 399 191 c 0,112,113
 358 163 358 163 334 140 c 1,114,-1
 272 90 l 2,115,116
 227 53 227 53 155 50 c 1,117,-1
 116 52 l 1,118,-1
 99 55 l 1,119,-1
 98 55 l 2,120,121
 71 63 71 63 79 68 c 0,122,123
 82 71 82 71 91 72 c 0,124,125
 97 73 97 73 105 73 c 0,126,127
 154 72 154 72 190 89 c 0,128,129
 206 97 206 97 221 109 c 0,130,131
 248 133 248 133 302 198 c 0,132,133
 337 239 337 239 401 271 c 1,134,-1
 462 305 l 2,135,136
 477 314 477 314 474 330 c 1,137,138
 472 334 472 334 468 339 c 1,139,-1
 456 347 l 1,140,141
 423 362 423 362 355 424 c 0,142,143
 290 483 290 483 244 498 c 0,144,145
 219 506 219 506 194 505 c 0,146,147
 191 504 191 504 188 504 c 0,148,149
 109 494 109 494 109 433 c 0,150,151
 109 402 109 402 126 374 c 1,152,153
 133 360 133 360 147 346 c 0,154,155
 163 332 163 332 170 329 c 0,156,157
 185 320 185 320 183 315 c 1,158,-1
 178 315 l 1,159,-1
 150 319 l 1,160,161
 142 323 142 323 138 324 c 0,162,163
 84 344 84 344 57 402 c 1,164,165
 39 446 39 446 50 481 c 0,166,167
 56 500 56 500 70 516 c 0,168,169
 105 559 105 559 191 562 c 0,170,171
 242 563 242 563 296 533 c 0,172,173
 323 518 323 518 351 496 c 2,174,-1
 432 432 l 1,175,176
 457 414 457 414 477 406 c 1,177,-1
 478 562 l 1,178,179
 478 593 478 593 512 603 c 0,180,181
 546 614 546 614 553 620 c 0,182,183
 558 625 558 625 561 631 c 1,0,1
EndSplineSet
EndChar
StartChar: uni0AE1
Encoding: 2785 2785 72
Width: 875
GlyphClass: 2
Flags: W
Fore
602 629 m 0,0,1
 654 602 654 602 659 554 c 1,2,3
 662 538 662 538 656 522 c 0,4,5
 653 514 653 514 649 507 c 0,6,7
 641 487 641 487 642 486 c 0,8,9
 644 481 644 481 683 474 c 0,10,11
 729 465 729 465 770 416 c 1,12,13
 811 362 811 362 807 291 c 0,14,15
 806 287 806 287 806 283 c 1,16,-1
 804 266 l 2,17,18
 797 204 797 204 760 202 c 1,19,-1
 739 206 l 1,20,21
 702 220 702 220 663 215 c 0,22,23
 644 213 644 213 623 206 c 1,24,25
 566 183 566 183 558 141 c 0,26,27
 555 128 555 128 558 111 c 1,28,29
 573 63 573 63 635 70 c 0,30,31
 640 71 640 71 646 72 c 0,32,33
 656 73 656 73 672 77 c 0,34,35
 688 80 688 80 716 91 c 0,36,37
 745 103 745 103 761 101 c 1,38,-1
 765 99 l 1,39,-1
 766 98 l 2,40,41
 768 95 768 95 766 92 c 0,42,43
 764 90 764 90 759 87 c 2,44,-1
 744 78 l 2,45,46
 737 74 737 74 724 69 c 2,47,-1
 642 41 l 1,48,49
 590 18 590 18 586 -46 c 1,50,51
 587 -91 587 -91 630 -114 c 1,52,53
 667 -130 667 -130 708 -114 c 0,54,55
 729 -105 729 -105 752 -87 c 0,56,57
 768 -74 768 -74 780 -60 c 2,58,-1
 819 -18 l 1,59,60
 830 -8 830 -8 827 -19 c 0,61,62
 826 -26 826 -26 820 -38 c 2,63,-1
 816 -45 l 2,64,65
 747 -179 747 -179 649 -176 c 2,66,-1
 644 -176 l 2,67,68
 533 -164 533 -164 528 -80 c 0,69,70
 526 -43 526 -43 541 -11 c 0,71,72
 548 5 548 5 560 20 c 1,73,74
 562 25 562 25 570 33 c 1,75,76
 507 58 507 58 488 85 c 0,77,78
 477 102 477 102 477 126 c 0,79,80
 479 182 479 182 551 223 c 0,81,82
 611 258 611 258 668 255 c 0,83,84
 674 255 l 2,85,-1
 686 253 l 1,86,-1
 697 251 l 2,87,88
 713 247 713 247 722 252 c 0,89,90
 726 255 726 255 729 260 c 0,91,92
 733 268 733 268 733 286 c 0,93,94
 733 301 733 301 729 314 c 0,95,96
 705 406 705 406 609 413 c 1,97,-1
 570 413 l 1,98,-1
 557 411 l 2,99,100
 480 396 480 396 443 303 c 0,101,102
 443 302 443 302 427 255 c 1,103,-1
 398 332 l 1,104,105
 371 392 371 392 323 408 c 1,106,107
 308 411 308 411 293 411 c 0,108,109
 213 410 213 410 168 339 c 0,110,111
 135 289 135 289 142 231 c 0,112,113
 143 220 143 220 146 208 c 0,114,115
 170 122 170 122 231 67 c 1,116,117
 266 32 266 32 311 12 c 1,118,-1
 341 2 l 2,119,120
 344 1 344 1 340 1 c 0,121,122
 338 0 338 0 332 0 c 2,123,-1
 308 2 l 1,124,-1
 303 3 l 2,125,126
 183 16 183 16 109 111 c 1,127,128
 67 162 67 162 54 227 c 1,129,130
 33 319 33 319 68 382 c 0,131,132
 87 415 87 415 122 440 c 0,133,134
 183 485 183 485 260 484 c 2,135,-1
 265 484 l 2,136,137
 330 486 330 486 370 460 c 0,138,139
 389 448 389 448 404 426 c 0,140,141
 413 413 413 413 429 382 c 1,142,143
 441 445 441 445 515 478 c 1,144,145
 520 482 520 482 526 483 c 1,146,147
 574 501 574 501 584 543 c 1,148,-1
 586 557 l 1,149,150
 585 592 585 592 552 617 c 0,151,152
 539 627 539 627 523 629 c 1,153,-1
 525 640 l 1,154,155
 530 650 530 650 550 648 c 0,156,157
 556 647 556 647 564 645 c 0,158,159
 582 640 582 640 602 629 c 0,0,1
EndSplineSet
EndChar
StartChar: uni0AE2
Encoding: 2786 2786 73
Width: 474
GlyphClass: 2
Flags: W
AnchorPoint: "Anchor-0" 329 2 basechar 0
Fore
427 -114 m 0,0,1
 421 -143 421 -143 402 -143 c 1,2,-1
 393 -141 l 2,3,4
 373 -134 373 -134 354 -136 c 0,5,6
 351 -136 351 -136 348 -137 c 0,7,8
 338 -138 338 -138 325 -145 c 0,9,10
 308 -154 308 -154 304 -166 c 0,11,12
 302 -176 302 -176 302 -180 c 0,13,14
 303 -181 303 -181 303 -185 c 0,15,16
 309 -207 309 -207 341 -205 c 0,17,18
 344 -204 344 -204 347 -204 c 2,19,-1
 360 -202 l 1,20,-1
 382 -195 l 1,21,22
 400 -187 400 -187 407 -190 c 1,23,24
 408 -193 408 -193 405 -196 c 2,25,-1
 399 -200 l 2,26,27
 396 -202 396 -202 386 -206 c 2,28,-1
 341 -219 l 1,29,30
 318 -230 318 -230 316 -257 c 1,31,32
 318 -283 318 -283 345 -291 c 0,33,34
 360 -294 360 -294 373 -290 c 0,35,36
 382 -288 382 -288 391 -282 c 0,37,38
 403 -275 403 -275 414 -264 c 0,39,40
 436 -239 436 -239 438 -244 c 1,41,-1
 432 -257 l 1,42,43
 396 -318 396 -318 346 -317 c 1,44,45
 289 -311 289 -311 289 -267 c 1,46,47
 291 -236 291 -236 309 -220 c 1,48,49
 266 -206 266 -206 263 -184 c 1,50,-1
 263 -178 l 2,51,52
 263 -149 263 -149 309 -129 c 0,53,54
 338 -118 338 -118 364 -119 c 1,55,-1
 374 -121 l 2,56,57
 380 -123 380 -123 384 -121 c 0,58,59
 387 -120 387 -120 389 -117 c 0,60,61
 391 -111 391 -111 391 -104 c 1,62,-1
 388 -92 l 2,63,64
 377 -52 377 -52 334 -43 c 0,65,66
 319 -40 319 -40 304 -43 c 0,67,68
 299 -45 299 -45 293 -47 c 0,69,70
 270 -58 270 -58 243 -130 c 1,71,72
 223 -84 223 -84 215 -72 c 0,73,74
 197 -44 197 -44 169 -44 c 0,75,76
 122 -45 122 -45 100 -88 c 0,77,78
 92 -105 92 -105 94 -125 c 0,79,80
 96 -137 l 0,81,82
 108 -183 108 -183 154 -214 c 0,83,84
 167 -222 167 -222 179 -226 c 2,85,-1
 194 -231 l 2,86,87
 195 -232 195 -232 186 -232 c 2,88,-1
 174 -231 l 2,89,90
 100 -223 100 -223 65 -166 c 0,91,92
 56 -153 56 -153 50 -128 c 0,93,94
 38 -81 38 -81 62 -50 c 0,95,96
 74 -34 74 -34 96 -23 c 0,97,98
 125 -7 125 -7 157 -8 c 1,99,100
 195 -5 195 -5 221 -35 c 0,101,102
 233 -50 233 -50 243 -72 c 1,103,104
 260 -33 260 -33 287 -16 c 1,105,106
 318 -1 318 -1 345 -5 c 0,107,108
 352 -6 352 -6 358 -8 c 0,109,110
 378 -14 378 -14 391 -28 c 1,111,112
 430 -58 430 -58 427 -109 c 0,113,114
 427 -112 427 -112 427 -114 c 0,0,1
EndSplineSet
EndChar
StartChar: uni0AE3
Encoding: 2787 2787 74
Width: 578
GlyphClass: 2
Flags: W
AnchorPoint: "Anchor-0" 356 10 basechar 0
Fore
496 -118 m 0,0,1
 490 -154 490 -154 464 -151 c 2,2,-1
 457 -150 l 1,3,4
 430 -140 430 -140 405 -146 c 0,5,6
 391 -149 391 -149 379 -157 c 1,7,8
 352 -170 352 -170 351 -194 c 0,9,10
 350 -214 350 -214 370 -224 c 0,11,12
 380 -228 380 -228 396 -231 c 1,13,-1
 421 -232 l 1,14,15
 473 -231 473 -231 509 -202 c 1,16,-1
 532 -176 l 1,17,18
 536 -175 536 -175 536 -177 c 1,19,-1
 535 -181 l 1,20,-1
 529 -191 l 1,21,22
 500 -250 500 -250 421 -258 c 0,23,24
 396 -261 396 -261 375 -256 c 0,25,26
 364 -254 364 -254 353 -249 c 0,27,28
 342 -245 342 -245 324 -230 c 1,29,30
 298 -212 298 -212 301 -184 c 1,31,-1
 301 -180 l 1,32,33
 314 -129 314 -129 377 -118 c 1,34,-1
 406 -116 l 1,35,-1
 408 -116 l 2,36,37
 413 -116 413 -116 423 -118 c 0,38,39
 435 -121 435 -121 442 -119 c 0,40,41
 445 -118 445 -118 447 -116 c 0,42,43
 452 -112 452 -112 452 -103 c 1,44,-1
 451 -92 l 1,45,46
 434 -38 434 -38 361 -40 c 0,47,48
 353 -40 353 -40 349 -41 c 0,49,50
 302 -47 302 -47 279 -103 c 1,51,-1
 271 -124 l 1,52,-1
 252 -78 l 1,53,54
 232 -43 232 -43 191 -41 c 1,55,56
 135 -43 135 -43 113 -88 c 1,57,58
 99 -107 99 -107 101 -129 c 0,59,60
 101 -133 101 -133 102 -136 c 0,61,62
 102 -140 102 -140 104 -148 c 0,63,64
 122 -202 122 -202 168 -232 c 1,65,66
 187 -246 187 -246 203 -252 c 2,67,-1
 220 -257 l 1,68,69
 217 -258 217 -258 213 -258 c 2,70,-1
 199 -256 l 2,71,72
 113 -249 113 -249 71 -184 c 1,73,74
 54 -163 54 -163 50 -138 c 1,75,76
 36 -85 36 -85 62 -50 c 0,77,78
 75 -33 75 -33 99 -19 c 1,79,80
 135 -1 135 -1 175 -2 c 1,81,82
 215 -1 215 -1 240 -17 c 0,83,84
 254 -26 254 -26 262 -40 c 0,85,86
 264 -42 264 -42 272 -56 c 1,87,88
 301 -12 301 -12 331 -3 c 0,89,90
 347 2 347 2 370 1 c 0,91,92
 375 1 375 1 381 0 c 0,93,94
 395 -2 395 -2 413 -6 c 0,95,96
 500 -31 500 -31 497 -104 c 0,97,98
 497 -114 497 -114 496 -118 c 0,0,1
EndSplineSet
EndChar
StartChar: sign_purnavirama
Encoding: 2788 2788 75
Width: 248
GlyphClass: 2
Flags: W
Fore
126 629 m 1,0,-1
 127 108 l 1,1,2
 127 69 127 69 162 69 c 0,3,4
 185 69 185 69 204 100 c 1,5,-1
 207 108 l 1,6,7
 208 84 208 84 203 65 c 0,8,9
 200 55 200 55 195 47 c 0,10,11
 185 32 185 32 177 24 c 0,12,13
 159 3 159 3 119 0 c 0,14,15
 92 -1 92 -1 74 12 c 0,16,17
 65 18 65 18 58 28 c 0,18,19
 49 40 49 40 44 61 c 0,20,21
 41 78 41 78 41 93 c 1,22,-1
 42 563 l 1,23,24
 42 593 42 593 74 602 c 0,25,26
 110 613 110 613 114 615 c 0,27,28
 120 618 120 618 126 629 c 1,0,-1
EndSplineSet
EndChar
StartChar: sign_deerghvirama
Encoding: 2789 2789 76
Width: 490
GlyphClass: 2
Flags: W
Fore
356 629 m 1,0,-1
 357 108 l 1,1,2
 357 69 357 69 392 69 c 0,3,4
 418 69 418 69 434 100 c 1,5,-1
 437 108 l 1,6,7
 438 84 438 84 433 64 c 0,8,9
 430 55 430 55 426 47 c 0,10,11
 418 33 418 33 408 24 c 1,12,13
 388 3 388 3 349 0 c 0,14,15
 323 -1 323 -1 306 11 c 0,16,17
 297 17 297 17 290 27 c 0,18,19
 281 39 281 39 274 61 c 1,20,21
 271 79 271 79 271 93 c 1,22,-1
 272 563 l 1,23,24
 272 593 272 593 304 602 c 0,25,26
 341 612 341 612 344 615 c 0,27,28
 351 619 351 619 356 629 c 1,0,-1
126 629 m 1,29,-1
 127 108 l 1,30,31
 127 69 127 69 162 69 c 0,32,33
 185 69 185 69 204 100 c 1,34,-1
 207 108 l 1,35,36
 208 84 208 84 203 65 c 0,37,38
 200 55 200 55 195 47 c 0,39,40
 185 32 185 32 177 24 c 0,41,42
 159 3 159 3 119 0 c 0,43,44
 92 -1 92 -1 74 12 c 0,45,46
 65 18 65 18 58 27 c 0,47,48
 49 41 49 41 44 61 c 0,49,50
 41 79 41 79 41 93 c 1,51,-1
 42 563 l 1,52,53
 42 593 42 593 74 602 c 0,54,55
 112 613 112 613 114 615 c 0,56,57
 121 619 121 619 126 629 c 1,29,-1
EndSplineSet
EndChar
StartChar: digit_zero
Encoding: 2790 2790 77
Width: 649
GlyphClass: 2
Flags: W
Fore
317 525 m 0,0,1
 281 526 281 526 252 511 c 0,2,3
 236 503 236 503 221 490 c 0,4,5
 198 472 198 472 181 445 c 0,6,7
 142 386 142 386 142 325 c 0,8,9
 142 206 142 206 219 147 c 1,10,11
 267 113 267 113 329 115 c 0,12,13
 332 115 332 115 334 115 c 0,14,15
 418 120 418 120 463 212 c 1,16,17
 486 265 486 265 488 323 c 0,18,19
 489 384 489 384 464 432 c 0,20,21
 451 456 451 456 431 477 c 0,22,23
 386 523 386 523 317 525 c 0,0,1
322 578 m 0,24,25
 367 579 367 579 407 565 c 0,26,27
 427 558 427 558 445 547 c 0,28,29
 471 532 471 532 500 505 c 0,30,31
 574 433 574 433 577 329 c 0,32,33
 578 275 578 275 562 229 c 0,34,35
 554 207 554 207 542 186 c 0,36,37
 518 148 518 148 494 127 c 1,38,39
 433 68 433 68 354 53 c 0,40,41
 285 41 285 41 223 68 c 0,42,43
 189 82 189 82 158 108 c 1,44,45
 66 180 66 180 50 287 c 0,46,47
 47 311 47 311 47 336 c 2,48,-1
 47 341 l 1,49,50
 51 438 51 438 140 511 c 1,51,52
 222 576 222 576 322 578 c 0,24,25
EndSplineSet
EndChar
StartChar: digit_one
Encoding: 2791 2791 78
Width: 501
GlyphClass: 2
Flags: W
Fore
318 475 m 2,0,1
 318 543 318 543 262 568 c 1,2,3
 240 581 240 581 212 579 c 0,4,5
 206 579 l 0,6,7
 139 571 139 571 121 520 c 0,8,9
 114 501 114 501 116 484 c 0,10,11
 117 475 117 475 119 468 c 1,12,-1
 130 447 l 1,13,-1
 133 444 l 2,14,15
 159 417 159 417 196 426 c 0,16,17
 212 429 212 429 230 439 c 0,18,19
 238 443 238 443 247 449 c 2,20,-1
 270 467 l 1,21,22
 280 473 280 473 277 462 c 0,23,24
 275 454 275 454 264 435 c 0,25,26
 229 375 229 375 161 376 c 0,27,28
 96 378 96 378 67 420 c 1,29,30
 50 440 50 440 45 480 c 1,31,-1
 45 484 l 1,32,33
 44 517 44 517 52 540 c 0,34,35
 56 550 56 550 62 559 c 1,36,37
 77 576 77 576 96 592 c 1,38,39
 147 629 147 629 216 629 c 0,40,41
 307 629 307 629 361 573 c 2,42,-1
 381 551 l 1,43,-1
 393 524 l 1,44,45
 399 508 399 508 399 487 c 2,46,-1
 399 88 l 2,47,48
 399 55 399 55 428 55 c 0,49,50
 448 55 448 55 462 81 c 2,51,-1
 466 88 l 1,52,53
 467 58 467 58 454 36 c 0,54,55
 449 27 449 27 440 18 c 1,56,-1
 424 7 l 1,57,58
 410 0 410 0 392 0 c 0,59,60
 360 -1 360 -1 342 18 c 1,61,62
 331 28 331 28 325 45 c 0,63,64
 318 62 318 62 318 77 c 2,65,-1
 318 475 l 2,0,1
EndSplineSet
EndChar
StartChar: digit_two
Encoding: 2792 2792 79
Width: 641
GlyphClass: 2
Flags: W
Fore
272 195 m 0,0,1
 275 196 275 196 274 200 c 0,2,3
 274 203 274 203 272 207 c 0,4,5
 271 210 271 210 265 220 c 0,6,7
 254 237 254 237 238 248 c 0,8,9
 215 262 215 262 185 259 c 0,10,11
 181 259 181 259 176 258 c 0,12,13
 148 253 148 253 147 228 c 0,14,15
 146 208 146 208 159 198 c 1,16,17
 168 189 168 189 177 185 c 0,18,19
 196 178 196 178 218 180 c 0,20,21
 226 181 226 181 234 183 c 0,22,23
 252 186 252 186 272 195 c 0,0,1
496 523 m 0,24,25
 530 471 530 471 524 408 c 0,26,27
 522 392 l 0,28,29
 517 363 517 363 505 334 c 0,30,31
 461 230 461 230 347 166 c 0,32,33
 339 161 339 161 346 143 c 1,34,35
 351 134 351 134 359 121 c 0,36,37
 396 63 396 63 452 49 c 0,38,39
 479 43 479 43 505 50 c 0,40,41
 518 54 518 54 531 61 c 0,42,43
 554 76 554 76 570 93 c 0,44,45
 575 98 575 98 573 94 c 1,46,-1
 561 80 l 2,47,48
 498 8 498 8 436 -1 c 0,49,50
 410 -4 410 -4 387 5 c 0,51,52
 374 10 374 10 362 18 c 1,53,54
 332 43 332 43 302 115 c 0,55,56
 290 144 290 144 281 146 c 1,57,58
 222 121 222 121 169 125 c 0,59,60
 155 127 l 0,61,62
 128 131 128 131 105 141 c 1,63,64
 51 169 51 169 47 211 c 1,65,-1
 47 224 l 1,66,67
 55 282 55 282 114 302 c 0,68,69
 159 318 159 318 203 306 c 0,70,71
 227 300 227 300 250 286 c 1,72,73
 290 257 290 257 311 224 c 0,74,75
 315 218 315 218 324 222 c 0,76,77
 329 224 329 224 335 229 c 0,78,79
 344 238 344 238 354 251 c 0,80,81
 407 316 407 316 418 394 c 0,82,83
 421 422 421 422 417 444 c 0,84,85
 415 456 415 456 411 468 c 0,86,87
 408 476 408 476 395 498 c 1,88,89
 341 577 341 577 261 573 c 0,90,91
 258 573 258 573 256 573 c 0,92,93
 252 573 252 573 250 572 c 0,94,95
 190 567 190 567 165 529 c 1,96,97
 148 509 148 509 153 491 c 0,98,99
 154 487 154 487 157 483 c 0,100,101
 162 472 162 472 174 463 c 0,102,103
 184 454 184 454 203 447 c 0,104,105
 204 446 204 446 201 445 c 0,106,107
 199 444 199 444 195 443 c 2,108,-1
 181 439 l 2,109,110
 148 430 148 430 124 434 c 0,111,112
 112 437 112 437 102 442 c 0,113,114
 89 449 89 449 78 467 c 0,115,116
 74 472 74 472 73 478 c 1,117,118
 56 515 56 515 80 549 c 0,119,120
 91 566 91 566 113 582 c 0,121,122
 182 633 182 633 285 632 c 0,123,124
 418 632 418 632 488 535 c 0,125,126
 490 531 490 531 496 523 c 0,24,25
EndSplineSet
EndChar
StartChar: digit_three
Encoding: 2793 2793 80
Width: 683
GlyphClass: 2
Flags: W
Fore
390 632 m 0,0,1
 450 633 450 633 494 615 c 0,2,3
 515 606 515 606 534 592 c 1,4,5
 546 581 546 581 558 566 c 0,6,7
 565 559 565 559 570 549 c 1,8,9
 593 513 593 513 589 476 c 0,10,11
 588 472 588 472 587 467 c 0,12,13
 584 447 584 447 572 427 c 1,14,15
 540 365 540 365 465 352 c 1,16,17
 594 324 594 324 633 237 c 0,18,19
 655 187 655 187 642 141 c 0,20,21
 635 117 635 117 618 93 c 0,22,23
 564 13 564 13 440 1 c 0,24,25
 413 -2 413 -2 379 0 c 0,26,27
 367 1 367 1 353 2 c 0,28,29
 192 20 192 20 108 140 c 0,30,31
 56 215 56 215 47 312 c 0,32,33
 45 338 45 338 48 344 c 0,34,35
 50 347 50 347 52 346 c 2,36,-1
 67 335 l 1,37,-1
 75 304 l 1,38,39
 100 225 100 225 163 162 c 0,40,41
 171 154 171 154 176 148 c 1,42,43
 255 76 255 76 339 60 c 1,44,-1
 361 58 l 2,45,46
 391 57 391 57 415 61 c 0,47,48
 431 64 431 64 444 69 c 0,49,50
 468 76 468 76 488 88 c 0,51,52
 553 129 553 129 551 195 c 0,53,54
 549 240 549 240 508 275 c 0,55,56
 463 315 463 315 377 323 c 1,57,-1
 336 322 l 2,58,59
 334 321 334 321 332 321 c 0,60,61
 319 318 319 318 312 325 c 0,62,63
 310 328 310 328 308 334 c 1,64,-1
 308 341 l 1,65,-1
 309 342 l 2,66,67
 313 348 313 348 323 350 c 0,68,69
 490 380 490 380 496 470 c 1,70,-1
 494 496 l 1,71,72
 490 510 l 0,73,74
 488 517 488 517 482 531 c 0,75,76
 460 578 460 578 398 585 c 0,77,78
 371 588 371 588 353 584 c 0,79,80
 341 582 341 582 332 577 c 0,81,82
 317 568 317 568 307 558 c 1,83,-1
 301 549 l 1,84,85
 290 526 290 526 295 510 c 0,86,87
 298 501 298 501 306 493 c 0,88,89
 318 481 318 481 342 472 c 1,90,91
 293 450 293 450 262 459 c 0,92,93
 245 464 245 464 233 477 c 0,94,95
 215 499 215 499 218 524 c 0,96,97
 218 528 218 528 219 531 c 0,98,99
 220 540 220 540 226 554 c 0,100,101
 261 628 261 628 390 632 c 0,0,1
EndSplineSet
EndChar
StartChar: digit_four
Encoding: 2794 2794 81
Width: 647
GlyphClass: 2
Flags: W
Fore
272 285 m 1,0,1
 193 245 193 245 172 195 c 0,2,3
 156 155 156 155 186 118 c 0,4,5
 202 98 202 98 230 80 c 0,6,7
 262 59 262 59 308 62 c 0,8,9
 313 62 313 62 318 63 c 0,10,11
 326 65 326 65 344 69 c 0,12,13
 420 83 420 83 433 127 c 0,14,15
 438 141 438 141 434 158 c 0,16,17
 432 166 432 166 429 173 c 0,18,19
 425 183 425 183 413 200 c 0,20,21
 371 254 371 254 295 278 c 2,22,-1
 272 285 l 1,0,1
333 579 m 1,23,24
 301 606 301 606 259 598 c 0,25,26
 245 595 245 595 230 588 c 0,27,28
 184 566 184 566 167 525 c 0,29,30
 154 493 154 493 161 463 c 0,31,32
 164 448 164 448 173 432 c 0,33,34
 186 408 186 408 211 387 c 1,35,36
 243 357 243 357 296 334 c 0,37,38
 307 329 307 329 337 340 c 0,39,40
 355 347 355 347 379 360 c 0,41,42
 476 416 476 416 514 489 c 1,43,44
 535 535 535 535 524 579 c 0,45,46
 518 600 518 600 506 620 c 0,47,48
 485 652 485 652 444 682 c 1,49,50
 537 670 537 670 579 596 c 0,51,52
 604 553 604 553 600 511 c 0,53,54
 600 506 600 506 599 501 c 0,55,56
 595 483 595 483 589 472 c 0,57,58
 537 363 537 363 361 313 c 2,59,-1
 356 311 l 1,60,61
 495 282 495 282 527 209 c 0,62,63
 539 184 539 184 536 156 c 0,64,65
 534 143 534 143 529 129 c 0,66,67
 520 101 520 101 507 82 c 0,68,69
 457 6 457 6 331 0 c 0,70,71
 255 -3 255 -3 191 18 c 0,72,73
 157 29 157 29 127 47 c 0,74,75
 45 99 45 99 50 165 c 0,76,77
 50 168 50 168 50 170 c 0,78,79
 50 175 50 175 51 178 c 0,80,81
 65 249 65 249 155 286 c 0,82,83
 182 297 182 297 214 304 c 1,84,85
 32 391 32 391 48 494 c 0,86,87
 49 500 49 500 50 505 c 0,88,89
 51 509 51 509 58 525 c 0,90,91
 80 569 80 569 123 602 c 0,92,93
 148 621 148 621 205 630 c 0,94,95
 269 640 269 640 304 614 c 0,96,97
 322 601 322 601 333 579 c 1,23,24
EndSplineSet
EndChar
StartChar: digit_five
Encoding: 2795 2795 82
Width: 692
GlyphClass: 2
Flags: W
Fore
232 539 m 2,0,-1
 232 339 l 1,1,2
 234 268 234 268 290 233 c 0,3,4
 321 214 321 214 345 214 c 0,5,6
 367 213 367 213 387 217 c 0,7,8
 398 220 398 220 408 224 c 0,9,10
 427 231 427 231 438 242 c 1,11,12
 478 267 478 267 484 297 c 1,13,-1
 484 561 l 1,14,-1
 487 578 l 1,15,16
 495 595 495 595 526 604 c 0,17,18
 560 613 560 613 566 629 c 1,19,-1
 566 108 l 2,20,21
 566 71 566 71 601 69 c 0,22,23
 606 69 606 69 616 71 c 0,24,25
 631 76 631 76 646 108 c 1,26,27
 649 90 649 90 644 72 c 0,28,29
 642 63 642 63 637 53 c 0,30,31
 613 1 613 1 558 0 c 0,32,33
 484 0 484 0 484 93 c 2,34,-1
 484 253 l 1,35,-1
 480 245 l 1,36,37
 431 169 431 169 324 159 c 1,38,39
 306 159 306 159 268 171 c 1,40,41
 157 214 157 214 151 322 c 1,42,-1
 151 539 l 1,43,44
 152 563 152 563 140 578 c 1,45,-1
 128 590 l 1,46,-1
 127 591 l 2,47,48
 113 600 113 600 95 597 c 0,49,50
 89 596 89 596 83 594 c 0,51,52
 74 590 74 590 58 579 c 1,53,54
 50 571 50 571 45 571 c 0,55,56
 42 572 42 572 46 580 c 0,57,58
 47 582 47 582 52 591 c 1,59,60
 84 628 84 628 126 629 c 0,61,62
 232 629 232 629 232 539 c 2,0,-1
EndSplineSet
EndChar
StartChar: digit_six
Encoding: 2796 2796 83
Width: 579
GlyphClass: 2
Flags: W
Fore
541 70 m 0,0,1
 537 88 537 88 501 112 c 1,2,3
 447 143 447 143 368 134 c 0,4,5
 347 132 347 132 324 127 c 0,6,7
 273 115 273 115 252 116 c 0,8,9
 200 119 200 119 178 167 c 0,10,11
 163 200 163 200 172 225 c 0,12,13
 176 237 176 237 185 248 c 1,14,15
 205 265 205 265 232 275 c 1,16,17
 271 292 271 292 378 305 c 1,18,19
 402 310 402 310 402 324 c 1,20,21
 394 340 394 340 375 341 c 0,22,23
 286 341 286 341 234 352 c 0,24,25
 146 373 146 373 136 425 c 0,26,27
 134 435 134 435 134 442 c 0,28,29
 133 466 133 466 154 484 c 0,30,31
 164 493 164 493 181 502 c 0,32,33
 186 505 186 505 221 519 c 0,34,35
 264 534 264 534 321 534 c 0,36,37
 324 534 324 534 326 532 c 1,38,39
 371 532 371 532 392 540 c 0,40,41
 406 544 406 544 422 558 c 1,42,43
 432 569 432 569 429 585 c 0,44,45
 427 593 427 593 422 602 c 0,46,47
 405 630 405 630 358 635 c 1,48,-1
 344 635 l 1,49,50
 334 630 334 630 336 625 c 0,51,52
 336 623 336 623 338 621 c 1,53,54
 376 604 376 604 376 586 c 0,55,56
 375 565 375 565 322 569 c 0,57,58
 316 569 316 569 308 570 c 0,59,60
 265 573 265 573 228 570 c 0,61,62
 211 568 211 568 195 565 c 0,63,64
 171 560 171 560 143 550 c 1,65,66
 57 511 57 511 51 455 c 1,67,-1
 51 444 l 2,68,69
 51 397 51 397 90 364 c 0,70,71
 131 331 131 331 190 313 c 1,72,-1
 162 300 l 1,73,74
 73 250 73 250 86 185 c 0,75,76
 90 171 l 0,77,78
 93 163 93 163 102 145 c 0,79,80
 106 138 106 138 109 135 c 0,81,82
 160 69 160 69 254 71 c 1,83,84
 271 73 271 73 272 73 c 0,85,86
 362 97 362 97 417 90 c 0,87,88
 440 87 440 87 456 78 c 0,89,90
 470 71 470 71 476 58 c 2,91,-1
 480 50 l 1,92,93
 490 17 490 17 459 1 c 0,94,95
 444 -7 444 -7 417 -12 c 0,96,97
 385 -17 385 -17 365 -16 c 1,98,-1
 333 -17 l 2,99,100
 328 -18 328 -18 325 -20 c 1,101,-1
 323 -26 l 1,102,103
 329 -37 329 -37 381 -36 c 0,104,105
 383 -36 383 -36 386 -36 c 0,106,107
 418 -36 418 -36 460 -28 c 1,108,109
 513 -14 513 -14 535 18 c 1,110,111
 547 41 547 41 543 61 c 0,112,113
 542 66 542 66 541 70 c 0,0,1
EndSplineSet
EndChar
StartChar: digit_seven
Encoding: 2797 2797 84
Width: 726
GlyphClass: 2
Flags: W
Fore
507 477 m 0,0,1
 512 446 512 446 505 422 c 0,2,3
 501 410 501 410 494 398 c 1,4,-1
 477 378 l 1,5,-1
 466 367 l 1,6,7
 432 340 432 340 389 340 c 0,8,9
 345 339 345 339 311 364 c 0,10,11
 294 377 294 377 280 397 c 0,12,13
 253 435 253 435 254 485 c 1,14,-1
 254 490 l 1,15,16
 260 566 260 566 326 606 c 0,17,18
 365 630 365 630 419 629 c 0,19,20
 424 629 424 629 426 628 c 0,21,22
 547 618 547 618 621 516 c 0,23,24
 679 435 679 435 678 331 c 1,25,26
 674 187 674 187 585 91 c 1,27,-1
 555 62 l 1,28,29
 480 0 480 0 374 0 c 0,30,31
 237 0 237 0 135 129 c 0,32,33
 73 206 73 206 50 300 c 0,34,35
 47 311 47 311 48 320 c 0,36,37
 48 325 48 325 50 329 c 0,38,39
 53 334 53 334 60 327 c 0,40,41
 65 323 65 323 71 315 c 0,42,43
 150 199 150 199 214 152 c 0,44,45
 298 90 298 90 384 90 c 0,46,47
 451 89 451 89 505 126 c 0,48,49
 531 144 531 144 554 171 c 0,50,51
 615 241 615 241 615 335 c 0,52,53
 615 433 615 433 543 492 c 0,54,55
 496 530 496 530 430 536 c 0,56,57
 401 538 401 538 375 522 c 0,58,59
 365 516 365 516 354 506 c 1,60,61
 335 483 335 483 338 462 c 1,62,63
 351 408 351 408 398 403 c 1,64,65
 427 402 427 402 448 417 c 0,66,67
 458 425 458 425 467 437 c 0,68,69
 482 460 482 460 482 487 c 1,70,-1
 485 508 l 1,71,-1
 487 512 l 2,72,73
 490 516 490 516 493 515 c 0,74,75
 495 514 495 514 497 511 c 1,76,-1
 502 495 l 2,77,78
 506 482 506 482 507 477 c 0,0,1
EndSplineSet
EndChar
StartChar: digit_eight
Encoding: 2798 2798 85
Width: 576
GlyphClass: 2
Flags: W
Fore
480 157 m 1,0,1
 522 205 522 205 528 195 c 1,2,-1
 527 185 l 1,3,-1
 516 146 l 1,4,5
 474 60 474 60 381 19 c 1,6,7
 331 0 331 0 272 0 c 0,8,9
 168 0 168 0 99 78 c 1,10,11
 44 143 44 143 46 237 c 1,12,-1
 46 245 l 1,13,14
 58 461 58 461 302 578 c 1,15,16
 355 602 355 602 385 612 c 0,17,18
 429 628 429 628 450 625 c 1,19,20
 454 622 454 622 435 609 c 2,21,-1
 401 588 l 1,22,23
 186 469 186 469 158 289 c 0,24,25
 154 266 154 266 154 240 c 1,26,27
 150 214 150 214 159 186 c 0,28,29
 162 175 162 175 167 164 c 0,30,31
 177 144 177 144 190 128 c 0,32,33
 238 70 238 70 313 76 c 0,34,35
 319 76 319 76 324 77 c 0,36,37
 332 78 332 78 346 80 c 1,38,39
 408 95 408 95 480 157 c 1,0,1
EndSplineSet
EndChar
StartChar: digit_nine
Encoding: 2799 2799 86
Width: 624
GlyphClass: 2
Flags: W
Fore
298 350 m 1,0,-1
 543 350 l 1,1,-1
 562 345 l 1,2,3
 569 341 569 341 572 335 c 1,4,-1
 574 326 l 1,5,6
 570 296 570 296 543 296 c 2,7,-1
 298 296 l 1,8,-1
 281 305 l 1,9,10
 271 312 271 312 272 322 c 0,11,12
 273 345 273 345 298 350 c 1,0,-1
356 579 m 0,13,14
 266 558 266 558 201 481 c 1,15,16
 142 407 142 407 144 322 c 0,17,18
 148 223 148 223 232 135 c 0,19,20
 300 65 300 65 368 58 c 0,21,22
 448 48 448 48 455 46 c 0,23,24
 466 43 466 43 465 33 c 1,25,-1
 464 29 l 1,26,27
 452 0 452 0 369 1 c 0,28,29
 242 2 242 2 143 101 c 1,30,31
 53 197 53 197 49 316 c 1,32,-1
 49 324 l 1,33,34
 48 412 48 412 91 482 c 0,35,36
 112 517 112 517 145 547 c 0,37,38
 231 623 231 623 352 629 c 1,39,-1
 407 628 l 2,40,41
 419 626 l 0,42,43
 449 618 449 618 449 600 c 1,44,45
 446 587 446 587 398 584 c 0,46,47
 372 583 372 583 356 579 c 0,13,14
EndSplineSet
EndChar
StartChar: abbrevation_sign
Encoding: 2800 2800 87
Width: 620
GlyphClass: 2
Flags: W
Fore
572 306 m 0,0,1
 572 197 572 197 499 123 c 0,2,3
 424 46 424 46 324 46 c 0,4,5
 205 46 205 46 131 123 c 1,6,7
 54 200 54 200 54 306 c 0,8,9
 54 412 54 412 132 495 c 0,10,11
 204 571 204 571 308 571 c 2,12,-1
 316 571 l 2,13,14
 428 566 428 566 499 490 c 1,15,16
 572 416 572 416 572 306 c 0,0,1
478 306 m 0,17,18
 479 342 479 342 471 377 c 0,19,20
 467 393 467 393 462 408 c 0,21,22
 454 426 454 426 438 452 c 1,23,24
 396 514 396 514 314 517 c 0,25,26
 281 518 281 518 255 505 c 0,27,28
 240 498 240 498 226 486 c 1,29,-1
 204 462 l 1,30,31
 196 451 196 451 195 450 c 0,32,33
 152 390 152 390 152 306 c 1,34,35
 155 227 155 227 198 168 c 0,36,37
 245 104 245 104 321 104 c 0,38,39
 392 104 392 104 438 168 c 1,40,41
 478 230 478 230 478 306 c 0,17,18
EndSplineSet
EndChar
StartChar: RupeeCurrency_sign
Encoding: 2801 2801 88
Width: 845
GlyphClass: 2
Flags: W
Fore
654 248 m 0,0,1
 723 248 723 248 766 193 c 1,2,3
 791 157 791 157 790 116 c 0,4,5
 787 47 787 47 725 15 c 1,6,-1
 694 4 l 1,7,-1
 657 -1 l 1,8,-1
 656 -1 l 2,9,10
 603 -2 603 -2 570 23 c 0,11,12
 552 37 552 37 539 57 c 0,13,14
 521 88 521 88 521 126 c 0,15,16
 521 192 521 192 581 227 c 1,17,18
 612 248 612 248 654 248 c 0,0,1
652 195 m 0,19,20
 618 194 618 194 598 163 c 0,21,22
 588 148 588 148 588 133 c 0,23,24
 586 108 586 108 600 88 c 0,25,26
 606 79 606 79 615 71 c 0,27,28
 632 57 632 57 649 57 c 0,29,30
 700 57 700 57 717 96 c 1,31,32
 725 108 725 108 724 129 c 0,33,34
 723 165 723 165 689 185 c 1,35,36
 674 196 674 196 652 195 c 0,19,20
80 585 m 0,37,38
 106 609 106 609 185 625 c 0,39,40
 208 629 208 629 226 629 c 0,41,42
 385 629 385 629 419 531 c 1,43,44
 430 495 430 495 419 459 c 0,45,46
 413 438 413 438 400 418 c 1,47,48
 373 370 373 370 338 368 c 1,49,50
 413 344 413 344 452 289 c 1,51,52
 475 253 475 253 474 214 c 0,53,54
 473 134 473 134 403 81 c 1,55,56
 360 46 360 46 305 44 c 1,57,-1
 388 -50 l 2,58,59
 395 -58 395 -58 398 -75 c 0,60,61
 401 -86 401 -86 398 -97 c 0,62,63
 394 -105 l 2,64,-1
 385 -118 l 1,65,-1
 381 -120 l 2,66,67
 363 -129 363 -129 347 -126 c 0,68,69
 339 -124 l 0,70,71
 325 -118 325 -118 318 -111 c 1,72,73
 298 -81 298 -81 229 11 c 1,74,-1
 217 29 l 1,75,76
 133 43 133 43 109 72 c 1,77,78
 96 85 96 85 94 106 c 0,79,80
 92 131 92 131 101 145 c 0,81,82
 106 154 106 154 115 160 c 0,83,84
 133 172 133 172 164 173 c 0,85,86
 197 175 197 175 222 153 c 1,87,-1
 239 132 l 2,88,89
 243 128 243 128 246 122 c 0,90,91
 251 114 251 114 255 103 c 1,92,93
 329 112 329 112 360 159 c 1,94,95
 379 182 379 182 378 214 c 0,96,97
 375 288 375 288 287 321 c 0,98,99
 254 334 254 334 217 337 c 2,100,-1
 147 340 l 1,101,102
 129 344 129 344 126 358 c 0,103,104
 123 375 123 375 137 383 c 0,105,106
 144 387 144 387 157 390 c 1,107,-1
 229 399 l 1,108,109
 305 414 305 414 321 467 c 0,110,111
 325 480 325 480 324 495 c 0,112,113
 323 502 323 502 322 510 c 0,114,115
 309 565 309 565 237 575 c 0,116,117
 217 579 217 579 199 578 c 0,118,119
 189 577 189 577 179 575 c 2,120,-1
 100 555 l 1,121,-1
 79 556 l 2,122,123
 77 557 77 557 76 557 c 0,124,125
 66 560 66 560 73 575 c 0,126,127
 76 581 76 581 80 585 c 0,37,38
EndSplineSet
EndChar
StartChar: letterKA.half
Encoding: 1114113 -1 89
Width: 677
GlyphClass: 3
Flags: W
Fore
449 337 m 1,0,-1
 549 282 l 1,1,2
 633 228 633 228 632 164 c 0,3,4
 630 93 630 93 538 41 c 0,5,6
 467 0 467 0 399 -2 c 1,7,-1
 361 -1 l 1,8,-1
 356 1 l 2,9,10
 354 2 354 2 356 4 c 0,11,12
 357 5 357 5 359 6 c 0,13,14
 370 12 370 12 398 18 c 0,15,16
 514 46 514 46 542 123 c 1,17,18
 550 139 550 139 549 164 c 0,19,20
 546 215 546 215 456 272 c 1,21,22
 422 296 422 296 399 301 c 1,23,-1
 352 264 l 1,24,25
 327 240 327 240 297 208 c 1,26,27
 201 146 201 146 158 136 c 0,28,29
 145 134 145 134 130 132 c 0,30,31
 105 130 105 130 89 134 c 0,32,33
 80 135 80 135 72 139 c 1,34,35
 56 144 56 144 50 154 c 1,36,37
 41 162 41 162 43 168 c 0,38,39
 45 172 45 172 49 173 c 0,40,41
 56 175 56 175 68 173 c 0,42,43
 80 171 l 0,44,45
 97 166 97 166 118 169 c 0,46,47
 129 170 129 170 140 173 c 0,48,49
 189 183 189 183 232 226 c 1,50,-1
 330 330 l 1,51,52
 332 331 332 331 336 335 c 1,53,54
 224 395 224 395 224 470 c 0,55,56
 223 505 223 505 251 536 c 0,57,58
 264 550 264 550 282 564 c 0,59,60
 315 587 315 587 357 604 c 0,61,62
 403 622 403 622 432 629 c 0,63,64
 465 638 465 638 479 637 c 1,65,-1
 480 633 l 1,66,67
 480 631 480 631 479 630 c 0,68,69
 468 619 468 619 437 606 c 0,70,71
 303 545 303 545 306 462 c 0,72,73
 309 411 309 411 356 382 c 1,74,75
 377 371 377 371 389 369 c 1,76,-1
 481 435 l 1,77,78
 580 498 580 498 657 506 c 0,79,80
 682 508 682 508 699 504 c 0,81,82
 709 502 709 502 717 498 c 0,83,84
 728 494 728 494 738 484 c 1,85,-1
 744 475 l 1,86,87
 746 469 746 469 741 466 c 1,88,-1
 733 464 l 1,89,-1
 713 466 l 2,90,91
 710 466 710 466 708 467 c 0,92,93
 682 474 682 474 625 449 c 0,94,95
 595 435 595 435 557 413 c 0,96,97
 501 380 501 380 449 337 c 1,0,-1
EndSplineSet
Ligature2: "'half' Half Forms in Gujarati lookup 4 subtable" letterKA signhalant
EndChar
StartChar: letterKHA.half
Encoding: 1114114 -1 90
Width: 623
GlyphClass: 3
Flags: W
Fore
669 339 m 1,0,1
 640 302 640 302 552 303 c 2,2,-1
 548 303 l 1,3,-1
 542 303 l 2,4,5
 516 303 516 303 496 307 c 0,6,7
 495 307 495 307 489 300 c 0,8,9
 486 296 486 296 483 288 c 0,10,11
 449 200 449 200 386 160 c 0,12,13
 349 136 349 136 314 125 c 0,14,15
 271 113 271 113 232 117 c 0,16,17
 217 118 217 118 202 122 c 0,18,19
 177 128 177 128 155 141 c 0,20,21
 88 180 88 180 91 258 c 1,22,-1
 91 264 l 1,23,24
 97 328 97 328 158 401 c 1,25,26
 203 459 203 459 197 512 c 0,27,28
 197 516 197 516 196 520 c 1,29,-1
 193 538 l 1,30,31
 177 586 177 586 134 596 c 0,32,33
 130 597 130 597 122 597 c 1,34,35
 109 603 109 603 94 601 c 0,36,37
 88 600 88 600 83 598 c 0,38,39
 66 592 66 592 57 583 c 0,40,41
 47 575 47 575 43 577 c 1,42,-1
 42 582 l 1,43,44
 46 602 46 602 74 615 c 0,45,46
 104 630 104 630 122 632 c 1,47,48
 178 633 178 633 213 601 c 0,49,50
 230 585 230 585 242 561 c 0,51,52
 264 514 264 514 257 467 c 0,53,54
 254 449 254 449 247 431 c 0,55,56
 242 417 242 417 233 406 c 1,57,58
 170 308 170 308 181 250 c 0,59,60
 182 243 182 243 184 237 c 0,61,62
 190 220 190 220 211 204 c 1,63,64
 243 176 243 176 301 178 c 0,65,66
 303 178 303 178 306 178 c 2,67,-1
 318 180 l 2,68,69
 382 188 382 188 420 261 c 1,70,71
 434 295 434 295 434 305 c 2,72,-1
 434 313 l 1,73,74
 432 320 432 320 417 326 c 2,75,-1
 393 338 l 1,76,77
 371 354 371 354 365 387 c 0,78,79
 361 402 361 402 366 416 c 0,80,81
 369 423 369 423 374 430 c 0,82,83
 381 441 381 441 394 449 c 0,84,85
 427 469 427 469 456 465 c 0,86,87
 466 463 l 0,88,89
 476 461 476 461 482 456 c 1,90,91
 520 435 520 435 521 387 c 0,92,93
 522 369 522 369 517 356 c 1,94,-1
 510 343 l 1,95,-1
 509 337 l 1,96,97
 529 330 529 330 552 334 c 0,98,99
 565 335 565 335 578 340 c 0,100,101
 599 347 599 347 625 366 c 0,102,103
 649 383 649 383 670 413 c 1,104,-1
 669 339 l 1,0,1
EndSplineSet
Ligature2: "'half' Half Forms in Gujarati lookup 4 subtable" letterKHA signhalant
EndChar
StartChar: letterGA.half
Encoding: 1114115 -1 91
Width: 491
GlyphClass: 3
Flags: W
Fore
124 624 m 2,0,1
 164 627 164 627 220 609 c 0,2,3
 254 598 254 598 281 586 c 0,4,5
 412 530 412 530 441 447 c 0,6,7
 450 422 450 422 448 400 c 0,8,9
 447 398 447 398 447 395 c 0,10,11
 437 263 437 263 332 214 c 0,12,13
 271 186 271 186 208 195 c 0,14,15
 182 199 182 199 156 209 c 1,16,17
 74 236 74 236 49 305 c 0,18,19
 41 326 41 326 42 352 c 0,20,21
 42 356 l 0,22,23
 47 402 47 402 59 428 c 0,24,25
 63 437 63 437 67 435 c 1,26,-1
 71 430 l 1,27,-1
 73 410 l 1,28,-1
 73 401 l 1,29,30
 78 279 78 279 205 261 c 0,31,32
 222 258 222 258 242 258 c 0,33,34
 278 257 278 257 306 281 c 0,35,36
 319 292 319 292 332 311 c 0,37,38
 362 359 362 359 353 414 c 0,39,40
 351 430 351 430 345 447 c 0,41,42
 318 521 318 521 227 566 c 1,43,44
 202 580 202 580 159 594 c 0,45,46
 101 611 101 611 101 617 c 0,47,48
 101 621 101 621 111 622 c 2,49,-1
 124 624 l 2,0,1
EndSplineSet
Ligature2: "'half' Half Forms in Gujarati lookup 4 subtable" letterGA signhalant
EndChar
StartChar: letterGHA.half
Encoding: 1114116 -1 92
Width: 454
GlyphClass: 3
Flags: W
Fore
493 174 m 1,0,1
 401 49 401 49 289 51 c 1,2,3
 223 54 223 54 155 100 c 1,4,-1
 128 123 l 1,5,6
 118 133 118 133 115 138 c 0,7,8
 62 208 62 208 76 261 c 1,9,-1
 79 270 l 1,10,-1
 79 271 l 1,11,12
 101 338 101 338 188 368 c 1,13,14
 72 394 72 394 49 441 c 0,15,16
 28 482 28 482 69 535 c 0,17,18
 91 563 91 563 131 594 c 1,19,-1
 182 629 l 1,20,-1
 211 643 l 1,21,22
 238 654 238 654 251 651 c 1,23,-1
 255 648 l 1,24,-1
 255 645 l 1,25,26
 253 633 253 633 238 629 c 1,27,28
 169 587 169 587 142 528 c 0,29,30
 131 501 131 501 134 479 c 0,31,32
 136 468 136 468 140 458 c 0,33,34
 147 443 147 443 163 431 c 1,35,36
 201 397 201 397 262 403 c 0,37,38
 268 403 268 403 274 404 c 2,39,-1
 310 413 l 1,40,-1
 311 413 l 2,41,42
 338 421 338 421 349 419 c 0,43,44
 353 418 353 418 353 411 c 0,45,46
 352 401 352 401 343 398 c 0,47,48
 261 373 261 373 232 358 c 1,49,50
 161 325 161 325 163 242 c 0,51,52
 163 238 163 238 164 237 c 0,53,54
 169 173 169 173 209 134 c 0,55,56
 252 92 252 92 314 95 c 0,57,58
 317 95 317 95 319 95 c 0,59,60
 340 97 340 97 350 100 c 0,61,62
 441 129 441 129 493 259 c 1,63,-1
 493 174 l 1,0,1
EndSplineSet
Ligature2: "'half' Half Forms in Gujarati lookup 4 subtable" letterGHA signhalant
EndChar
StartChar: letterCA.half
Encoding: 1114117 -1 93
Width: 619
GlyphClass: 3
Flags: W
Fore
667 243 m 1,0,-1
 607 179 l 1,1,2
 500 70 500 70 393 68 c 0,3,4
 319 68 319 68 250 124 c 1,5,6
 221 145 221 145 179 194 c 1,7,8
 156 212 156 212 143 224 c 0,9,10
 122 245 122 245 80 268 c 1,11,12
 58 288 58 288 52 298 c 0,13,14
 40 319 40 319 43 341 c 0,15,16
 43 346 43 346 45 351 c 0,17,18
 50 367 50 367 59 378 c 0,19,20
 84 405 84 405 111 403 c 0,21,22
 114 402 114 402 116 402 c 2,23,-1
 124 400 l 2,24,25
 155 392 155 392 168 374 c 1,26,-1
 190 338 l 1,27,28
 196 333 196 333 207 336 c 0,29,30
 214 337 214 337 221 341 c 0,31,32
 230 345 230 345 249 357 c 1,33,34
 317 405 317 405 330 456 c 1,35,36
 337 493 337 493 315 526 c 0,37,38
 304 543 304 543 286 559 c 1,39,40
 244 591 244 591 212 606 c 2,41,-1
 157 630 l 1,42,43
 147 632 147 632 144 633 c 0,44,45
 132 639 132 639 132 646 c 1,46,47
 137 653 137 653 161 651 c 0,48,49
 174 650 174 650 190 646 c 0,50,51
 211 643 211 643 253 629 c 1,52,53
 288 621 288 621 323 602 c 0,54,55
 418 551 418 551 417 475 c 0,56,57
 417 437 417 437 396 404 c 1,58,59
 349 323 349 323 211 293 c 1,60,61
 213 288 213 288 222 271 c 1,62,63
 306 141 306 141 416 141 c 0,64,65
 472 140 472 140 528 179 c 0,66,67
 555 197 555 197 582 224 c 0,68,69
 623 267 623 267 666 334 c 1,70,-1
 667 243 l 1,0,-1
EndSplineSet
Ligature2: "'half' Half Forms in Gujarati lookup 4 subtable" letterCA signhalant
EndChar
StartChar: letterJA.half
Encoding: 1114118 -1 94
Width: 995
GlyphClass: 3
Flags: W
Fore
1039 636 m 1,0,1
 886 541 886 541 771 426 c 0,2,3
 618 271 618 271 637 160 c 0,4,5
 639 151 639 151 641 143 c 0,6,7
 660 77 660 77 716 61 c 1,8,9
 739 56 739 56 757 61 c 0,10,11
 769 64 769 64 780 71 c 0,12,13
 793 78 793 78 807 93 c 1,14,15
 832 123 832 123 839 150 c 0,16,17
 857 222 857 222 836 288 c 0,18,19
 825 320 825 320 806 350 c 0,20,21
 775 396 775 396 727 434 c 0,22,23
 617 521 617 521 462 550 c 1,24,25
 410 558 410 558 370 557 c 0,26,27
 364 556 364 556 359 556 c 0,28,29
 350 556 350 556 336 554 c 0,30,31
 217 536 217 536 164 468 c 0,32,33
 134 430 134 430 138 384 c 0,34,35
 138 379 138 379 139 374 c 0,36,37
 141 360 141 360 145 349 c 0,38,39
 174 264 174 264 242 255 c 0,40,41
 264 252 264 252 285 257 c 0,42,43
 297 260 297 260 307 265 c 0,44,45
 320 272 320 272 336 288 c 0,46,47
 367 319 367 319 361 355 c 0,48,49
 360 360 360 360 359 364 c 0,50,51
 358 371 358 371 352 385 c 0,52,53
 334 424 334 424 293 452 c 0,54,55
 243 484 243 484 240 489 c 1,56,57
 240 493 240 493 246 495 c 1,58,-1
 271 495 l 2,59,60
 278 494 278 494 291 492 c 0,61,62
 422 466 422 466 445 385 c 0,63,64
 453 356 453 356 447 330 c 0,65,66
 444 317 444 317 437 303 c 0,67,68
 426 278 426 278 409 263 c 1,69,70
 360 207 360 207 276 199 c 0,71,72
 235 194 235 194 198 205 c 0,73,74
 181 210 181 210 165 218 c 0,75,76
 146 228 146 228 121 249 c 1,77,78
 87 273 87 273 69 313 c 0,79,80
 35 383 35 383 44 442 c 0,81,82
 47 458 47 458 52 473 c 0,83,84
 64 506 64 506 97 542 c 1,85,86
 160 607 160 607 265 624 c 0,87,88
 266 625 266 625 270 625 c 0,89,90
 292 628 292 628 312 628 c 0,91,92
 397 629 397 629 470 617 c 0,93,94
 512 610 512 610 551 598 c 0,95,96
 603 583 603 583 671 550 c 1,97,98
 840 462 840 462 894 334 c 0,99,100
 929 253 929 253 926 177 c 0,101,102
 925 172 925 172 925 167 c 0,103,104
 924 164 924 164 924 156 c 0,105,106
 915 74 915 74 843 29 c 2,107,-1
 825 17 l 1,108,109
 780 -3 780 -3 729 2 c 0,110,111
 721 3 721 3 712 4 c 0,112,113
 683 9 683 9 656 19 c 1,114,115
 570 57 570 57 549 136 c 0,116,117
 541 164 541 164 542 196 c 0,118,119
 542 198 542 198 542 201 c 0,120,121
 551 316 551 316 736 470 c 0,122,123
 857 571 857 571 959 618 c 0,124,125
 973 625 973 625 978 627 c 0,126,127
 1036 649 1036 649 1050 644 c 1,128,-1
 1039 636 l 1,0,1
EndSplineSet
Ligature2: "'half' Half Forms in Gujarati lookup 4 subtable" letterJA signhalant
EndChar
StartChar: letterJHA.half
Encoding: 1114119 -1 95
Width: 936
GlyphClass: 3
Flags: W
Fore
961 240 m 0,0,1
 936 87 936 87 754 10 c 0,2,3
 728 -1 728 -1 716 -2 c 0,4,5
 701 -4 701 -4 721 13 c 0,6,7
 732 23 732 23 754 38 c 0,8,9
 782 58 782 58 797 71 c 0,10,11
 815 86 815 86 828 102 c 0,12,13
 882 164 882 164 873 238 c 0,14,15
 872 246 872 246 870 255 c 0,16,17
 865 280 865 280 853 306 c 0,18,19
 823 370 823 370 758 396 c 0,20,21
 711 416 711 416 668 410 c 0,22,23
 657 409 657 409 647 406 c 0,24,25
 620 397 620 397 600 387 c 2,26,-1
 595 384 l 2,27,28
 567 370 567 370 538 332 c 1,29,30
 543 296 543 296 542 268 c 1,31,-1
 540 245 l 1,32,33
 522 125 522 125 430 58 c 1,34,35
 358 8 358 8 297 4 c 0,36,37
 238 0 238 0 186 27 c 0,38,39
 158 41 158 41 132 65 c 0,40,41
 97 95 97 95 56 154 c 1,42,43
 51 159 51 159 47 165 c 1,44,-1
 42 177 l 1,45,46
 42 195 42 195 79 193 c 1,47,48
 133 187 133 187 166 154 c 1,49,50
 209 107 209 107 251 92 c 0,51,52
 286 80 286 80 316 86 c 0,53,54
 332 88 332 88 348 96 c 0,55,56
 369 107 369 107 393 132 c 0,57,58
 449 191 449 191 445 264 c 0,59,60
 445 266 445 266 445 269 c 0,61,62
 445 274 445 274 444 278 c 0,63,64
 436 351 436 351 386 393 c 0,65,66
 362 414 362 414 336 423 c 0,67,68
 261 452 261 452 182 425 c 0,69,70
 142 412 142 412 101 384 c 0,71,72
 61 356 61 356 48 352 c 0,73,74
 41 351 41 351 43 357 c 0,75,76
 45 361 45 361 51 369 c 0,77,78
 56 376 56 376 75 393 c 1,79,80
 106 426 106 426 161 466 c 1,81,82
 280 547 280 547 380 517 c 0,83,84
 427 503 427 503 475 456 c 1,85,86
 496 432 496 432 523 395 c 1,87,-1
 558 425 l 1,88,89
 651 493 651 493 747 490 c 0,90,91
 749 490 749 490 752 490 c 0,92,93
 849 487 849 487 912 409 c 0,94,95
 970 338 970 338 963 254 c 0,96,97
 961 240 l 0,0,1
EndSplineSet
Ligature2: "'half' Half Forms in Gujarati lookup 4 subtable" letterJHA signhalant
EndChar
StartChar: letterNYA.half
Encoding: 1114120 -1 96
Width: 636
GlyphClass: 3
Flags: W
Fore
497 406 m 1,0,1
 553 371 553 371 609 381 c 0,2,3
 623 384 623 384 636 389 c 0,4,5
 665 399 665 399 686 425 c 1,6,-1
 686 340 l 1,7,8
 643 315 643 315 596 320 c 0,9,10
 590 320 590 320 585 321 c 0,11,12
 564 324 564 324 545 332 c 0,13,14
 513 343 513 343 487 366 c 1,15,-1
 497 406 l 1,0,1
507 493 m 0,16,17
 520 449 520 449 516 405 c 0,18,19
 514 388 514 388 510 371 c 0,20,21
 504 345 504 345 484 311 c 0,22,23
 432 222 432 222 335 206 c 1,24,25
 294 202 294 202 254 214 c 0,26,27
 234 220 234 220 214 230 c 1,28,29
 178 254 178 254 156 273 c 1,30,31
 88 337 88 337 50 439 c 1,32,33
 42 468 42 468 43 475 c 1,34,35
 45 475 45 475 67 434 c 1,36,37
 130 301 130 301 239 268 c 0,38,39
 268 260 268 260 298 261 c 0,40,41
 301 261 301 261 303 261 c 2,42,-1
 321 264 l 2,43,44
 384 277 384 277 413 348 c 1,45,46
 431 388 431 388 428 427 c 0,47,48
 428 433 428 433 427 438 c 0,49,50
 426 454 426 454 419 471 c 0,51,52
 373 594 373 594 260 583 c 0,53,54
 255 583 255 583 249 582 c 2,55,-1
 227 579 l 1,56,57
 218 576 218 576 216 575 c 0,58,59
 176 565 176 565 168 567 c 0,60,61
 166 568 166 568 171 573 c 2,62,-1
 178 579 l 1,63,-1
 200 594 l 2,64,65
 246 628 246 628 319 626 c 0,66,67
 322 626 322 626 324 626 c 0,68,69
 331 626 331 626 334 625 c 0,70,71
 441 619 441 619 490 531 c 1,72,73
 498 519 498 519 507 493 c 0,16,17
EndSplineSet
Ligature2: "'half' Half Forms in Gujarati lookup 4 subtable" letterNYA signhalant
EndChar
StartChar: letterNNA.half
Encoding: 1114121 -1 97
Width: 653
GlyphClass: 3
Flags: W
Fore
317 566 m 0,0,1
 298 559 298 559 294 562 c 0,2,3
 291 564 291 564 293 568 c 0,4,5
 298 587 298 587 335 606 c 0,6,7
 371 625 371 625 406 624 c 1,8,9
 525 615 525 615 573 521 c 0,10,11
 601 468 601 468 596 409 c 0,12,13
 596 403 596 403 595 396 c 0,14,15
 593 383 593 383 583 350 c 1,16,17
 551 261 551 261 468 228 c 1,18,19
 440 220 440 220 414 217 c 0,20,21
 382 214 382 214 354 225 c 0,22,23
 338 232 338 232 324 243 c 1,24,25
 302 257 302 257 285 280 c 1,26,27
 255 314 255 314 256 336 c 0,28,29
 257 344 257 344 265 339 c 0,30,31
 270 337 270 337 276 331 c 0,32,33
 351 264 351 264 407 274 c 0,34,35
 412 274 412 274 417 276 c 0,36,37
 426 280 426 280 444 292 c 0,38,39
 496 328 496 328 500 418 c 1,40,-1
 500 443 l 1,41,42
 495 529 495 529 426 561 c 1,43,44
 387 577 387 577 354 574 c 0,45,46
 351 573 351 573 348 573 c 0,47,48
 336 572 336 572 317 566 c 0,0,1
222 624 m 1,49,50
 126 520 126 520 137 391 c 0,51,52
 139 373 l 0,53,54
 162 245 162 245 271 158 c 1,55,56
 340 101 340 101 429 79 c 1,57,58
 490 62 490 62 541 12 c 0,59,60
 582 -27 582 -27 581 -70 c 0,61,62
 578 -162 578 -162 475 -174 c 0,63,64
 447 -177 447 -177 425 -176 c 0,65,66
 411 -175 411 -175 397 -172 c 0,67,68
 383 -169 383 -169 362 -163 c 0,69,70
 350 -159 350 -159 350 -155 c 1,71,-1
 355 -152 l 1,72,-1
 389 -155 l 2,73,74
 410 -158 410 -158 426 -153 c 0,75,76
 435 -150 435 -150 443 -144 c 0,77,78
 457 -136 457 -136 466 -126 c 1,79,80
 487 -97 487 -97 477 -66 c 0,81,82
 471 -50 471 -50 458 -33 c 0,83,84
 413 24 413 24 289 65 c 0,85,86
 154 109 154 109 88 217 c 0,87,88
 35 302 35 302 43 396 c 0,89,90
 44 406 44 406 46 417 c 0,91,92
 50 445 50 445 63 480 c 0,93,94
 90 548 90 548 152 614 c 0,95,96
 178 642 178 642 214 641 c 0,97,98
 227 640 227 640 225 629 c 1,99,-1
 222 624 l 1,49,50
EndSplineSet
Ligature2: "'half' Half Forms in Gujarati lookup 4 subtable" letterNNA signhalant
EndChar
StartChar: letterTA.half
Encoding: 1114122 -1 98
Width: 430
GlyphClass: 3
Flags: W
Fore
477 324 m 1,0,1
 465 362 465 362 396 384 c 0,2,3
 333 404 333 404 273 393 c 0,4,5
 243 388 243 388 214 376 c 1,6,7
 188 362 188 362 171 349 c 0,8,9
 111 302 111 302 114 209 c 0,10,11
 114 207 114 207 114 204 c 2,12,-1
 114 194 l 1,13,14
 120 126 120 126 156 53 c 1,15,-1
 172 8 l 1,16,17
 174 0 174 0 172 -1 c 0,18,19
 171 -2 171 -2 168 0 c 0,20,21
 115 38 115 38 77 130 c 1,22,23
 36 223 36 223 43 295 c 0,24,25
 45 311 l 0,26,27
 48 334 48 334 57 354 c 0,28,29
 83 410 83 410 134 434 c 1,30,31
 202 469 202 469 298 467 c 0,32,33
 304 467 l 2,34,-1
 314 467 l 2,35,36
 404 463 404 463 478 424 c 1,37,-1
 477 324 l 1,0,1
EndSplineSet
Ligature2: "'half' Half Forms in Gujarati lookup 4 subtable" letterTA signhalant
EndChar
StartChar: letterTHA.half
Encoding: 1114123 -1 99
Width: 538
GlyphClass: 3
Flags: W
Fore
585 220 m 1,0,1
 559 154 559 154 474 100 c 0,2,3
 395 51 395 51 324 53 c 0,4,5
 322 54 322 54 317 54 c 0,6,7
 140 67 140 67 71 223 c 0,8,9
 52 264 52 264 43 312 c 0,10,11
 40 334 40 334 45 349 c 0,12,13
 47 356 47 356 51 362 c 0,14,15
 58 374 58 374 69 379 c 0,16,17
 90 391 90 391 111 382 c 0,18,19
 122 377 122 377 133 366 c 1,20,21
 164 344 164 344 224 346 c 0,22,23
 228 346 228 346 231 346 c 2,24,-1
 244 346 l 2,25,26
 306 350 306 350 336 379 c 0,27,28
 378 419 378 419 374 474 c 0,29,30
 374 480 l 1,31,-1
 371 492 l 1,32,33
 362 545 362 545 323 560 c 0,34,35
 311 564 311 564 296 564 c 1,36,37
 236 559 236 559 227 519 c 0,38,39
 225 508 225 508 227 498 c 0,40,41
 228 492 228 492 230 487 c 1,42,-1
 240 472 l 1,43,44
 264 444 264 444 298 452 c 0,45,46
 305 454 305 454 313 457 c 0,47,48
 315 458 315 458 326 463 c 1,49,-1
 343 474 l 1,50,-1
 347 473 l 1,51,-1
 348 472 l 1,52,53
 350 466 350 466 349 463 c 0,54,55
 344 445 344 445 324 428 c 1,56,57
 283 387 283 387 232 391 c 0,58,59
 228 391 228 391 224 392 c 2,60,-1
 209 395 l 2,61,62
 158 408 158 408 141 455 c 0,63,64
 139 463 139 463 137 475 c 0,65,66
 132 514 132 514 143 543 c 0,67,68
 149 559 149 559 160 572 c 1,69,70
 175 593 175 593 199 606 c 1,71,72
 238 632 238 632 298 631 c 0,73,74
 386 628 386 628 433 547 c 1,75,76
 465 488 465 488 461 433 c 0,77,78
 460 429 460 429 460 425 c 0,79,80
 458 417 458 417 454 399 c 0,81,82
 448 379 448 379 435 359 c 0,83,84
 399 305 399 305 314 290 c 1,85,86
 280 282 280 282 245 285 c 0,87,88
 227 286 227 286 208 290 c 0,89,90
 181 294 181 294 152 305 c 1,91,92
 148 300 148 300 147 295 c 1,93,-1
 150 276 l 1,94,95
 164 198 164 198 227 151 c 0,96,97
 247 136 247 136 276 124 c 0,98,99
 335 101 335 101 400 121 c 0,100,101
 431 131 431 131 465 150 c 0,102,103
 545 197 545 197 574 265 c 0,104,105
 585 288 585 288 585 314 c 2,106,-1
 585 220 l 1,0,1
EndSplineSet
Ligature2: "'half' Half Forms in Gujarati lookup 4 subtable" letterTHA signhalant
EndChar
StartChar: letterDHA.half
Encoding: 1114124 -1 100
Width: 488
GlyphClass: 3
Flags: W
Fore
407 618 m 1,0,1
 457 588 457 588 454 549 c 0,2,3
 453 547 453 547 453 545 c 0,4,5
 453 543 453 543 451 537 c 0,6,7
 442 511 442 511 409 494 c 0,8,9
 382 481 382 481 349 483 c 0,10,11
 344 483 344 483 340 484 c 0,12,13
 322 486 322 486 314 488 c 0,14,15
 249 507 249 507 207 485 c 0,16,17
 186 474 186 474 171 454 c 1,18,19
 159 434 159 434 154 414 c 1,20,21
 145 389 145 389 152 368 c 0,22,23
 155 357 155 357 163 347 c 0,24,25
 171 336 171 336 190 321 c 1,26,27
 235 292 235 292 307 295 c 0,28,29
 310 295 310 295 314 295 c 2,30,-1
 326 295 l 2,31,32
 377 295 377 295 375 282 c 1,33,-1
 365 274 l 1,34,35
 349 268 349 268 336 265 c 1,36,37
 186 248 186 248 177 132 c 0,38,39
 175 103 175 103 188 81 c 0,40,41
 194 70 194 70 205 60 c 0,42,43
 221 44 221 44 246 34 c 1,44,45
 296 11 296 11 350 15 c 0,46,47
 356 15 356 15 362 16 c 0,48,49
 383 17 383 17 402 26 c 1,50,51
 456 41 456 41 482 72 c 1,52,53
 533 120 533 120 538 112 c 1,54,-1
 537 102 l 1,55,56
 534 86 534 86 508 43 c 1,57,58
 448 -48 448 -48 324 -52 c 0,59,60
 276 -54 276 -54 236 -45 c 0,61,62
 214 -41 214 -41 194 -33 c 0,63,64
 180 -27 180 -27 136 -2 c 1,65,66
 68 47 68 47 69 113 c 0,67,68
 72 200 72 200 145 249 c 1,69,-1
 183 269 l 1,70,71
 80 293 80 293 51 354 c 0,72,73
 42 374 42 374 42 396 c 0,74,75
 42 478 42 478 103 523 c 0,76,77
 160 564 160 564 250 552 c 0,78,79
 275 549 275 549 302 542 c 0,80,81
 332 534 332 534 351 537 c 0,82,83
 358 538 358 538 364 540 c 0,84,85
 375 545 375 545 381 555 c 0,86,87
 387 564 387 564 385 574 c 0,88,89
 384 578 384 578 382 583 c 0,90,91
 376 594 376 594 368 599 c 0,92,93
 353 611 353 611 331 617 c 1,94,95
 325 660 325 660 391 626 c 0,96,97
 405 618 405 618 407 618 c 1,0,1
EndSplineSet
Ligature2: "'half' Half Forms in Gujarati lookup 4 subtable" letterDHA signhalant
EndChar
StartChar: letterNA.half
Encoding: 1114125 -1 101
Width: 553
GlyphClass: 3
Flags: W
Fore
331 485 m 0,0,1
 392 487 392 487 460 477 c 0,2,3
 493 472 493 472 528 465 c 0,4,5
 588 451 588 451 614 440 c 1,6,-1
 606 401 l 1,7,8
 602 391 602 391 596 391 c 1,9,10
 532 419 532 419 472 427 c 0,11,12
 414 434 414 434 374 433 c 0,13,14
 369 432 369 432 364 432 c 0,15,16
 356 432 356 432 352 431 c 0,17,18
 338 429 338 429 315 420 c 1,19,20
 335 370 335 370 339 335 c 1,21,-1
 341 312 l 1,22,23
 346 260 346 260 332 222 c 0,24,25
 325 202 325 202 313 185 c 0,26,27
 304 171 304 171 285 157 c 2,28,-1
 269 146 l 1,29,30
 226 122 226 122 178 126 c 0,31,32
 172 126 172 126 167 127 c 0,33,34
 150 129 150 129 133 135 c 0,35,36
 93 148 93 148 68 182 c 0,37,38
 40 219 40 219 42 279 c 0,39,40
 42 285 l 1,41,-1
 44 297 l 1,42,43
 50 355 50 355 116 410 c 0,44,45
 198 480 198 480 331 485 c 0,0,1
256 410 m 1,46,47
 209 404 209 404 172 375 c 0,48,49
 121 333 121 333 125 278 c 0,50,51
 126 274 126 274 126 271 c 0,52,53
 128 261 128 261 130 256 c 0,54,55
 134 242 134 242 146 225 c 1,56,57
 168 199 168 199 197 203 c 0,58,59
 200 203 200 203 203 204 c 2,60,-1
 215 207 l 2,61,62
 260 222 260 222 274 279 c 0,63,64
 281 308 281 308 278 334 c 0,65,66
 277 344 277 344 275 353 c 0,67,68
 268 381 268 381 256 410 c 1,46,47
EndSplineSet
Ligature2: "'half' Half Forms in Gujarati lookup 4 subtable" letterNA signhalant
EndChar
StartChar: letterPA.half
Encoding: 1114126 -1 102
Width: 439
GlyphClass: 3
Flags: W
Fore
483 253 m 2,0,1
 483 252 483 252 478 245 c 0,2,3
 431 169 431 169 323 159 c 1,4,5
 303 159 303 159 267 171 c 1,6,7
 153 214 153 214 150 322 c 1,8,-1
 150 539 l 2,9,10
 150 573 150 573 126 591 c 0,11,12
 112 600 112 600 94 597 c 0,13,14
 88 596 88 596 82 594 c 0,15,16
 68 589 68 589 57 579 c 0,17,18
 49 571 49 571 44 571 c 0,19,20
 41 572 41 572 42 575 c 0,21,22
 42 577 42 577 44 580 c 2,23,-1
 51 591 l 1,24,25
 83 628 83 628 125 629 c 0,26,27
 231 629 231 629 231 539 c 2,28,-1
 231 339 l 1,29,30
 233 268 233 268 289 233 c 0,31,32
 318 214 318 214 344 214 c 0,33,34
 366 213 366 213 386 217 c 0,35,36
 397 220 397 220 407 224 c 0,37,38
 426 231 426 231 437 242 c 1,39,40
 477 267 477 267 483 297 c 1,41,-1
 483 253 l 2,0,1
EndSplineSet
Ligature2: "'half' Half Forms in Gujarati lookup 4 subtable" letterPA signhalant
EndChar
StartChar: letterPHA.half
Encoding: 1114127 -1 103
Width: 728
GlyphClass: 3
Flags: W
Fore
358 -11 m 1,0,1
 368 -37 368 -37 385 -63 c 0,2,3
 434 -143 434 -143 490 -131 c 0,4,5
 496 -130 496 -130 502 -128 c 0,6,7
 514 -125 514 -125 534 -112 c 1,8,-1
 540 -106 l 1,9,10
 546 -102 546 -102 553 -103 c 0,11,12
 556 -103 556 -103 557 -106 c 0,13,14
 557 -116 557 -116 539 -132 c 0,15,16
 512 -157 512 -157 494 -165 c 0,17,18
 449 -184 449 -184 408 -164 c 0,19,20
 386 -154 386 -154 365 -133 c 0,21,22
 337 -105 337 -105 305 -46 c 0,23,24
 297 -32 297 -32 273 -19 c 1,25,26
 242 -6 242 -6 230 8 c 0,27,28
 227 11 227 11 223 19 c 0,29,30
 207 48 207 48 212 70 c 0,31,32
 215 81 215 81 223 90 c 0,33,34
 244 112 244 112 273 107 c 0,35,36
 276 106 276 106 280 105 c 0,37,38
 294 102 294 102 312 94 c 0,39,40
 333 83 333 83 340 70 c 1,41,-1
 352 38 l 1,42,43
 364 19 364 19 439 19 c 0,44,45
 483 20 483 20 521 45 c 1,46,-1
 543 62 l 1,47,48
 574 97 574 97 571 130 c 0,49,50
 570 133 570 133 570 135 c 1,51,-1
 567 144 l 1,52,53
 566 186 566 186 496 245 c 1,54,55
 433 295 433 295 406 301 c 1,56,-1
 379 281 l 2,57,58
 223 170 223 170 129 163 c 1,59,-1
 96 164 l 1,60,-1
 91 165 l 2,61,62
 78 167 78 167 73 170 c 1,63,64
 44 180 44 180 42 195 c 0,65,66
 42 207 42 207 57 206 c 1,67,-1
 79 202 l 2,68,69
 89 199 89 199 106 203 c 0,70,71
 114 204 114 204 124 207 c 2,72,-1
 159 219 l 1,73,74
 261 263 261 263 342 335 c 1,75,76
 230 395 230 395 230 470 c 0,77,78
 229 488 229 488 238 506 c 0,79,80
 242 515 242 515 249 523 c 1,81,82
 257 535 257 535 272 550 c 1,83,84
 331 601 331 601 438 629 c 0,85,86
 467 637 467 637 482 637 c 1,87,-1
 486 633 l 1,88,89
 487 630 487 630 478 623 c 0,90,91
 475 621 475 621 469 617 c 0,92,93
 458 611 458 611 443 606 c 1,94,-1
 428 599 l 2,95,96
 302 538 302 538 312 466 c 0,97,98
 312 462 312 462 313 458 c 2,99,100
 318 443 l 1,101,102
 340 394 340 394 395 369 c 1,103,-1
 430 394 l 2,104,105
 568 497 568 497 664 506 c 1,106,-1
 699 505 l 2,107,108
 705 504 705 504 710 502 c 1,109,110
 720 501 720 501 729 495 c 0,111,112
 751 483 751 483 752 473 c 0,113,114
 752 462 752 462 736 463 c 1,115,-1
 714 467 l 2,116,117
 705 470 705 470 686 467 c 0,118,119
 679 465 679 465 670 463 c 0,120,121
 660 460 660 460 638 450 c 0,122,123
 542 410 542 410 455 337 c 1,124,-1
 493 312 l 2,125,126
 632 224 632 224 652 135 c 1,127,-1
 654 129 l 1,128,129
 660 89 660 89 640 57 c 0,130,131
 629 40 629 40 611 25 c 0,132,133
 547 -31 547 -31 436 -22 c 0,134,135
 414 -20 l 0,136,137
 393 -18 393 -18 358 -11 c 1,0,1
EndSplineSet
Ligature2: "'half' Half Forms in Gujarati lookup 4 subtable" letterPHA signhalant
EndChar
StartChar: letterBA.half
Encoding: 1114128 -1 104
Width: 564
GlyphClass: 3
Flags: W
Fore
621 316 m 1,0,1
 588 278 588 278 495 280 c 2,2,-1
 486 280 l 1,3,-1
 454 283 l 1,4,5
 457 266 457 266 452 250 c 0,6,7
 449 240 449 240 442 229 c 0,8,9
 434 216 434 216 420 201 c 0,10,11
 361 137 361 137 272 142 c 0,12,13
 269 142 269 142 265 142 c 0,14,15
 258 142 258 142 254 143 c 2,16,-1
 237 145 l 1,17,18
 179 159 179 159 124 209 c 0,19,20
 34 289 34 289 42 401 c 0,21,22
 42 407 42 407 43 413 c 1,23,-1
 46 437 l 1,24,-1
 47 441 l 2,25,26
 63 512 63 512 155 553 c 0,27,28
 211 578 211 578 275 577 c 1,29,30
 333 574 333 574 346 557 c 1,31,-1
 348 551 l 1,32,33
 346 544 346 544 329 544 c 0,34,35
 280 545 280 545 243 533 c 0,36,37
 223 526 223 526 206 516 c 0,38,39
 183 502 183 502 163 476 c 1,40,41
 131 439 131 439 129 388 c 0,42,43
 128 349 128 349 136 316 c 0,44,45
 141 297 141 297 148 281 c 0,46,47
 179 218 179 218 242 194 c 0,48,49
 270 183 270 183 297 187 c 0,50,51
 308 189 308 189 319 193 c 0,52,53
 340 201 340 201 358 215 c 0,54,55
 393 242 393 242 391 268 c 0,56,57
 391 274 391 274 385 280 c 1,58,-1
 344 297 l 1,59,60
 314 313 314 313 305 359 c 0,61,62
 302 377 302 377 307 391 c 0,63,64
 310 399 310 399 316 406 c 1,65,66
 328 416 328 416 341 422 c 0,67,68
 361 433 361 433 382 431 c 0,69,70
 385 431 385 431 387 431 c 2,71,-1
 396 428 l 1,72,-1
 397 428 l 2,73,74
 456 407 456 407 460 322 c 0,75,76
 460 314 460 314 461 314 c 0,77,78
 497 310 497 310 521 314 c 0,79,80
 534 317 534 317 545 322 c 0,81,82
 556 326 556 326 567 333 c 1,83,84
 601 350 601 350 617 383 c 1,85,-1
 621 390 l 1,86,-1
 621 391 l 1,87,-1
 621 316 l 1,0,1
396 321 m 1,88,89
 403 337 403 337 401 351 c 0,90,91
 400 357 400 357 397 364 c 0,92,93
 392 376 392 376 383 385 c 0,94,95
 372 395 372 395 360 393 c 1,96,97
 344 381 344 381 347 359 c 1,98,-1
 350 350 l 1,99,100
 362 326 362 326 396 321 c 1,88,89
EndSplineSet
Ligature2: "'half' Half Forms in Gujarati lookup 4 subtable" letterBA signhalant
EndChar
StartChar: letterBHA.half
Encoding: 1114129 -1 105
Width: 586
GlyphClass: 3
Flags: W
Fore
395 397 m 1,0,1
 376 397 376 397 356 381 c 1,2,-1
 337 358 l 1,3,4
 312 331 312 331 316 308 c 0,5,6
 316 305 316 305 317 302 c 0,7,8
 318 300 318 300 325 290 c 1,9,10
 340 275 340 275 352 280 c 0,11,12
 355 281 355 281 358 283 c 0,13,14
 368 288 368 288 377 301 c 0,15,16
 402 335 402 335 398 378 c 0,17,18
 398 383 398 383 397 388 c 2,19,-1
 395 396 l 1,20,-1
 395 397 l 1,0,1
633 432 m 1,21,-1
 637 384 l 1,22,23
 552 414 552 414 488 412 c 0,24,25
 484 412 l 0,26,27
 480 411 480 411 473 411 c 0,28,29
 471 410 471 410 467 410 c 1,30,31
 472 361 472 361 464 323 c 0,32,33
 460 304 460 304 453 288 c 0,34,35
 442 262 442 262 423 243 c 0,36,37
 389 207 389 207 340 208 c 2,38,-1
 335 208 l 2,39,40
 255 214 255 214 242 272 c 0,41,42
 236 297 236 297 243 322 c 0,43,44
 246 332 246 332 252 344 c 0,45,46
 264 366 264 366 278 381 c 0,47,48
 322 432 322 432 391 442 c 1,49,50
 394 465 394 465 386 487 c 0,51,52
 382 497 382 497 376 508 c 1,53,54
 367 519 367 519 349 539 c 1,55,56
 305 582 305 582 260 580 c 0,57,58
 259 579 259 579 255 579 c 0,59,60
 167 566 167 566 130 468 c 0,61,62
 105 404 105 404 113 335 c 0,63,64
 117 302 117 302 128 267 c 0,65,66
 142 220 142 220 178 176 c 1,67,68
 215 134 215 134 207 130 c 0,69,70
 206 130 206 130 203 130 c 1,71,-1
 184 139 l 1,72,73
 133 175 133 175 88 244 c 0,74,75
 45 311 45 311 42 375 c 0,76,77
 40 419 40 419 51 457 c 0,78,79
 58 478 58 478 69 498 c 1,80,81
 82 526 82 526 105 554 c 1,82,83
 170 628 170 628 254 628 c 0,84,85
 340 628 340 628 406 556 c 0,86,87
 451 506 451 506 457 453 c 1,88,89
 490 456 490 456 521 455 c 0,90,91
 537 455 537 455 552 453 c 0,92,93
 569 451 569 451 596 443 c 2,94,-1
 633 432 l 1,21,-1
EndSplineSet
Ligature2: "'half' Half Forms in Gujarati lookup 4 subtable" letterBHA signhalant
EndChar
StartChar: letterMA.half
Encoding: 1114130 -1 106
Width: 484
GlyphClass: 3
Flags: W
Fore
303 354 m 1,0,1
 255 354 255 354 201 329 c 0,2,3
 141 300 141 300 131 260 c 1,4,-1
 129 248 l 1,5,6
 128 221 128 221 138 203 c 0,7,8
 143 194 143 194 151 186 c 0,9,10
 164 174 164 174 182 169 c 0,11,12
 201 163 201 163 215 165 c 0,13,14
 219 165 219 165 222 166 c 0,15,16
 230 168 230 168 236 170 c 0,17,18
 296 197 296 197 306 285 c 0,19,20
 309 311 309 311 307 332 c 0,21,22
 306 344 306 344 303 354 c 1,0,1
364 359 m 1,23,24
 370 327 370 327 369 292 c 0,25,26
 369 285 369 285 368 278 c 0,27,28
 366 253 366 253 362 239 c 0,29,30
 350 191 350 191 330 165 c 0,31,32
 269 81 269 81 187 87 c 0,33,34
 183 88 183 88 179 88 c 0,35,36
 172 88 172 88 168 89 c 0,37,38
 99 103 99 103 62 164 c 0,39,40
 39 203 39 203 42 246 c 0,41,42
 42 250 42 250 43 254 c 0,43,44
 61 383 61 383 296 398 c 1,45,46
 288 455 288 455 250 526 c 1,47,48
 207 599 207 599 146 598 c 0,49,50
 119 597 119 597 99 580 c 0,51,52
 77 560 77 560 67 562 c 0,53,54
 63 564 63 564 63 566 c 0,55,56
 66 581 66 581 96 606 c 0,57,58
 130 633 130 633 162 633 c 0,59,60
 258 633 258 633 323 502 c 0,61,62
 351 446 351 446 356 401 c 1,63,64
 378 408 378 408 415 405 c 0,65,66
 436 404 436 404 462 400 c 0,67,68
 501 395 501 395 532 386 c 0,69,70
 541 383 541 383 537 372 c 1,71,-1
 530 358 l 1,72,-1
 525 352 l 1,73,-1
 524 352 l 2,74,75
 461 371 461 371 400 365 c 0,76,77
 382 363 382 363 364 359 c 1,23,24
EndSplineSet
Ligature2: "'half' Half Forms in Gujarati lookup 4 subtable" letterMA signhalant
EndChar
